<svg width="148" height="192" viewBox="0 0 148 192" fill="none" xmlns="http://www.w3.org/2000/svg">
<path fill-rule="evenodd" clip-rule="evenodd" d="M64.19 189.332C67.2064 190.938 70.5832 191.747 74 191.682C77.404 191.747 80.7677 190.938 83.77 189.332L143.21 154.792C145.97 153.182 147.49 151.012 147.49 148.632C147.49 146.252 145.95 144.052 143.15 142.442L83.32 107.902C77.9 104.772 69.11 104.772 63.72 107.902L4.28 142.442C1.52 144.052 0 146.222 0 148.602C0 150.982 1.55 153.222 4.35 154.802L64.19 189.332ZM64.59 109.362C67.3309 107.896 70.4024 107.16 73.51 107.222C76.6271 107.175 79.7045 107.926 82.45 109.402L142.24 143.942C144.48 145.242 145.72 146.922 145.72 148.642C145.72 150.362 144.51 152.022 142.3 153.302L82.86 187.842C78 190.692 69.94 190.692 65 187.842L5.21 153.302C2.97 152.002 1.73 150.322 1.73 148.602C1.73 146.882 2.94 145.222 5.15 143.942L64.59 109.362Z" fill="url(#paint0_linear_66_2618)"/>
<path fill-rule="evenodd" clip-rule="evenodd" d="M126.15 124.992C131.23 127.932 131.27 132.692 126.22 135.632L83.5097 160.452C78.4497 163.392 70.2297 163.392 65.1397 160.452L22.1397 135.632C17.0597 132.692 17.0197 127.932 22.0797 124.992L64.8097 100.172C69.8597 97.2221 78.0797 97.2221 83.1697 100.222L126.15 124.992Z" fill="url(#paint1_linear_66_2618)"/>
<path fill-rule="evenodd" clip-rule="evenodd" d="M130 130.732C130 130.872 130 131.002 130 131.142C130 131.282 129.95 131.362 129.92 131.472C129.89 131.582 129.85 131.732 129.81 131.862C129.77 131.992 129.72 132.072 129.68 132.182C129.64 132.292 129.56 132.452 129.49 132.592C129.42 132.732 129.38 132.782 129.32 132.882C129.26 132.982 129.13 133.182 129.01 133.332C128.89 133.482 128.79 133.622 128.67 133.762L128.58 133.862C128.41 134.042 128.23 134.222 128.03 134.402L127.63 134.732L127.27 135.022L126.8 135.332C126.64 135.442 126.48 135.542 126.31 135.652L83.5997 160.472C83.2038 160.699 82.7966 160.906 82.3797 161.092L82.0097 161.252C81.6764 161.392 81.3431 161.522 81.0097 161.642L80.6397 161.772L79.9697 161.962L79.4597 162.102L78.7397 162.252L78.2497 162.352C77.7597 162.442 77.2497 162.502 76.7697 162.562H76.3097L75.4297 162.622H74.8597H73.9997H73.4097H72.7497L72.1497 162.572L71.4997 162.502L70.9197 162.422L70.2297 162.302L69.6897 162.192L68.8797 161.992L68.4397 161.872C67.9597 161.732 67.4997 161.572 67.0497 161.402L66.3897 161.122L66.0497 160.972C65.7197 160.812 65.3997 160.652 65.0497 160.472L22.0497 135.652C19.8097 134.362 18.5497 132.712 18.2797 131.022C18.2396 130.781 18.2195 130.537 18.2197 130.292V144.402C18.2197 146.342 19.4897 148.282 22.0497 149.762L65.0497 174.582C65.3597 174.762 65.6697 174.922 66.0497 175.082L66.3897 175.232L66.9697 175.482H67.0397C67.4897 175.662 67.9597 175.812 68.4297 175.952H68.5397L68.8697 176.032L69.6797 176.232L69.8997 176.282L70.2197 176.342L70.9097 176.462H71.1897H71.4897L72.1397 176.532H72.4497H72.7397H73.3997H73.7297H75.2697L76.1497 176.472H76.4997H76.6097C77.1097 176.422 77.6097 176.352 78.0897 176.262H78.1597L78.5797 176.172L79.2897 176.022L79.7997 175.882L80.4697 175.692H80.6097L80.8397 175.602C81.1864 175.482 81.5197 175.352 81.8397 175.212L82.2097 175.052C82.6266 174.866 83.0338 174.659 83.4297 174.432L126.14 149.612L126.3 149.522L126.64 149.302L127.1 148.992L127.46 148.702L127.86 148.372L127.94 148.302C128.11 148.152 128.26 147.992 128.41 147.832L128.5 147.732L128.75 147.442L128.84 147.312C128.95 147.162 129.05 147.012 129.14 146.862C129.23 146.712 129.23 146.732 129.27 146.672V146.572C129.34 146.442 129.4 146.302 129.46 146.172C129.52 146.042 129.54 146.012 129.57 145.932V145.852C129.57 145.722 129.65 145.592 129.68 145.462C129.71 145.332 129.74 145.292 129.75 145.202C129.76 145.112 129.75 145.202 129.75 145.132C129.75 145.062 129.75 144.862 129.75 144.722C129.75 144.582 129.75 144.542 129.75 144.452C129.75 144.362 129.75 144.372 129.75 144.342V130.232C130 130.482 130 130.602 130 130.732Z" fill="url(#paint2_linear_66_2618)"/>
<path fill-rule="evenodd" clip-rule="evenodd" d="M74.3399 158.322C71.9078 158.375 69.5011 157.818 67.3399 156.702L24.3399 131.882C23.0699 131.152 22.6699 130.452 22.6699 130.282C22.6699 130.112 23.0499 129.452 24.2899 128.732L66.9999 103.912C69.1597 102.792 71.568 102.238 73.9999 102.302C76.4319 102.249 78.8386 102.806 80.9999 103.922L124 128.742C125.27 129.482 125.67 130.172 125.67 130.342C125.67 130.512 125.29 131.172 124.06 131.892L81.3399 156.702C79.1808 157.824 76.7726 158.382 74.3399 158.322Z" fill="url(#paint3_linear_66_2618)"/>
<path fill-rule="evenodd" clip-rule="evenodd" d="M86.38 89.4412C87.8674 88.6373 89.647 88.5839 91.18 89.2971L126.208 108.292C126.81 108.485 127.224 109.039 127.24 109.671C127.256 110.304 126.871 110.877 126.28 111.101L73.108 143.976C71.6205 144.78 69.8409 144.833 68.308 144.12L33.112 125.029C32.5456 124.854 32.1547 124.335 32.1411 123.742C32.1275 123.149 32.4942 122.613 33.052 122.412L86.38 89.4412Z" fill="url(#paint4_linear_66_2618)"/>
<path fill-rule="evenodd" clip-rule="evenodd" d="M32.1161 123.925C32.1127 123.977 32.1127 124.029 32.1161 124.081L32.1881 124.225L32.2841 124.369L32.3921 124.501L32.5361 124.633L32.7041 124.753L32.9081 124.873L68.1041 143.964L68.3441 144.084H68.4041L68.6321 144.168L68.8841 144.24H69.0641H69.1961H69.3881H69.5321H69.7721H71.0441H71.2121H71.3681H71.5481H71.6921H71.9081H72.0401H72.1121L72.3161 144.168L72.4961 144.084H72.5801L72.8321 143.94L126.004 111.065C126.334 110.877 126.61 110.609 126.808 110.285L126.892 110.093C126.928 110 126.952 109.903 126.964 109.805C126.969 109.741 126.969 109.677 126.964 109.613L127.048 112.218C127.013 112.844 126.641 113.4 126.076 113.671L72.9041 146.546L72.6521 146.69H72.5681L72.4121 146.762L72.2081 146.834H72.1361H72.0521H71.8361H71.6921H71.5121H71.3561H71.1881H69.9161H69.6761H69.5921H69.4841H69.2921H69.1601H68.9801L68.7641 146.762L68.5361 146.678H68.4761L68.2361 146.558L33.0401 127.467L32.8721 127.371L32.7041 127.251L32.5841 127.143L32.5241 127.071L32.4521 126.962V126.842V126.71C32.4494 126.666 32.4494 126.622 32.4521 126.578L32.3681 123.973C32.2863 123.947 32.2017 123.931 32.1161 123.925Z" fill="url(#paint5_linear_66_2618)"/>
<path fill-rule="evenodd" clip-rule="evenodd" d="M86.7401 45.6884C86.6561 44.1395 85.5761 43.5512 84.2561 44.3676L30.9041 77.3503C29.599 78.2581 28.8054 79.7347 28.7681 81.3246L30.0761 121.355C30.1601 122.904 31.2401 123.492 32.5601 122.676L85.7321 89.8014C87.1387 88.8269 87.995 87.2383 88.0361 85.5269L86.7401 45.6884ZM85.9241 84.9266L32.2601 118.101L31.0601 79.9438L84.7241 46.769L85.9241 84.9266Z" fill="url(#paint6_linear_66_2618)"/>
<path fill-rule="evenodd" clip-rule="evenodd" d="M31.024 79.9798L32.26 118.137L85.936 84.9626L84.688 46.805L31.024 79.9798Z" fill="url(#paint7_linear_66_2618)"/>
<path fill-rule="evenodd" clip-rule="evenodd" d="M28 80.7963C28 80.7963 28 80.7242 28 80.6882V80.352V80.244V80.1239V80.0038V79.8838V79.7997V79.6796V79.5596V79.4875V79.3795V79.2954V79.1874V79.0673V78.9712L28.06 78.8512V78.7911V78.6951L28.144 78.539L28.276 78.3469L28.372 78.2148L28.456 78.1067L28.54 77.9987L28.624 77.9026L28.684 77.8306L28.78 77.7345L28.876 77.6385L28.972 77.5544H29.044L29.14 77.4824L29.236 77.4224L82.576 44.4517H82.648H82.744H82.84H83.728H83.884H83.944H84.04L84.808 44.8599H84.712H84.652H84.496H84.916H84.844H84.772L84.556 44.956H84.472L84.364 45.016L30.916 77.3383L30.688 77.4944L30.484 77.6505L30.292 77.8306L30.112 78.0227L29.932 78.2508L29.752 78.491L29.608 78.7191L29.524 78.8632L29.452 78.9832V79.0433L29.344 79.2594L29.224 79.5235L29.128 79.7877L29.044 80.0639L28.984 80.328C28.984 80.4121 28.984 80.5081 28.984 80.5922C28.984 80.6762 28.984 80.7723 28.984 80.8563C28.984 80.9403 28.984 81.0364 28.984 81.1204L30.292 121.151C30.292 121.247 30.292 121.331 30.292 121.415C30.292 121.495 30.292 121.571 30.292 121.643C30.292 121.715 30.292 121.783 30.292 121.848L30.364 122.016L30.472 122.196L30.568 122.316L30.664 122.4L30.808 122.496L30.04 122.088L29.896 121.992L29.8 121.908L29.704 121.787L29.608 121.619V121.511V121.451V121.703V121.583V121.463V121.343V121.115C29.608 121.115 29.608 121.043 29.608 120.995L28.012 80.8803C28.012 80.8803 28 80.8803 28 80.7963Z" fill="url(#paint8_linear_66_2618)"/>
<path fill-rule="evenodd" clip-rule="evenodd" d="M85.9361 84.9626L32.2601 118.101L31.0601 79.9438L84.7241 46.769L85.9361 84.9626Z" fill="url(#paint9_linear_66_2618)"/>
<path fill-rule="evenodd" clip-rule="evenodd" d="M72.004 83.3537C72.52 83.0295 72.964 83.2697 72.988 83.87C72.9731 84.5481 72.6339 85.1778 72.076 85.563L46.444 101.412C45.928 101.736 45.484 101.496 45.46 100.896C45.4786 100.222 45.8174 99.5974 46.372 99.2147L72.004 83.3537Z" fill="white"/>
<path fill-rule="evenodd" clip-rule="evenodd" d="M106.072 102.132C106.327 102.222 106.497 102.463 106.497 102.733C106.497 103.003 106.327 103.243 106.072 103.333L58.516 132.99C57.8695 133.343 57.0936 133.365 56.428 133.05L39.268 123.805C39.0133 123.715 38.8429 123.474 38.8429 123.204C38.8429 122.934 39.0133 122.694 39.268 122.604L86.92 92.9592C87.5664 92.6065 88.3423 92.5842 89.008 92.8991L106.072 102.132Z" fill="#C3E1FB"/>
<path fill-rule="evenodd" clip-rule="evenodd" d="M50.98 117.681C51.0381 117.705 51.076 117.762 51.076 117.825C51.076 117.888 51.0381 117.945 50.98 117.969L48.856 119.302C48.6978 119.383 48.5102 119.383 48.352 119.302L47.656 118.93C47.512 118.858 47.512 118.726 47.656 118.642L49.792 117.309C49.9502 117.228 50.1378 117.228 50.296 117.309L50.98 117.681Z" fill="#5C90FE"/>
<path fill-rule="evenodd" clip-rule="evenodd" d="M55.312 118.654C55.3701 118.678 55.408 118.735 55.408 118.798C55.408 118.861 55.3701 118.918 55.312 118.942L53.176 120.275C53.0178 120.356 52.8302 120.356 52.672 120.275L50.764 119.242C50.7058 119.218 50.668 119.161 50.668 119.098C50.668 119.035 50.7058 118.978 50.764 118.954L52.9 117.621C53.0582 117.54 53.2458 117.54 53.404 117.621L55.312 118.654Z" fill="#5C90FE"/>
<path fill-rule="evenodd" clip-rule="evenodd" d="M51.88 120.791C51.9381 120.815 51.976 120.872 51.976 120.935C51.976 120.998 51.9381 121.055 51.88 121.079L49.744 122.412C49.5858 122.493 49.3982 122.493 49.24 122.412L47.332 121.379C47.2738 121.355 47.236 121.298 47.236 121.235C47.236 121.172 47.2738 121.115 47.332 121.091L49.468 119.758C49.6262 119.677 49.8138 119.677 49.972 119.758L51.88 120.791Z" fill="#5C90FE"/>
<path fill-rule="evenodd" clip-rule="evenodd" d="M47.548 119.806C47.6061 119.831 47.644 119.887 47.644 119.95C47.644 120.013 47.6061 120.07 47.548 120.095L45.412 121.427C45.2538 121.508 45.0662 121.508 44.908 121.427L44.212 121.055C44.068 120.983 44.068 120.851 44.212 120.767L46.348 119.434C46.5062 119.353 46.6938 119.353 46.852 119.434L47.548 119.806Z" fill="#5C90FE"/>
<path fill-rule="evenodd" clip-rule="evenodd" d="M44.116 121.944C44.1741 121.968 44.212 122.025 44.212 122.088C44.212 122.151 44.1741 122.207 44.116 122.232L41.98 123.564C41.8218 123.646 41.6342 123.646 41.476 123.564L40.78 123.192C40.636 123.12 40.636 122.988 40.78 122.904L42.916 121.571C43.0742 121.49 43.2618 121.49 43.42 121.571L44.116 121.944Z" fill="#5C90FE"/>
<path fill-rule="evenodd" clip-rule="evenodd" d="M54.4001 115.544C54.4582 115.568 54.4961 115.625 54.4961 115.688C54.4961 115.751 54.4582 115.808 54.4001 115.832L52.2641 117.165C52.1059 117.246 51.9182 117.246 51.7601 117.165L51.0641 116.793C50.9201 116.721 50.9201 116.589 51.0641 116.505L53.2001 115.172C53.3582 115.091 53.5459 115.091 53.7041 115.172L54.4001 115.544Z" fill="#5C90FE"/>
<path fill-rule="evenodd" clip-rule="evenodd" d="M88.6601 94.2319C88.7182 94.2561 88.7561 94.313 88.7561 94.376C88.7561 94.439 88.7182 94.4958 88.6601 94.5201L86.5241 95.8528C86.3659 95.934 86.1783 95.934 86.0201 95.8528L85.3241 95.4806C85.1801 95.4086 85.1801 95.2765 85.3241 95.1924L87.4601 93.8597C87.6183 93.7785 87.8059 93.7785 87.9641 93.8597L88.6601 94.2319Z" fill="#5C90FE"/>
<path fill-rule="evenodd" clip-rule="evenodd" d="M94.9119 97.6898C94.9701 97.7141 95.0079 97.7709 95.0079 97.8339C95.0079 97.8969 94.9701 97.9538 94.9119 97.978L92.7759 99.3108C92.6177 99.392 92.4301 99.392 92.2719 99.3108L90.3639 98.2782C90.3058 98.2539 90.2679 98.1971 90.2679 98.1341C90.2679 98.0711 90.3058 98.0142 90.3639 97.99L92.4999 96.6573C92.6581 96.576 92.8457 96.576 93.0039 96.6573L94.9119 97.6898Z" fill="#5C90FE"/>
<path fill-rule="evenodd" clip-rule="evenodd" d="M91.564 99.779C91.6222 99.8033 91.66 99.8601 91.66 99.9231C91.66 99.9861 91.6222 100.043 91.564 100.067L89.428 101.4C89.2698 101.481 89.0822 101.481 88.924 101.4L87.016 100.367C86.9579 100.343 86.92 100.286 86.92 100.223C86.92 100.16 86.9579 100.103 87.016 100.079L89.152 98.7464C89.3102 98.6652 89.4978 98.6652 89.656 98.7464L91.564 99.779Z" fill="#5C90FE"/>
<path fill-rule="evenodd" clip-rule="evenodd" d="M87.508 109.697C87.5661 109.721 87.604 109.778 87.604 109.841C87.604 109.904 87.5661 109.961 87.508 109.985L85.372 111.318C85.2138 111.399 85.0262 111.399 84.868 111.318L82.96 110.285C82.9019 110.261 82.864 110.204 82.864 110.141C82.864 110.078 82.9019 110.021 82.96 109.997L85.096 108.664C85.2542 108.583 85.4418 108.583 85.6 108.664L87.508 109.697Z" fill="#5C90FE"/>
<path fill-rule="evenodd" clip-rule="evenodd" d="M85.228 96.3691C85.2862 96.3933 85.324 96.4502 85.324 96.5132C85.324 96.5762 85.2862 96.633 85.228 96.6573L83.092 97.99C82.9338 98.0712 82.7462 98.0712 82.588 97.99L81.892 97.6178C81.8339 97.5936 81.796 97.5367 81.796 97.4737C81.796 97.4107 81.8339 97.3539 81.892 97.3296L84.028 95.9969C84.1862 95.9157 84.3738 95.9157 84.532 95.9969L85.228 96.3691Z" fill="#5C90FE"/>
<path fill-rule="evenodd" clip-rule="evenodd" d="M91.8159 95.9369C91.8741 95.9611 91.9119 96.0179 91.9119 96.0809C91.9119 96.1439 91.8741 96.2008 91.8159 96.225L87.5679 98.8665C87.4097 98.9477 87.2221 98.9477 87.0639 98.8665L85.1559 97.8339C85.0978 97.8097 85.0599 97.7529 85.0599 97.6898C85.0599 97.6268 85.0978 97.57 85.1559 97.5458L89.4039 94.9043C89.5621 94.823 89.7497 94.823 89.9079 94.9043L91.8159 95.9369Z" fill="#5C90FE"/>
<path fill-rule="evenodd" clip-rule="evenodd" d="M81.808 98.4943C81.8661 98.5185 81.904 98.5754 81.904 98.6384C81.904 98.7014 81.8661 98.7582 81.808 98.7825L79.684 100.091C79.5258 100.172 79.3382 100.172 79.18 100.091L78.484 99.719C78.34 99.647 78.34 99.5149 78.484 99.4308L80.62 98.0981C80.7782 98.0169 80.9658 98.0169 81.124 98.0981L81.808 98.4943Z" fill="#5C90FE"/>
<path fill-rule="evenodd" clip-rule="evenodd" d="M86.212 99.4308C86.2701 99.4551 86.308 99.5119 86.308 99.5749C86.308 99.6379 86.2701 99.6947 86.212 99.719L84.076 101.052C83.9178 101.133 83.7302 101.133 83.572 101.052L81.676 100.091C81.6178 100.067 81.58 100.01 81.58 99.9471C81.58 99.8841 81.6178 99.8273 81.676 99.803L83.812 98.4703C83.9702 98.3891 84.1578 98.3891 84.316 98.4703L86.212 99.4308Z" fill="#5C90FE"/>
<path fill-rule="evenodd" clip-rule="evenodd" d="M98.116 99.3948C98.1741 99.419 98.212 99.4759 98.212 99.5389C98.212 99.6019 98.1741 99.6587 98.116 99.683L93.748 102.396C93.5898 102.478 93.4022 102.478 93.244 102.396L91.336 101.364C91.2779 101.34 91.24 101.283 91.24 101.22C91.24 101.157 91.2779 101.1 91.336 101.076L95.704 98.3622C95.8622 98.281 96.0498 98.281 96.208 98.3622L98.116 99.3948Z" fill="#5C90FE"/>
<path fill-rule="evenodd" clip-rule="evenodd" d="M88.204 101.868C88.2621 101.892 88.3 101.949 88.3 102.012C88.3 102.075 88.2621 102.132 88.204 102.156L86.116 103.477C85.9578 103.558 85.7702 103.558 85.612 103.477L83.716 102.493C83.6579 102.468 83.62 102.411 83.62 102.348C83.62 102.285 83.6579 102.229 83.716 102.204L85.852 100.872C86.0102 100.79 86.1978 100.79 86.356 100.872L88.204 101.868Z" fill="#5C90FE"/>
<path fill-rule="evenodd" clip-rule="evenodd" d="M92.536 102.841C92.5941 102.865 92.632 102.922 92.632 102.985C92.632 103.048 92.5941 103.105 92.536 103.129L90.4 104.462C90.2418 104.543 90.0542 104.543 89.896 104.462L87.988 103.429C87.9298 103.405 87.892 103.348 87.892 103.285C87.892 103.222 87.9298 103.165 87.988 103.141L90.124 101.808C90.2822 101.727 90.4698 101.727 90.628 101.808L92.536 102.841Z" fill="#5C90FE"/>
<path fill-rule="evenodd" clip-rule="evenodd" d="M101.248 101.1C101.306 101.124 101.344 101.181 101.344 101.244C101.344 101.307 101.306 101.364 101.248 101.388L95.512 104.99C95.3538 105.071 95.1662 105.071 95.008 104.99L93.1 103.957C93.0419 103.933 93.004 103.876 93.004 103.813C93.004 103.75 93.0419 103.693 93.1 103.669L98.836 100.067C98.9942 99.986 99.1818 99.986 99.34 100.067L101.248 101.1Z" fill="#5C90FE"/>
<path fill-rule="evenodd" clip-rule="evenodd" d="M84.712 104.041C84.7701 104.066 84.808 104.123 84.808 104.186C84.808 104.249 84.7701 104.305 84.712 104.33L82.576 105.662C82.4178 105.744 82.2302 105.744 82.072 105.662L80.164 104.63C80.1059 104.606 80.068 104.549 80.068 104.486C80.068 104.423 80.1059 104.366 80.164 104.342L82.3 103.009C82.4582 102.928 82.6458 102.928 82.804 103.009L84.712 104.041Z" fill="#5C90FE"/>
<path fill-rule="evenodd" clip-rule="evenodd" d="M104.404 102.805C104.548 102.877 104.548 103.009 104.404 103.093L100.156 105.734C99.9983 105.818 99.8096 105.818 99.6519 105.734L97.7439 104.702C97.6858 104.678 97.6479 104.621 97.6479 104.558C97.6479 104.495 97.6858 104.438 97.7439 104.414L101.992 101.772C102.15 101.691 102.338 101.691 102.496 101.772L104.404 102.805Z" fill="#5C90FE"/>
<path fill-rule="evenodd" clip-rule="evenodd" d="M89.1879 104.894C89.2461 104.918 89.2839 104.975 89.2839 105.038C89.2839 105.101 89.2461 105.158 89.1879 105.182L87.0519 106.515C86.8937 106.596 86.7061 106.596 86.5479 106.515L84.6399 105.482C84.5818 105.458 84.5439 105.401 84.5439 105.338C84.5439 105.275 84.5818 105.218 84.6399 105.194L86.7759 103.861C86.9341 103.78 87.1218 103.78 87.2799 103.861L89.1879 104.894Z" fill="#5C90FE"/>
<path fill-rule="evenodd" clip-rule="evenodd" d="M94.288 105.422C94.3462 105.446 94.384 105.503 94.384 105.566C94.384 105.629 94.3462 105.686 94.288 105.71L92.116 107.043C91.9578 107.124 91.7702 107.124 91.612 107.043L89.704 106.011C89.6459 105.986 89.608 105.929 89.608 105.866C89.608 105.803 89.6459 105.747 89.704 105.722L91.84 104.39C91.9982 104.308 92.1858 104.308 92.344 104.39L94.288 105.422Z" fill="#5C90FE"/>
<path fill-rule="evenodd" clip-rule="evenodd" d="M98.848 106.263C98.9061 106.287 98.944 106.344 98.944 106.407C98.944 106.47 98.9061 106.527 98.848 106.551L95.956 108.352C95.7978 108.433 95.6102 108.433 95.452 108.352L93.556 107.295C93.4978 107.271 93.46 107.214 93.46 107.151C93.46 107.088 93.4978 107.031 93.556 107.007L96.448 105.206C96.6062 105.125 96.7938 105.125 96.952 105.206L98.848 106.263Z" fill="#5C90FE"/>
<path fill-rule="evenodd" clip-rule="evenodd" d="M90.916 107.511C90.9741 107.536 91.012 107.592 91.012 107.655C91.012 107.719 90.9741 107.775 90.916 107.8L88.78 109.132C88.6218 109.214 88.4342 109.214 88.276 109.132L86.368 108.1C86.3098 108.076 86.272 108.019 86.272 107.956C86.272 107.893 86.3098 107.836 86.368 107.812L88.504 106.479C88.6622 106.398 88.8498 106.398 89.008 106.479L90.916 107.511Z" fill="#5C90FE"/>
<path fill-rule="evenodd" clip-rule="evenodd" d="M94.66 108.868C94.7181 108.892 94.756 108.949 94.756 109.012C94.756 109.075 94.7181 109.132 94.66 109.156L91.768 110.957C91.6098 111.039 91.4222 111.039 91.264 110.957L89.356 109.925C89.2979 109.901 89.26 109.844 89.26 109.781C89.26 109.718 89.2979 109.661 89.356 109.637L92.248 107.836C92.4062 107.754 92.5938 107.754 92.752 107.836L94.66 108.868Z" fill="#5C90FE"/>
<path fill-rule="evenodd" clip-rule="evenodd" d="M78.376 100.631C78.4341 100.656 78.472 100.713 78.472 100.776C78.472 100.839 78.4341 100.895 78.376 100.92L76.24 102.252C76.0818 102.334 75.8942 102.334 75.736 102.252L75.04 101.88C74.896 101.808 74.896 101.676 75.04 101.592L77.176 100.259C77.3342 100.178 77.5218 100.178 77.68 100.259L78.376 100.631Z" fill="#5C90FE"/>
<path fill-rule="evenodd" clip-rule="evenodd" d="M79.288 103.693C79.3462 103.717 79.384 103.774 79.384 103.837C79.384 103.9 79.3462 103.957 79.288 103.981L77.152 105.314C76.9938 105.395 76.8062 105.395 76.648 105.314L74.74 104.282C74.6819 104.257 74.644 104.2 74.644 104.137C74.644 104.074 74.6819 104.018 74.74 103.993L76.876 102.661C77.0342 102.579 77.2218 102.579 77.38 102.661L79.288 103.693Z" fill="#5C90FE"/>
<path fill-rule="evenodd" clip-rule="evenodd" d="M81.316 106.167C81.3741 106.191 81.412 106.248 81.412 106.311C81.412 106.374 81.3741 106.431 81.316 106.455L79.18 107.788C79.0218 107.869 78.8342 107.869 78.676 107.788L76.768 106.755C76.7099 106.731 76.672 106.674 76.672 106.611C76.672 106.548 76.7099 106.491 76.768 106.467L78.904 105.134C79.0622 105.053 79.2498 105.053 79.408 105.134L81.316 106.167Z" fill="#5C90FE"/>
<path fill-rule="evenodd" clip-rule="evenodd" d="M74.956 102.757C75.0142 102.781 75.052 102.838 75.052 102.901C75.052 102.964 75.0142 103.021 74.956 103.045L72.82 104.378C72.6619 104.459 72.4742 104.459 72.316 104.378L71.62 104.005C71.5619 103.981 71.524 103.924 71.524 103.861C71.524 103.798 71.5619 103.741 71.62 103.717L73.756 102.384C73.9142 102.303 74.1019 102.303 74.26 102.384L74.956 102.757Z" fill="#5C90FE"/>
<path fill-rule="evenodd" clip-rule="evenodd" d="M71.536 104.894C71.5942 104.918 71.632 104.975 71.632 105.038C71.632 105.101 71.5942 105.158 71.536 105.182L69.4 106.515C69.2418 106.596 69.0542 106.596 68.896 106.515L68.2 106.143C68.056 106.071 68.056 105.939 68.2 105.854L70.336 104.522C70.4942 104.44 70.6818 104.44 70.84 104.522L71.536 104.894Z" fill="#5C90FE"/>
<path fill-rule="evenodd" clip-rule="evenodd" d="M77.224 116.036C77.2821 116.06 77.32 116.117 77.32 116.18C77.32 116.243 77.2821 116.3 77.224 116.324L75.088 117.657C74.9298 117.738 74.7422 117.738 74.584 117.657L72.676 116.625C72.6178 116.6 72.58 116.544 72.58 116.48C72.58 116.417 72.6178 116.361 72.676 116.336L74.812 115.004C74.9702 114.922 75.1578 114.922 75.316 115.004L77.224 116.036Z" fill="#5C90FE"/>
<path fill-rule="evenodd" clip-rule="evenodd" d="M66.9161 122.436C66.9742 122.46 67.0121 122.517 67.0121 122.58C67.0121 122.643 66.9742 122.7 66.9161 122.724L64.8281 124.105C64.6699 124.186 64.4823 124.186 64.3241 124.105L62.4161 123.072C62.3579 123.048 62.3201 122.991 62.3201 122.928C62.3201 122.865 62.3579 122.808 62.4161 122.784L64.5521 121.451C64.7103 121.37 64.8979 121.37 65.0561 121.451L66.9161 122.436Z" fill="#5C90FE"/>
<path fill-rule="evenodd" clip-rule="evenodd" d="M63.496 124.585C63.5542 124.609 63.592 124.666 63.592 124.729C63.592 124.792 63.5542 124.849 63.496 124.873L54.652 130.372C54.4938 130.454 54.3062 130.454 54.148 130.372L52.24 129.34C52.1819 129.316 52.144 129.259 52.144 129.196C52.144 129.133 52.1819 129.076 52.24 129.052L61.084 123.552C61.2422 123.471 61.4298 123.471 61.588 123.552L63.496 124.585Z" fill="#5C90FE"/>
<path fill-rule="evenodd" clip-rule="evenodd" d="M70.384 120.299C70.4421 120.323 70.48 120.38 70.48 120.443C70.48 120.506 70.4421 120.563 70.384 120.587L68.248 121.92C68.0898 122.001 67.9022 122.001 67.744 121.92L65.836 120.887C65.7779 120.863 65.74 120.806 65.74 120.743C65.74 120.68 65.7779 120.623 65.836 120.599L67.972 119.266C68.1302 119.185 68.3178 119.185 68.476 119.266L70.384 120.299Z" fill="#5C90FE"/>
<path fill-rule="evenodd" clip-rule="evenodd" d="M70.516 123.925C70.5741 123.949 70.612 124.006 70.612 124.069C70.612 124.132 70.5741 124.189 70.516 124.213L67.624 126.014C67.4658 126.095 67.2782 126.095 67.12 126.014L65.212 124.981C65.1538 124.957 65.116 124.9 65.116 124.837C65.116 124.774 65.1538 124.717 65.212 124.693L68.104 122.892C68.2622 122.811 68.4498 122.811 68.608 122.892L70.516 123.925Z" fill="#5C90FE"/>
<path fill-rule="evenodd" clip-rule="evenodd" d="M82.336 109.192C82.3941 109.217 82.432 109.273 82.432 109.336C82.432 109.399 82.3941 109.456 82.336 109.481L80.2 110.813C80.0418 110.894 79.8542 110.894 79.696 110.813L77.788 109.781C77.7299 109.756 77.692 109.7 77.692 109.637C77.692 109.574 77.7299 109.517 77.788 109.493L79.924 108.16C80.0822 108.079 80.2698 108.079 80.428 108.16L82.336 109.192Z" fill="#5C90FE"/>
<path fill-rule="evenodd" clip-rule="evenodd" d="M69.016 110.129C69.0741 110.153 69.112 110.21 69.112 110.273C69.112 110.336 69.0741 110.393 69.016 110.417L66.916 111.75C66.7578 111.831 66.5702 111.831 66.412 111.75L64.504 110.717C64.4458 110.693 64.408 110.636 64.408 110.573C64.408 110.51 64.4458 110.453 64.504 110.429L66.64 109.096C66.7982 109.015 66.9858 109.015 67.144 109.096L69.016 110.129Z" fill="#5C90FE"/>
<path fill-rule="evenodd" clip-rule="evenodd" d="M74.4279 110.429C74.486 110.453 74.5239 110.51 74.5239 110.573C74.5239 110.636 74.486 110.693 74.4279 110.717L72.3039 112.098C72.1457 112.179 71.9581 112.179 71.7999 112.098L69.8919 111.065C69.8338 111.041 69.7959 110.984 69.7959 110.921C69.7959 110.858 69.8338 110.801 69.8919 110.777L72.0279 109.444C72.1861 109.363 72.3737 109.363 72.5319 109.444L74.4279 110.429Z" fill="#5C90FE"/>
<path fill-rule="evenodd" clip-rule="evenodd" d="M78.916 111.318C78.9741 111.342 79.012 111.399 79.012 111.462C79.012 111.525 78.9741 111.581 78.916 111.606L76.78 112.938C76.6218 113.02 76.4342 113.02 76.276 112.938L74.368 111.906C74.3098 111.882 74.272 111.825 74.272 111.762C74.272 111.699 74.3098 111.642 74.368 111.618L76.504 110.285C76.6622 110.204 76.8498 110.204 77.008 110.285L78.916 111.318Z" fill="#5C90FE"/>
<path fill-rule="evenodd" clip-rule="evenodd" d="M84.076 111.774C84.1341 111.798 84.172 111.855 84.172 111.918C84.172 111.981 84.1341 112.038 84.076 112.062L81.94 113.395C81.7818 113.476 81.5942 113.476 81.436 113.395L79.528 112.362C79.4699 112.338 79.432 112.281 79.432 112.218C79.432 112.155 79.4699 112.098 79.528 112.074L81.664 110.741C81.8222 110.66 82.0098 110.66 82.168 110.741L84.076 111.774Z" fill="#5C90FE"/>
<path fill-rule="evenodd" clip-rule="evenodd" d="M71.008 112.566C71.0661 112.59 71.104 112.647 71.104 112.71C71.104 112.773 71.0661 112.83 71.008 112.854L68.872 114.187C68.7138 114.268 68.5262 114.268 68.368 114.187L66.46 113.155C66.4019 113.13 66.364 113.074 66.364 113.01C66.364 112.947 66.4019 112.891 66.46 112.866L68.596 111.534C68.7542 111.452 68.9418 111.452 69.1 111.534L71.008 112.566Z" fill="#5C90FE"/>
<path fill-rule="evenodd" clip-rule="evenodd" d="M75.484 113.455C75.5421 113.479 75.58 113.536 75.58 113.599C75.58 113.662 75.5421 113.719 75.484 113.743L73.348 115.076C73.1898 115.157 73.0022 115.157 72.844 115.076L70.936 114.043C70.8778 114.019 70.84 113.962 70.84 113.899C70.84 113.836 70.8778 113.779 70.936 113.755L73.072 112.422C73.2302 112.341 73.4178 112.341 73.576 112.422L75.484 113.455Z" fill="#5C90FE"/>
<path fill-rule="evenodd" clip-rule="evenodd" d="M80.656 113.911C80.7141 113.935 80.752 113.992 80.752 114.055C80.752 114.118 80.7141 114.175 80.656 114.199L78.52 115.532C78.3618 115.613 78.1742 115.613 78.016 115.532L76.108 114.499C76.0498 114.475 76.012 114.418 76.012 114.355C76.012 114.292 76.0498 114.235 76.108 114.211L78.244 112.878C78.4022 112.797 78.5898 112.797 78.748 112.878L80.656 113.911Z" fill="#5C90FE"/>
<path fill-rule="evenodd" clip-rule="evenodd" d="M72.0639 115.58C72.1221 115.604 72.1599 115.661 72.1599 115.724C72.1599 115.787 72.1221 115.844 72.0639 115.868L69.9279 117.201C69.7697 117.282 69.5821 117.282 69.4239 117.201L67.5159 116.168C67.4578 116.144 67.4199 116.087 67.4199 116.024C67.4199 115.961 67.4578 115.904 67.5159 115.88L69.6519 114.547C69.8101 114.466 69.9977 114.466 70.1559 114.547L72.0639 115.58Z" fill="#5C90FE"/>
<path fill-rule="evenodd" clip-rule="evenodd" d="M73.804 118.173C73.8621 118.198 73.9 118.255 73.9 118.318C73.9 118.381 73.8621 118.437 73.804 118.462L71.716 119.782C71.5578 119.864 71.3702 119.864 71.212 119.782L69.304 118.75C69.2459 118.726 69.208 118.669 69.208 118.606C69.208 118.543 69.2459 118.486 69.304 118.462L71.44 117.129C71.5982 117.048 71.7858 117.048 71.944 117.129L73.804 118.173Z" fill="#5C90FE"/>
<path fill-rule="evenodd" clip-rule="evenodd" d="M90.6399 111.378C90.6981 111.402 90.7359 111.459 90.7359 111.522C90.7359 111.585 90.6981 111.642 90.6399 111.666L71.7759 123.396C71.6177 123.478 71.4301 123.478 71.2719 123.396L69.3639 122.364C69.3058 122.34 69.2679 122.283 69.2679 122.22C69.2679 122.157 69.3058 122.1 69.3639 122.076L88.2279 110.345C88.3861 110.264 88.5737 110.264 88.7319 110.345L90.6399 111.378Z" fill="#5C90FE"/>
<path fill-rule="evenodd" clip-rule="evenodd" d="M75.868 105.866C75.9261 105.891 75.964 105.948 75.964 106.011C75.964 106.074 75.9261 106.13 75.868 106.155L73.732 107.487C73.5738 107.569 73.3862 107.569 73.228 107.487L71.32 106.455C71.2619 106.431 71.224 106.374 71.224 106.311C71.224 106.248 71.2619 106.191 71.32 106.167L73.456 104.834C73.6142 104.753 73.8018 104.753 73.96 104.834L75.868 105.866Z" fill="#5C90FE"/>
<path fill-rule="evenodd" clip-rule="evenodd" d="M72.436 108.004C72.4941 108.028 72.532 108.085 72.532 108.148C72.532 108.211 72.4941 108.268 72.436 108.292L70.3 109.625C70.1418 109.706 69.9542 109.706 69.796 109.625L67.888 108.592C67.8299 108.568 67.792 108.511 67.792 108.448C67.792 108.385 67.8299 108.328 67.888 108.304L70.024 106.971C70.1822 106.89 70.3698 106.89 70.528 106.971L72.436 108.004Z" fill="#5C90FE"/>
<path fill-rule="evenodd" clip-rule="evenodd" d="M68.116 107.019C68.1741 107.043 68.212 107.1 68.212 107.163C68.212 107.226 68.1741 107.283 68.116 107.307L65.98 108.64C65.8218 108.721 65.6342 108.721 65.476 108.64L64.78 108.268C64.636 108.196 64.636 108.064 64.78 107.98L66.916 106.647C67.0742 106.566 67.2618 106.566 67.42 106.647L68.116 107.019Z" fill="#5C90FE"/>
<path fill-rule="evenodd" clip-rule="evenodd" d="M64.684 109.156C64.7421 109.181 64.78 109.237 64.78 109.3C64.78 109.363 64.7421 109.42 64.684 109.444L62.548 110.777C62.3898 110.858 62.2022 110.858 62.044 110.777L61.348 110.405C61.204 110.333 61.204 110.201 61.348 110.117L63.484 108.784C63.6422 108.703 63.8298 108.703 63.988 108.784L64.684 109.156Z" fill="#5C90FE"/>
<path fill-rule="evenodd" clip-rule="evenodd" d="M67.588 114.691C67.6461 114.716 67.684 114.773 67.684 114.836C67.684 114.899 67.6461 114.955 67.588 114.98L65.452 116.312C65.2938 116.394 65.1062 116.394 64.948 116.312L63.04 115.28C62.9818 115.256 62.944 115.199 62.944 115.136C62.944 115.073 62.9818 115.016 63.04 114.992L65.176 113.659C65.3342 113.578 65.5218 113.578 65.68 113.659L67.588 114.691Z" fill="#5C90FE"/>
<path fill-rule="evenodd" clip-rule="evenodd" d="M64.156 116.829C64.2141 116.853 64.252 116.91 64.252 116.973C64.252 117.036 64.2141 117.093 64.156 117.117L62.02 118.45C61.8618 118.531 61.6742 118.531 61.516 118.45L59.608 117.417C59.5498 117.393 59.512 117.336 59.512 117.273C59.512 117.21 59.5498 117.153 59.608 117.129L61.744 115.796C61.9022 115.715 62.0898 115.715 62.248 115.796L64.156 116.829Z" fill="#5C90FE"/>
<path fill-rule="evenodd" clip-rule="evenodd" d="M68.632 117.717C68.6901 117.741 68.728 117.798 68.728 117.861C68.728 117.924 68.6901 117.981 68.632 118.005L66.508 119.302C66.3498 119.383 66.1622 119.383 66.004 119.302L64.096 118.269C64.0379 118.245 64 118.188 64 118.125C64 118.062 64.0379 118.006 64.096 117.981L66.232 116.649C66.3902 116.567 66.5778 116.567 66.736 116.649L68.632 117.717Z" fill="#5C90FE"/>
<path fill-rule="evenodd" clip-rule="evenodd" d="M60.7359 118.954C60.7941 118.978 60.8319 119.035 60.8319 119.098C60.8319 119.161 60.7941 119.218 60.7359 119.242L58.5999 120.575C58.4417 120.656 58.2541 120.656 58.0959 120.575L56.1879 119.542C56.1298 119.518 56.0919 119.461 56.0919 119.398C56.0919 119.335 56.1298 119.278 56.1879 119.254L58.3239 117.921C58.4821 117.84 58.6697 117.84 58.8279 117.921L60.7359 118.954Z" fill="#5C90FE"/>
<path fill-rule="evenodd" clip-rule="evenodd" d="M65.212 119.842C65.2701 119.867 65.308 119.923 65.308 119.986C65.308 120.049 65.2701 120.106 65.212 120.131L63.076 121.463C62.9178 121.545 62.7302 121.545 62.572 121.463L60.676 120.503C60.6178 120.479 60.58 120.422 60.58 120.359C60.58 120.296 60.6178 120.239 60.676 120.215L62.812 118.882C62.9702 118.801 63.1578 118.801 63.316 118.882L65.212 119.842Z" fill="#5C90FE"/>
<path fill-rule="evenodd" clip-rule="evenodd" d="M57.316 121.091C57.3741 121.115 57.412 121.172 57.412 121.235C57.412 121.298 57.3741 121.355 57.316 121.379L55.18 122.712C55.0218 122.793 54.8342 122.793 54.676 122.712L52.768 121.679C52.7099 121.655 52.672 121.598 52.672 121.535C52.672 121.472 52.7099 121.415 52.768 121.391L54.904 120.059C55.0622 119.977 55.2498 119.977 55.408 120.059L57.316 121.091Z" fill="#5C90FE"/>
<path fill-rule="evenodd" clip-rule="evenodd" d="M61.78 121.968C61.8381 121.992 61.876 122.049 61.876 122.112C61.876 122.175 61.8381 122.232 61.78 122.256L59.716 123.589C59.5578 123.67 59.3702 123.67 59.212 123.589L57.304 122.556C57.2459 122.532 57.208 122.475 57.208 122.412C57.208 122.349 57.2459 122.292 57.304 122.268L59.44 120.935C59.5982 120.854 59.7858 120.854 59.944 120.935L61.78 121.968Z" fill="#5C90FE"/>
<path fill-rule="evenodd" clip-rule="evenodd" d="M53.8839 123.216C53.9421 123.241 53.9799 123.297 53.9799 123.36C53.9799 123.423 53.9421 123.48 53.8839 123.504L48.3279 126.962C48.1698 127.044 47.9821 127.044 47.8239 126.962L45.9159 125.93C45.8578 125.906 45.8199 125.849 45.8199 125.786C45.8199 125.723 45.8578 125.666 45.9159 125.642L51.4719 122.184C51.6301 122.102 51.8178 122.102 51.9759 122.184L53.8839 123.216Z" fill="#5C90FE"/>
<path fill-rule="evenodd" clip-rule="evenodd" d="M58.396 124.105C58.4541 124.129 58.492 124.186 58.492 124.249C58.492 124.312 58.4541 124.369 58.396 124.393L51.484 128.691C51.3258 128.773 51.1381 128.773 50.98 128.691L49.072 127.659C49.0138 127.635 48.976 127.578 48.976 127.515C48.976 127.452 49.0138 127.395 49.072 127.371L55.984 123.072C56.1421 122.991 56.3298 122.991 56.488 123.072L58.396 124.105Z" fill="#5C90FE"/>
<path fill-rule="evenodd" clip-rule="evenodd" d="M58.732 116.528C58.7901 116.553 58.828 116.61 58.828 116.673C58.828 116.736 58.7901 116.792 58.732 116.817L56.608 118.101C56.4498 118.183 56.2622 118.183 56.104 118.101L54.196 117.069C54.1378 117.045 54.1 116.988 54.1 116.925C54.1 116.862 54.1378 116.805 54.196 116.781L56.332 115.448C56.4902 115.367 56.6778 115.367 56.836 115.448L58.732 116.528Z" fill="#5C90FE"/>
<path fill-rule="evenodd" clip-rule="evenodd" d="M62.116 114.391C62.1742 114.416 62.212 114.472 62.212 114.535C62.212 114.598 62.1742 114.655 62.116 114.679L59.98 116.012C59.8219 116.093 59.6342 116.093 59.476 116.012L57.568 114.98C57.5099 114.955 57.472 114.899 57.472 114.836C57.472 114.773 57.5099 114.716 57.568 114.691L59.704 113.359C59.8622 113.277 60.0499 113.277 60.208 113.359L62.116 114.391Z" fill="#5C90FE"/>
<path fill-rule="evenodd" clip-rule="evenodd" d="M65.5839 112.266C65.6421 112.29 65.6799 112.347 65.6799 112.41C65.6799 112.473 65.6421 112.53 65.5839 112.554L63.4479 113.887C63.2897 113.968 63.1021 113.968 62.9439 113.887L61.0359 112.854C60.9778 112.83 60.9399 112.773 60.9399 112.71C60.9399 112.647 60.9778 112.591 61.0359 112.566L63.1719 111.234C63.3301 111.152 63.5177 111.152 63.6759 111.234L65.5839 112.266Z" fill="#5C90FE"/>
<path fill-rule="evenodd" clip-rule="evenodd" d="M61.252 111.282C61.3101 111.306 61.348 111.363 61.348 111.426C61.348 111.489 61.3101 111.545 61.252 111.57L59.116 112.902C58.9578 112.984 58.7702 112.984 58.612 112.902L57.916 112.53C57.772 112.458 57.772 112.326 57.916 112.242L60.052 110.909C60.2102 110.828 60.3978 110.828 60.556 110.909L61.252 111.282Z" fill="#5C90FE"/>
<path fill-rule="evenodd" clip-rule="evenodd" d="M57.8319 113.419C57.8901 113.443 57.9279 113.5 57.9279 113.563C57.9279 113.626 57.8901 113.683 57.8319 113.707L55.6959 115.04C55.5377 115.121 55.3501 115.121 55.1919 115.04L54.4959 114.667C54.3519 114.595 54.3519 114.463 54.4959 114.379L56.6319 113.047C56.7901 112.965 56.9777 112.965 57.1359 113.047L57.8319 113.419Z" fill="#5C90FE"/>
<path fill-rule="evenodd" clip-rule="evenodd" d="M48.3641 122.976C48.4222 123 48.4601 123.057 48.4601 123.12C48.4601 123.183 48.4222 123.24 48.3641 123.264L45.1721 125.305C45.0139 125.387 44.8263 125.387 44.6681 125.305L42.7601 124.273C42.7019 124.249 42.6641 124.192 42.6641 124.129C42.6641 124.066 42.7019 124.009 42.7601 123.985L45.9761 121.992C46.1343 121.91 46.3219 121.91 46.4801 121.992L48.3641 122.976Z" fill="#5C90FE"/>
<path fill-rule="evenodd" clip-rule="evenodd" d="M82.708 101.604C82.7661 101.628 82.804 101.685 82.804 101.748C82.804 101.811 82.7661 101.868 82.708 101.892L80.572 103.225C80.4138 103.306 80.2262 103.306 80.068 103.225L78.16 102.192C78.1018 102.168 78.064 102.111 78.064 102.048C78.064 101.985 78.1018 101.928 78.16 101.904L80.296 100.571C80.4542 100.49 80.6418 100.49 80.8 100.571L82.708 101.604Z" fill="#5C90FE"/>
<path fill-rule="evenodd" clip-rule="evenodd" d="M77.8601 108.304C77.9182 108.328 77.9561 108.385 77.9561 108.448C77.9561 108.511 77.9182 108.568 77.8601 108.592L75.7241 109.925C75.5659 110.006 75.3783 110.006 75.2201 109.925L73.3121 108.892C73.2539 108.868 73.2161 108.811 73.2161 108.748C73.2161 108.685 73.2539 108.628 73.3121 108.604L75.4481 107.271C75.6063 107.19 75.7939 107.19 75.9521 107.271L77.8601 108.304Z" fill="#5C90FE"/>
<path fill-rule="evenodd" clip-rule="evenodd" d="M85.7561 107.055C85.8142 107.079 85.8521 107.136 85.8521 107.199C85.8521 107.262 85.8142 107.319 85.7561 107.343L83.6201 108.676C83.4619 108.757 83.2743 108.757 83.1161 108.676L81.2081 107.643C81.1499 107.619 81.1121 107.562 81.1121 107.499C81.1121 107.436 81.1499 107.38 81.2081 107.355L83.3561 106.095C83.5143 106.013 83.7019 106.013 83.8601 106.095L85.7561 107.055Z" fill="#5C90FE"/>
<path fill-rule="evenodd" clip-rule="evenodd" d="M62.116 129.148C62.26 129.22 62.26 129.352 62.116 129.436L57.868 132.077C57.7103 132.161 57.5217 132.161 57.364 132.077L55.456 131.045C55.3979 131.02 55.36 130.964 55.36 130.901C55.36 130.838 55.3979 130.781 55.456 130.757L59.704 128.115C59.8622 128.034 60.0498 128.034 60.208 128.115L62.116 129.148Z" fill="#5C90FE"/>
<path fill-rule="evenodd" clip-rule="evenodd" d="M66.268 126.506C66.412 126.578 66.412 126.71 66.268 126.794L63.376 128.595C63.2178 128.677 63.0302 128.677 62.872 128.595L60.964 127.563C60.9059 127.539 60.868 127.482 60.868 127.419C60.868 127.356 60.9059 127.299 60.964 127.275L63.856 125.474C64.0142 125.392 64.2018 125.392 64.36 125.474L66.268 126.506Z" fill="#5C90FE"/>
<path fill-rule="evenodd" clip-rule="evenodd" d="M80.0201 124.393C79.8251 124.449 79.6909 124.628 79.6909 124.831C79.6909 125.034 79.8251 125.213 80.0201 125.269L88.6601 129.952C89.1314 130.192 89.6887 130.192 90.1601 129.952L103.168 121.908C103.363 121.851 103.497 121.672 103.497 121.469C103.497 121.266 103.363 121.088 103.168 121.031L94.5281 116.348C94.0567 116.109 93.4994 116.109 93.0281 116.348L80.0201 124.393Z" fill="#5C90FE"/>
<path opacity="0.39" fill-rule="evenodd" clip-rule="evenodd" d="M129.65 123.901V32.6213C129.76 30.6213 128.5 28.5613 125.84 27.0313L82.82 2.20125C77.75 -0.728749 69.53 -0.738749 64.48 2.20125L21.77 27.0013C20.3307 27.7557 19.163 28.9409 18.43 30.3913H18V32.3013L18.08 123.191C17.9736 123.743 17.9736 124.31 18.08 124.861C18.4 126.501 19.65 128.091 21.82 129.341L64.82 154.161C69.9 157.101 78.13 157.101 83.19 154.161L125.9 129.341C128.51 127.821 129.76 125.811 129.65 123.821V123.901Z" fill="url(#paint10_linear_66_2618)"/>
<defs>
<linearGradient id="paint0_linear_66_2618" x1="0" y1="191.688" x2="147.49" y2="191.688" gradientUnits="userSpaceOnUse">
<stop stop-color="#00A8E3" stop-opacity="0.01"/>
<stop offset="0.12" stop-color="#00ACE4" stop-opacity="0.06"/>
<stop offset="0.34" stop-color="#00B6E7" stop-opacity="0.21"/>
<stop offset="0.64" stop-color="#00C6EC" stop-opacity="0.46"/>
<stop offset="1" stop-color="#00DCF3" stop-opacity="0.8"/>
</linearGradient>
<linearGradient id="paint1_linear_66_2618" x1="18.3197" y1="162.656" x2="129.99" y2="162.656" gradientUnits="userSpaceOnUse">
<stop stop-color="#6ECAF9"/>
<stop offset="0.35" stop-color="#A1DDFB"/>
<stop offset="1" stop-color="white"/>
</linearGradient>
<linearGradient id="paint2_linear_66_2618" x1="129.99" y1="130.377" x2="18.2797" y2="130.377" gradientUnits="userSpaceOnUse">
<stop offset="0.12" stop-color="#5C90FE"/>
<stop offset="0.56" stop-color="#466CF5"/>
<stop offset="0.69" stop-color="#4265F3"/>
<stop offset="0.87" stop-color="#3853EF"/>
<stop offset="1" stop-color="#2E42EB"/>
</linearGradient>
<linearGradient id="paint3_linear_66_2618" x1="22.6499" y1="158.329" x2="125.66" y2="158.329" gradientUnits="userSpaceOnUse">
<stop stop-color="#00DCF3"/>
<stop offset="0.26" stop-color="#00D5F1"/>
<stop offset="0.62" stop-color="#00C3EB"/>
<stop offset="1" stop-color="#00A8E3"/>
</linearGradient>
<linearGradient id="paint4_linear_66_2618" x1="89.0496" y1="162.202" x2="120.429" y2="94.2401" gradientUnits="userSpaceOnUse">
<stop stop-color="#C3E1FB"/>
<stop offset="0.18" stop-color="#BCDFFB"/>
<stop offset="0.45" stop-color="#AADAFA"/>
<stop offset="0.76" stop-color="#8BD2FA"/>
<stop offset="1" stop-color="#6ECAF9"/>
</linearGradient>
<linearGradient id="paint5_linear_66_2618" x1="125.552" y1="157.66" x2="134.67" y2="94.6501" gradientUnits="userSpaceOnUse">
<stop stop-color="#C3E1FB"/>
<stop offset="0.18" stop-color="#BCDFFB"/>
<stop offset="0.45" stop-color="#AADAFA"/>
<stop offset="0.76" stop-color="#8BD2FA"/>
<stop offset="1" stop-color="#6ECAF9"/>
</linearGradient>
<linearGradient id="paint6_linear_66_2618" x1="25.8616" y1="118.389" x2="84.9106" y2="123.229" gradientUnits="userSpaceOnUse">
<stop offset="0.56" stop-color="#C3E1FB"/>
<stop offset="0.64" stop-color="#BCDFFB"/>
<stop offset="0.76" stop-color="#AADAFA"/>
<stop offset="0.89" stop-color="#8BD2FA"/>
<stop offset="1" stop-color="#6ECAF9"/>
</linearGradient>
<linearGradient id="paint7_linear_66_2618" x1="85.4215" y1="46.7152" x2="30.6656" y2="47.6892" gradientUnits="userSpaceOnUse">
<stop stop-color="#2A2284"/>
<stop offset="1" stop-color="#1F0939"/>
</linearGradient>
<linearGradient id="paint8_linear_66_2618" x1="59.2316" y1="-1.63086" x2="-20.1072" y2="43.2008" gradientUnits="userSpaceOnUse">
<stop offset="0.56" stop-color="#C3E1FB"/>
<stop offset="0.64" stop-color="#BCDFFB"/>
<stop offset="0.76" stop-color="#AADAFA"/>
<stop offset="0.89" stop-color="#8BD2FA"/>
<stop offset="1" stop-color="#6ECAF9"/>
</linearGradient>
<linearGradient id="paint9_linear_66_2618" x1="59.21" y1="12.1218" x2="-9.18605" y2="63.4317" gradientUnits="userSpaceOnUse">
<stop stop-color="#00DCF3"/>
<stop offset="0.26" stop-color="#00D5F1"/>
<stop offset="0.62" stop-color="#00C3EB"/>
<stop offset="1" stop-color="#00A8E3"/>
</linearGradient>
<linearGradient id="paint10_linear_66_2618" x1="129.675" y1="156.441" x2="129.675" y2="0.00124949" gradientUnits="userSpaceOnUse">
<stop stop-color="#6ECAF9"/>
<stop offset="0.04" stop-color="#77CDF9" stop-opacity="0.94"/>
<stop offset="0.19" stop-color="#9ADAFB" stop-opacity="0.69"/>
<stop offset="0.34" stop-color="#B9E5FC" stop-opacity="0.48"/>
<stop offset="0.49" stop-color="#D2EFFD" stop-opacity="0.31"/>
<stop offset="0.63" stop-color="#E6F6FE" stop-opacity="0.17"/>
<stop offset="0.77" stop-color="#F4FBFF" stop-opacity="0.08"/>
<stop offset="0.89" stop-color="#FCFEFF" stop-opacity="0.02"/>
<stop offset="1" stop-color="white" stop-opacity="0.01"/>
</linearGradient>
</defs>
</svg>
