<svg width="148" height="186" viewBox="0 0 148 186" fill="none" xmlns="http://www.w3.org/2000/svg">
<path fill-rule="evenodd" clip-rule="evenodd" d="M64.19 183.111C67.2064 184.718 70.5832 185.527 74 185.461C77.404 185.526 80.7677 184.717 83.77 183.111L143.21 148.571C145.97 146.961 147.49 144.791 147.49 142.411C147.49 140.031 145.95 137.831 143.15 136.221L83.32 101.681C77.9 98.5515 69.11 98.5515 63.72 101.681L4.28 136.221C1.52 137.831 0 140.001 0 142.381C0 144.761 1.55 147.001 4.35 148.581L64.19 183.111ZM64.59 103.141C67.3309 101.676 70.4024 100.939 73.51 101.001C76.6271 100.954 79.7045 101.705 82.45 103.181L142.24 137.721C144.48 139.021 145.72 140.701 145.72 142.421C145.72 144.141 144.51 145.801 142.3 147.081L82.86 181.621C78 184.471 69.94 184.471 65 181.621L5.21 147.081C2.97 145.781 1.73 144.101 1.73 142.381C1.73 140.661 2.94 139.001 5.15 137.721L64.59 103.141Z" fill="url(#paint0_linear_66_2599)"/>
<path fill-rule="evenodd" clip-rule="evenodd" d="M126.15 118.771C131.23 121.711 131.27 126.471 126.22 129.411L83.51 154.231C78.45 157.171 70.23 157.171 65.14 154.231L22.14 129.411C17.06 126.471 17.02 121.711 22.08 118.771L64.81 93.9514C69.86 91.0014 78.08 91.0014 83.17 94.0014L126.15 118.771Z" fill="url(#paint1_linear_66_2599)"/>
<path fill-rule="evenodd" clip-rule="evenodd" d="M130 124.511C130 124.651 130 124.781 130 124.921C130 125.061 129.95 125.141 129.92 125.251C129.89 125.361 129.85 125.511 129.81 125.641C129.77 125.771 129.72 125.851 129.68 125.961C129.64 126.071 129.56 126.231 129.49 126.371C129.42 126.511 129.38 126.561 129.32 126.661C129.26 126.761 129.13 126.961 129.01 127.111C128.89 127.261 128.79 127.401 128.67 127.541L128.58 127.641C128.41 127.821 128.23 128.001 128.03 128.181L127.63 128.511L127.27 128.801L126.8 129.111C126.64 129.221 126.48 129.321 126.31 129.431L83.6 154.251C83.2041 154.479 82.7969 154.686 82.38 154.871L82.01 155.031C81.6766 155.171 81.3433 155.301 81.01 155.421L80.64 155.551L79.97 155.741L79.46 155.881L78.74 156.031L78.25 156.131C77.76 156.221 77.25 156.281 76.77 156.341H76.31L75.43 156.401H74.86H74H73.41H72.75L72.15 156.351L71.5 156.281L70.92 156.201L70.23 156.081L69.69 155.971L68.88 155.771L68.44 155.651C67.96 155.511 67.5 155.351 67.05 155.181L66.39 154.901L66.05 154.751C65.72 154.591 65.4 154.431 65.05 154.251L22.05 129.431C19.81 128.141 18.55 126.491 18.28 124.801C18.2398 124.56 18.2197 124.316 18.22 124.071V138.181C18.22 140.121 19.49 142.061 22.05 143.541L65.05 168.361C65.36 168.541 65.67 168.701 66.05 168.861L66.39 169.011L66.97 169.261H67.04C67.49 169.441 67.96 169.591 68.43 169.731H68.54L68.87 169.811L69.68 170.011L69.9 170.061L70.22 170.121L70.91 170.241H71.19H71.49L72.14 170.311H72.45H72.74H73.4H73.73H75.27L76.15 170.251H76.5H76.61C77.11 170.201 77.61 170.131 78.09 170.041H78.16L78.58 169.951L79.29 169.801L79.8 169.661L80.47 169.471H80.61L80.84 169.381C81.1866 169.261 81.52 169.131 81.84 168.991L82.21 168.831C82.6269 168.646 83.034 168.439 83.43 168.211L126.14 143.391L126.3 143.301L126.64 143.081L127.1 142.771L127.46 142.481L127.86 142.151L127.94 142.081C128.11 141.931 128.26 141.771 128.41 141.611L128.5 141.511L128.75 141.221L128.84 141.091C128.95 140.941 129.05 140.791 129.14 140.641C129.23 140.491 129.23 140.511 129.27 140.451V140.351C129.34 140.221 129.4 140.081 129.46 139.951C129.52 139.821 129.54 139.791 129.57 139.711V139.631C129.57 139.501 129.65 139.371 129.68 139.241C129.71 139.111 129.74 139.071 129.75 138.981C129.76 138.891 129.75 138.981 129.75 138.911C129.75 138.841 129.75 138.641 129.75 138.501C129.75 138.361 129.75 138.321 129.75 138.231C129.75 138.141 129.75 138.151 129.75 138.121V124.011C130 124.261 130 124.381 130 124.511Z" fill="url(#paint2_linear_66_2599)"/>
<path fill-rule="evenodd" clip-rule="evenodd" d="M74.3399 152.101C71.9078 152.155 69.5011 151.598 67.3399 150.481L24.3399 125.661C23.0699 124.931 22.6699 124.231 22.6699 124.061C22.6699 123.891 23.0499 123.231 24.2899 122.511L66.9999 97.6911C69.1597 96.5714 71.568 96.0174 73.9999 96.0811C76.4319 96.0279 78.8386 96.5848 80.9999 97.7011L124 122.521C125.27 123.261 125.67 123.951 125.67 124.121C125.67 124.291 125.29 124.951 124.06 125.671L81.3399 150.481C79.1808 151.603 76.7726 152.161 74.3399 152.101Z" fill="url(#paint3_linear_66_2599)"/>
<path fill-rule="evenodd" clip-rule="evenodd" d="M84.53 51.5014C85.01 51.7214 93.99 55.7914 111.53 50.9614C111.66 96.1914 86.04 123.081 84.69 124.491C83.34 124.631 57.69 127.361 57.52 82.1414C75.06 67.0014 84.06 52.2814 84.53 51.5014Z" fill="#FBFBFC"/>
<path fill-rule="evenodd" clip-rule="evenodd" d="M105.18 52.4813L106.48 52.2213L106.81 52.1513L108.5 51.7713L108.97 51.6513L110.26 51.3213L110.5 51.2613L111.58 50.9613L104.18 46.6613L102.87 47.0213L101.58 47.3513L101.11 47.4713L99.4201 47.8513L99.0901 47.9213L97.7901 48.1813L97.2401 48.2813L96.2401 48.4513L95.6501 48.5413L94.8101 48.6613L94.2301 48.7313L93.4001 48.8213L92.8601 48.8813L92.0001 49.0013H91.5401L90.5401 49.0613H90.2701H89.0901H87.5601H86.8901H86.4701H85.8701H85.4701H84.8901H84.5101L83.9701 49.0013H83.6201L83.0901 48.9313H82.7801L82.2101 48.8413H82.0001L81.2501 48.7013H81.0701L80.5601 48.5913L80.3301 48.5413L79.9301 48.4413L79.7201 48.3813L79.3501 48.2813L79.1601 48.2313H79.0601L78.7401 48.1313H78.6801L78.3501 48.0213H78.2701L78.0001 47.5713H77.9501L77.7101 47.4813L77.5501 47.4113L77.4001 47.3513H77.3101L84.7101 51.6513H84.7701H84.8601L84.9901 51.7113H85.0401L85.2101 51.7813L85.4501 51.8713H85.5001L85.7401 51.9613H85.8101L86.1401 52.0713H86.2001L86.5201 52.1713H86.6201H86.6901H86.8101L87.1801 52.2713L87.3901 52.3313L87.7901 52.4313L88.0201 52.4813L88.5301 52.5913H88.7101L89.4601 52.7313H89.6401L90.2001 52.8213H90.5101L91.0401 52.8913H91.4001L91.9401 52.9513H92.3201H92.9001H93.1501H93.3101H93.9101H94.3301H95.0001H96.5301H97.7101H97.9801L98.9801 52.8913H99.4401L100.28 52.8213L100.82 52.7613L101.65 52.6713L102.23 52.6013L103.07 52.4813H103.39H103.66L104.66 52.3113L105.18 52.4813Z" fill="url(#paint4_linear_66_2599)"/>
<path fill-rule="evenodd" clip-rule="evenodd" d="M84.25 51.9513L84.37 51.7613L84.45 51.6313V51.5513L77.05 47.2513L77 47.3313L76.92 47.4713L76.8 47.6613L76.66 47.8713L76.51 48.1013V48.1713L76.37 48.3913V48.4513L76.18 48.7513V48.8213L76 49.0813L75.94 49.1713L75.7 49.5313L75.47 49.8713L75.39 49.9813L75.1 50.4013L74.8 50.8313L74.71 50.9613L74.45 51.3313L74.38 51.4313L74.04 51.9113L73.96 52.0313L73.67 52.4413L73.57 52.5813L73.18 53.1113L72.78 53.6513L72.66 53.8113L72.31 54.2713L72.21 54.4013L71.76 54.9913L71.66 55.1113L71.27 55.6113L71.13 55.7813L70.13 57.1013L69.98 57.2913L69.52 57.8713L69.42 57.9913L68.85 58.7013L68.5 59.0013L68.02 59.5913L67.87 59.7713L67.25 60.5113L67.15 60.6313L66.6 61.2713L66.42 61.4813L65.77 62.2313L64.97 63.1513L64.81 63.3313L64 64.2413L63.85 64.4113L63.02 65.3313L62.97 65.3913L62.08 66.3913L61.9 66.5813L61 67.5813L60.85 67.7413L59.95 68.6813L59.86 68.7813L58.86 69.7813L58.66 69.9913L57.66 70.9913L57.55 71.1013L55.94 72.6713L55.81 72.8013L54.07 74.4413L54.01 74.5013L52.22 76.0013L52.06 76.1413L50.17 77.8113L57.57 82.1113L59.46 80.4412L59.62 80.3013L61.39 78.6813L61.45 78.6213L63.19 77.0013L63.32 76.8713L64.93 75.3013L64.99 75.2413L65.04 75.1913L66.04 74.1913L66.24 73.9813L67.24 72.9813L67.33 72.8813L68.23 71.9413L68.38 71.7813L69.28 70.7813L69.46 70.5913L70.35 69.5913L70.4 69.5313L71.23 68.6113L71.38 68.4413L72.19 67.5313L72.35 67.3513L73.15 66.4413L73.79 65.7013L73.97 65.4913L74.51 64.8513L74.62 64.7313L75.24 63.9913L75.39 63.8113L75.87 63.2313L76.02 63.0513L76.59 62.3513L76.7 62.2213L77.16 61.6513L77.31 61.4613L78.31 60.1413L78.37 60.0613L78.44 59.9613L78.83 59.4513L78.92 59.3313L79.37 58.7313L79.47 58.6013L79.82 58.1413L79.94 57.9813L80.34 57.4413L80.73 56.9013L80.83 56.7613L81.12 56.3513L81.2 56.2313L81.54 55.7513L81.61 55.6513L81.87 55.2813V55.2113V55.1513L82.17 54.7213L82.46 54.3013L82.53 54.1913L82.77 53.8413L83.01 53.4813L83.07 53.3913L83.25 53.1313V53.0613L83.45 52.7613V52.7013L83.6 52.4813V52.4213L83.75 52.1913L83.89 51.9613L84.25 51.9513Z" fill="url(#paint5_linear_66_2599)"/>
<path fill-rule="evenodd" clip-rule="evenodd" d="M57.5699 82.1511L50.1699 77.8511C50.2399 102.851 58.1699 113.211 65.3999 117.441L72.7999 121.741C65.5299 117.511 57.6399 107.171 57.5699 82.1511Z" fill="url(#paint6_linear_66_2599)"/>
<path fill-rule="evenodd" clip-rule="evenodd" d="M84.54 55.5015C84.96 55.7015 93.02 59.5015 108.63 55.0215C108.74 95.3015 85.93 119.251 84.73 120.511C83.53 120.641 60.65 123.071 60.53 82.7915C76.11 69.2615 84.12 56.1815 84.54 55.5015Z" fill="url(#paint7_linear_66_2599)"/>
<path fill-rule="evenodd" clip-rule="evenodd" d="M84.58 67.9513C93.41 62.8513 100.58 66.9513 100.58 77.0913C100.58 87.2313 93.47 99.5913 84.64 104.691C75.81 109.791 68.64 105.691 68.64 95.5513C68.64 85.4113 75.75 73.0013 84.58 67.9513Z" fill="url(#paint8_linear_66_2599)"/>
<path fill-rule="evenodd" clip-rule="evenodd" d="M93.22 75.2412C92.8911 75.0954 92.5093 75.1374 92.22 75.3512C91.8009 75.6254 91.4571 76.0001 91.22 76.4412L82.02 92.3712L77.49 89.7912C77.1611 89.6454 76.7793 89.6874 76.49 89.9012C76.0709 90.1754 75.7271 90.5501 75.49 90.9912C74.92 91.9912 74.92 93.0512 75.49 93.3812L81.06 96.5512C81.3871 96.7 81.7688 96.6618 82.06 96.4512C82.4791 96.1771 82.8229 95.8024 83.06 95.3612L93.29 77.6412C93.8 76.6412 93.79 75.5712 93.22 75.2412Z" fill="white"/>
<path opacity="0.39" fill-rule="evenodd" clip-rule="evenodd" d="M129.83 123.901V32.6213C129.94 30.6213 128.68 28.5613 126.02 27.0313L82.9999 2.20125C77.9299 -0.728749 69.7099 -0.738749 64.6599 2.20125L21.9499 27.0013C20.5106 27.7557 19.3429 28.9409 18.6099 30.3913H18.1799V32.3013L18.2599 123.191C18.1536 123.743 18.1536 124.31 18.2599 124.861C18.5799 126.501 19.8299 128.091 21.9999 129.341L64.9999 154.161C70.0799 157.101 78.3099 157.101 83.3699 154.161L126.08 129.341C128.69 127.821 129.94 125.811 129.83 123.821V123.901Z" fill="url(#paint9_linear_66_2599)"/>
<defs>
<linearGradient id="paint0_linear_66_2599" x1="0" y1="185.467" x2="147.49" y2="185.467" gradientUnits="userSpaceOnUse">
<stop stop-color="#00A8E3" stop-opacity="0.01"/>
<stop offset="0.12" stop-color="#00ACE4" stop-opacity="0.06"/>
<stop offset="0.34" stop-color="#00B6E7" stop-opacity="0.21"/>
<stop offset="0.64" stop-color="#00C6EC" stop-opacity="0.46"/>
<stop offset="1" stop-color="#00DCF3" stop-opacity="0.8"/>
</linearGradient>
<linearGradient id="paint1_linear_66_2599" x1="18.32" y1="156.435" x2="129.99" y2="156.435" gradientUnits="userSpaceOnUse">
<stop stop-color="#6ECAF9"/>
<stop offset="0.35" stop-color="#A1DDFB"/>
<stop offset="1" stop-color="white"/>
</linearGradient>
<linearGradient id="paint2_linear_66_2599" x1="129.99" y1="124.156" x2="18.28" y2="124.156" gradientUnits="userSpaceOnUse">
<stop offset="0.12" stop-color="#5C90FE"/>
<stop offset="0.56" stop-color="#466CF5"/>
<stop offset="0.69" stop-color="#4265F3"/>
<stop offset="0.87" stop-color="#3853EF"/>
<stop offset="1" stop-color="#2E42EB"/>
</linearGradient>
<linearGradient id="paint3_linear_66_2599" x1="22.6499" y1="152.108" x2="125.66" y2="152.108" gradientUnits="userSpaceOnUse">
<stop stop-color="#00DCF3"/>
<stop offset="0.26" stop-color="#00D5F1"/>
<stop offset="0.62" stop-color="#00C3EB"/>
<stop offset="1" stop-color="#00A8E3"/>
</linearGradient>
<linearGradient id="paint4_linear_66_2599" x1="112.684" y1="53.4013" x2="112.684" y2="46.6713" gradientUnits="userSpaceOnUse">
<stop stop-color="#6B49FF"/>
<stop offset="0.56" stop-color="#785BFF"/>
<stop offset="1" stop-color="#7F64FF"/>
</linearGradient>
<linearGradient id="paint5_linear_66_2599" x1="84.5343" y1="82.1513" x2="84.5343" y2="47.2013" gradientUnits="userSpaceOnUse">
<stop stop-color="#6B49FF"/>
<stop offset="0.56" stop-color="#785BFF"/>
<stop offset="1" stop-color="#7F64FF"/>
</linearGradient>
<linearGradient id="paint6_linear_66_2599" x1="72.7923" y1="121.731" x2="72.7923" y2="77.8511" gradientUnits="userSpaceOnUse">
<stop stop-color="#6B49FF"/>
<stop offset="0.56" stop-color="#785BFF"/>
<stop offset="1" stop-color="#7F64FF"/>
</linearGradient>
<linearGradient id="paint7_linear_66_2599" x1="108.631" y1="120.581" x2="108.631" y2="55.0215" gradientUnits="userSpaceOnUse">
<stop stop-color="#6B49FF"/>
<stop offset="0.56" stop-color="#785BFF"/>
<stop offset="1" stop-color="#7F64FF"/>
</linearGradient>
<linearGradient id="paint8_linear_66_2599" x1="68.64" y1="106.91" x2="100.62" y2="106.91" gradientUnits="userSpaceOnUse">
<stop offset="0.37" stop-color="#FFD100"/>
<stop offset="0.74" stop-color="#FFB200"/>
</linearGradient>
<linearGradient id="paint9_linear_66_2599" x1="129.855" y1="156.441" x2="129.855" y2="0.00124949" gradientUnits="userSpaceOnUse">
<stop stop-color="#6ECAF9"/>
<stop offset="0.04" stop-color="#77CDF9" stop-opacity="0.94"/>
<stop offset="0.19" stop-color="#9ADAFB" stop-opacity="0.69"/>
<stop offset="0.34" stop-color="#B9E5FC" stop-opacity="0.48"/>
<stop offset="0.49" stop-color="#D2EFFD" stop-opacity="0.31"/>
<stop offset="0.63" stop-color="#E6F6FE" stop-opacity="0.17"/>
<stop offset="0.77" stop-color="#F4FBFF" stop-opacity="0.08"/>
<stop offset="0.89" stop-color="#FCFEFF" stop-opacity="0.02"/>
<stop offset="1" stop-color="white" stop-opacity="0.01"/>
</linearGradient>
</defs>
</svg>
