<svg width="167" height="29" viewBox="0 0 167 29" fill="none" xmlns="http://www.w3.org/2000/svg">
<path fill-rule="evenodd" clip-rule="evenodd" d="M16.2306 0.00274739C16.6611 0.0149573 17.0192 0.0500709 17.2081 0.44081L21.0238 7.41036C21.2417 7.8461 21.2417 7.8461 21.2417 7.8461L19.4987 10.6784L16.0979 3.47229L2.06894 28.5438C1.75669 29.107 1.3195 29.077 0.761709 28.7617C0.203915 28.4465 -0.203986 28.0176 0.108258 27.4545L15.158 0.382665C15.3684 0.00325072 15.8001 -0.0094625 16.2306 0.00274739Z" fill="white"/>
<path fill-rule="evenodd" clip-rule="evenodd" d="M27.4591 0.356332C28.005 0.686179 28.3118 0.996064 27.9872 1.55081L13.2959 26.6627H30.6776C31.3126 26.6627 31.4816 27.2447 31.4816 27.8901C31.4816 28.5355 31.3126 28.9999 30.6776 28.9999H11.2745C10.8611 28.9999 10.4795 28.7743 10.2751 28.4091C10.0707 28.0438 10.0749 27.5952 10.2862 27.234L26.0106 0.356327C26.3352 -0.198417 26.9133 0.0264859 27.4591 0.356332Z" fill="url(#paint0_linear_193_240)"/>
<mask id="mask0_193_240" style="mask-type:alpha" maskUnits="userSpaceOnUse" x="40" y="4" width="71" height="22">
<path d="M111 4H40V26H111V4Z" fill="white"/>
<path d="M46.693 19.3638C46.4594 20.1228 46.1285 21.2614 45.7003 22.7796C45.642 22.9936 45.6128 23.3245 45.6128 23.7722C45.6128 24.0641 45.7393 24.2685 45.9923 24.3853C46.3621 24.541 46.6249 24.6383 46.7806 24.6772C47.2477 24.7551 47.7148 24.8135 48.1819 24.8524C48.4739 24.8913 48.902 24.9108 49.4665 24.9108C49.6416 24.9497 49.7584 25.0275 49.8168 25.1443C49.7195 25.2416 49.6611 25.2903 49.6416 25.2903C49.4859 25.3098 49.2621 25.3195 48.9702 25.3195H41.7883C41.3601 25.3195 41.0973 25.2903 41 25.2319C41.0195 25.0957 41.146 25.0081 41.3795 24.9692C41.5158 24.9302 41.7104 24.8913 41.9634 24.8524C42.2165 24.8135 42.4111 24.7745 42.5473 24.7356C42.6252 24.7161 42.7225 24.6869 42.8393 24.648C42.9561 24.6091 43.0436 24.5896 43.102 24.5896C43.4913 24.4534 43.7735 24.1906 43.9487 23.8014C43.9681 23.743 43.9973 23.6554 44.0363 23.5386C44.0752 23.4024 44.1044 23.3051 44.1238 23.2467C44.2017 23.0131 44.445 22.2832 44.8537 21.0571C45.2624 19.8114 45.5738 18.8577 45.7879 18.196C45.8853 17.8651 46.041 17.3104 46.2551 16.5319C46.4886 15.7339 46.6735 15.1305 46.8098 14.7218C47.5104 12.2695 47.9581 10.7611 48.1527 10.1967C48.2889 9.72954 48.4641 9.0678 48.6782 8.21142C48.8923 7.33558 49.048 6.74195 49.1453 6.43054C49.2037 6.09967 49.1453 5.82718 48.9702 5.61309C48.795 5.49631 48.5225 5.44765 48.1527 5.46712C47.7829 5.48658 47.491 5.45739 47.2769 5.37953C47.2963 5.26275 47.3742 5.1849 47.5104 5.14597C48.542 5.04866 49.1648 5 49.3789 5C49.7681 5 51.0041 5.01946 53.0866 5.05839C53.2423 5.05839 53.4564 5.07785 53.7289 5.11678C54.0208 5.13624 54.2057 5.14597 54.2836 5.14597L54.5463 5.67148C54.7799 6.13859 55.0232 6.70303 55.2762 7.36477C55.4708 7.81243 55.6363 8.23088 55.7725 8.62015L57.6118 13.5249C58.3514 15.5685 58.8088 16.9503 58.9839 17.6705C59.0229 17.8846 59.1591 18.3128 59.3927 18.955L60.8816 23.2467C61.0373 23.7332 61.2222 24.0836 61.4363 24.2977C61.6115 24.4145 61.884 24.5118 62.2538 24.5896C62.643 24.6675 62.9155 24.7551 63.0712 24.8524C63.1685 25.0081 63.1296 25.1541 62.9544 25.2903C62.9155 25.2903 62.8376 25.3 62.7209 25.3195C62.6041 25.3195 62.5068 25.3195 62.4289 25.3195C62.0202 25.339 61.4168 25.3487 60.6189 25.3487C59.8209 25.3682 59.2175 25.3779 58.8088 25.3779C57.7188 25.3779 56.9111 25.4071 56.3856 25.4655C55.7433 25.5433 55.2665 25.5433 54.9551 25.4655L54.8383 25.2319C54.8772 25.1541 54.9064 25.1054 54.9259 25.0859C55.0037 25.0275 55.0816 24.9886 55.1594 24.9692C55.2373 24.9302 55.3346 24.9108 55.4514 24.9108C55.5876 24.9108 55.6849 24.901 55.7433 24.8816C55.9964 24.8426 56.2396 24.7843 56.4732 24.7064C56.7262 24.6091 56.8722 24.4242 56.9111 24.1517C56.8722 23.996 56.8235 23.8306 56.7651 23.6554C56.7262 23.4802 56.6386 23.1883 56.5024 22.7796C56.3662 22.3514 56.2688 22.0205 56.2104 21.7869C56.1131 21.4561 55.8406 20.697 55.393 19.5097C55.3151 19.3151 55.2081 19.1205 55.0719 18.9258C55.0329 18.9258 54.9745 18.9064 54.8967 18.8675C54.8188 18.8285 54.7604 18.8091 54.7215 18.8091C54.488 18.8285 54.1279 18.8383 53.6413 18.8383C53.1547 18.8383 52.7849 18.848 52.5319 18.8675C52.2594 18.8675 51.8702 18.8869 51.3641 18.9258C50.099 18.9842 49.34 19.0329 49.0869 19.0718C48.9507 19.0913 48.5322 19.101 47.8316 19.101C47.2866 19.1399 46.9071 19.2275 46.693 19.3638ZM60.2101 24.3269C59.5678 22.4584 59.1007 21.0765 58.8088 20.1812C58.4195 19.0329 58.186 18.342 58.1081 18.1084C57.8745 17.2326 57.3782 15.7436 56.6192 13.6416C55.8406 11.6564 55.4125 10.5567 55.3346 10.3426C54.9259 9.07753 54.4101 7.76377 53.7873 6.40135C53.7678 6.36242 53.7386 6.32349 53.6997 6.28457C53.6608 6.22618 53.6218 6.17752 53.5829 6.1386C53.5635 6.08021 53.544 6.02182 53.5245 5.96343C53.1742 5.94396 52.639 5.93423 51.9188 5.93423C51.1987 5.91477 50.6635 5.88557 50.3131 5.84665C50.2937 5.84665 50.2547 5.86611 50.1963 5.90504L50.1088 5.96343C49.992 6.23591 50.0114 6.48893 50.1671 6.72249C50.2645 6.74195 50.5369 6.78088 50.9846 6.83927C51.4712 7.15068 51.802 7.67618 51.9772 8.41578C52.2108 9.33055 52.5903 10.3329 53.1158 11.4228C53.2131 11.6564 53.4175 12.1235 53.7289 12.8242C54.0403 13.5054 54.2836 14.0406 54.4588 14.4299C54.4977 14.5466 54.7312 15.1792 55.1594 16.3275C55.5292 17.145 55.7044 17.7289 55.6849 18.0792C55.9574 18.4685 56.1229 18.7312 56.1813 18.8675C56.2786 19.0232 56.3856 19.2762 56.5024 19.6265C56.6386 20.0158 56.8235 20.5997 57.0571 21.3782C57.2907 22.1373 57.4756 22.7114 57.6118 23.1007C57.7286 23.4121 57.787 23.7332 57.787 24.0641C57.8064 24.1225 57.8259 24.1906 57.8454 24.2685C57.8843 24.3463 57.9037 24.4047 57.9037 24.4437C58.1762 24.502 58.5363 24.541 58.9839 24.5604C59.4316 24.5604 59.7527 24.541 59.9474 24.502C60.0058 24.4631 60.0933 24.4047 60.2101 24.3269ZM54.8091 17.904C54.4977 17.3007 54.1474 16.4346 53.7581 15.3057C53.7386 15.2862 53.7192 15.2473 53.6997 15.1889C53.6802 15.1305 53.6705 15.0916 53.6705 15.0721C52.7947 13.1453 52.2594 11.9678 52.0648 11.5396C51.695 10.7611 51.4128 10.002 51.2182 9.26243C51.0624 8.75639 50.9359 8.37686 50.8386 8.12384C50.7608 7.87081 50.6245 7.73457 50.4299 7.71511C50.2937 7.98759 50.2158 8.15303 50.1963 8.21142C50.1379 8.36713 50.0601 8.60068 49.9628 8.91209C49.8655 9.20404 49.7973 9.42787 49.7584 9.58357C49.739 9.64196 49.7 9.73928 49.6416 9.87552C49.6027 9.9923 49.5735 10.0799 49.5541 10.1383C49.4957 10.3718 49.3886 10.7222 49.2329 11.1893C49.0772 11.6564 48.9702 12.0067 48.9118 12.2403C48.4252 13.6806 48.1138 14.644 47.9775 15.1305C47.5883 16.5124 47.3353 17.3688 47.2185 17.6997C47.199 17.7191 47.1698 17.8651 47.1309 18.1376C47.4034 18.2154 47.5688 18.2544 47.6272 18.2544C49.2232 18.3322 51.1598 18.2641 53.4369 18.05C53.6121 18.05 53.8943 18.0305 54.2836 17.9916C54.3809 17.9916 54.5561 17.9624 54.8091 17.904Z" fill="black"/>
<path d="M65.175 8.32824C65.175 8.23092 65.1653 8.14334 65.1458 8.06549C65.1848 8.06549 65.2918 8.03629 65.467 7.9779C65.6421 7.91951 65.7784 7.89032 65.8757 7.89032C67.0824 7.83193 68.2697 7.80273 69.4375 7.80273C69.4569 7.80273 69.564 7.8222 69.7586 7.86112C69.817 8.07522 69.8462 8.58126 69.8462 9.37925V10.8974C69.8462 11.0725 69.8364 11.3353 69.817 11.6856C69.817 12.0165 69.817 12.2598 69.817 12.4155C69.7781 13.0967 69.7781 13.5833 69.817 13.8753C69.9143 13.9531 70.0311 13.9531 70.1673 13.8753C70.2841 13.8168 70.4495 13.7195 70.6636 13.5833C70.8972 13.4471 71.0724 13.3497 71.1891 13.2913C71.6757 13.0383 72.2207 12.9118 72.824 12.9118C73.914 12.9702 74.5271 13.0091 74.6633 13.0286C75.7143 13.2038 76.4636 13.7779 76.9113 14.7511C77.0475 15.1014 77.1546 15.4129 77.2324 15.6853C77.3298 16.0941 77.3881 16.3179 77.4076 16.3568C77.6801 17.1353 77.7969 18.1864 77.7579 19.5098C77.7385 20.8723 77.2908 22.0887 76.415 23.1592C76.2009 23.4511 75.9089 23.7139 75.5391 23.9474C74.5076 24.7065 73.4858 25.125 72.4737 25.2028C72.318 25.2028 72.0358 25.232 71.6271 25.2904C71.2378 25.3293 70.9361 25.3488 70.722 25.3488C70.0408 25.3099 69.6418 25.2417 69.525 25.1444C69.0579 25.1444 68.367 25.1542 67.4522 25.1736C66.5569 25.1736 65.8854 25.1834 65.4378 25.2028C65.3794 25.2028 65.2626 25.1736 65.0874 25.1152C64.9901 24.979 64.9999 24.8719 65.1166 24.7941C65.1945 24.7552 65.3015 24.7065 65.4378 24.6481C65.574 24.5897 65.6713 24.5411 65.7297 24.5021C65.7881 24.4632 65.866 24.4048 65.9633 24.327C66.0801 24.2491 66.1676 24.1907 66.226 24.1518C66.265 23.8793 66.2844 23.6847 66.2844 23.5679C66.3039 23.4122 66.3136 23.1884 66.3136 22.8964C66.4109 18.8481 66.4791 16.5709 66.518 16.0649C66.5764 15.2863 66.6056 13.3205 66.6056 10.1675C66.6056 9.99234 66.5861 9.71012 66.5472 9.32086C66.4888 9.02891 66.4012 8.82455 66.2844 8.70777C66.1871 8.59099 65.9925 8.50341 65.7005 8.44502C65.6032 8.44502 65.4572 8.42555 65.2626 8.38663C65.2431 8.36716 65.2139 8.3477 65.175 8.32824ZM70.4009 24.0058C70.8291 24.0837 71.1599 24.1323 71.3935 24.1518C72.3667 24.2686 73.116 23.8404 73.6415 22.8672C73.661 22.8283 73.6804 22.7797 73.6999 22.7213C73.7388 22.6434 73.768 22.585 73.7875 22.5461C74.1183 21.826 74.313 20.9307 74.3714 19.8602C74.4492 18.887 74.3422 17.836 74.0502 16.7072C73.8167 15.8118 73.3787 15.1404 72.7365 14.6927C72.2304 14.3424 71.6173 14.2645 70.8972 14.4592C70.5468 14.5759 70.2257 14.79 69.9338 15.1014C69.8559 15.1793 69.7781 15.335 69.7002 15.5686C69.6807 15.6269 69.6613 15.7243 69.6418 15.8605C69.6418 15.9967 69.6418 16.0941 69.6418 16.1525C69.6418 17.4565 69.6223 19.4125 69.5834 22.0206C69.564 22.7213 69.8364 23.383 70.4009 24.0058ZM68.9995 8.82455C68.4156 8.61045 67.8999 8.62019 67.4522 8.85374C67.4522 8.95106 67.4425 9.09703 67.423 9.29166C67.423 9.4863 67.423 9.62254 67.423 9.70039C67.4425 10.7709 67.4522 12.3766 67.4522 14.5175C67.4522 15.7827 67.4327 16.5904 67.3938 16.9407C67.3549 17.291 67.3062 18.3323 67.2478 20.0645V21.5827C67.2284 21.7384 67.2089 21.9914 67.1895 22.3417C67.17 22.6921 67.1603 22.9451 67.1603 23.1008C67.1603 23.1592 67.1505 23.2468 67.1311 23.3635C67.1311 23.4803 67.1311 23.5776 67.1311 23.6555C67.1311 23.7139 67.1408 23.8015 67.1603 23.9182C67.1797 24.0156 67.2187 24.1031 67.277 24.181C67.3549 24.181 67.5301 24.2102 67.8025 24.2686C68.0945 24.3075 68.328 24.3172 68.5032 24.2978C68.6978 24.2589 68.8828 24.181 69.0579 24.0642C69.0579 24.0448 69.0482 24.0058 69.0287 23.9474C69.0287 23.8696 69.019 23.8209 68.9995 23.8015C68.7854 23.4317 68.6784 22.8867 68.6784 22.1666C68.6784 21.6994 68.6784 20.989 68.6784 20.0354C68.6784 19.0817 68.6881 18.3615 68.7076 17.8749C68.7076 17.7776 68.7076 17.6511 68.7076 17.4954C68.727 17.3397 68.7368 17.2132 68.7368 17.1159C68.7368 17.0186 68.7465 16.8531 68.766 16.6196C68.7854 16.386 68.8049 16.2206 68.8244 16.1233C68.8827 15.3058 68.9119 14.8873 68.9119 14.8679C68.9314 14.7316 68.9217 14.5273 68.8827 14.2548C68.8438 13.9628 68.8438 13.7487 68.8827 13.6125V13.3497C68.9217 12.688 68.9606 11.6759 68.9995 10.3135V8.82455ZM74.6341 23.3052C75.1012 23.0911 75.4321 22.8575 75.6267 22.6045C76.1522 21.9427 76.522 21.1642 76.7361 20.2689C76.9113 19.5098 76.9697 18.9746 76.9113 18.6632C76.6972 17.3008 76.3955 16.1427 76.0063 15.189C75.7922 14.7024 75.471 14.3618 75.0428 14.1672C74.4979 13.8753 74.0016 13.7974 73.5539 13.9337C73.7096 14.1672 73.8167 14.3132 73.875 14.3716C74.3616 14.8192 74.7217 15.4712 74.9552 16.3276C75.1304 17.0672 75.218 17.6998 75.218 18.2253V20.5025C75.218 20.7944 75.1888 21.0766 75.1304 21.3491C75.072 21.5827 74.9844 21.9233 74.8677 22.3709C74.7509 22.8186 74.673 23.13 74.6341 23.3052Z" fill="black"/>
<path d="M82.0721 15.7144C82.4808 16.2789 83.0161 16.7654 83.6778 17.1742C83.9698 17.3688 84.4272 17.6413 85.05 17.9916C85.848 18.4782 86.5 18.9259 87.006 19.3346C87.7262 19.9769 88.1057 20.7943 88.1446 21.7869C88.1641 22.2346 87.9695 22.7796 87.5607 23.4218C87.405 23.6749 87.2299 23.8987 87.0352 24.0933C86.5876 24.5799 86.0913 24.8718 85.5463 24.9692C84.2812 25.2416 83.0842 25.339 81.9553 25.2611C81.0211 25.1833 80.3107 24.9692 79.8241 24.6188C79.6684 23.451 79.61 22.546 79.649 21.9037C79.7657 22.1178 79.8241 22.2443 79.8241 22.2832C80.0382 22.8671 80.4859 23.4316 81.1671 23.9765C81.5758 24.2879 82.0429 24.4631 82.5684 24.502H84.1741C84.7386 24.4826 85.1473 24.1906 85.4003 23.6262L85.6339 22.9255C85.6339 22.2443 85.3419 21.6896 84.758 21.2614C84.4077 20.9889 84.0087 20.7262 83.561 20.4732C83.3859 20.3759 83.1134 20.2396 82.7436 20.0644C82.3738 19.8698 82.1013 19.7238 81.9261 19.6265C81.0892 19.1789 80.4859 18.6047 80.1161 17.904C79.863 17.4369 79.7365 17.0379 79.7365 16.7071V16.0356C79.7365 15.1208 80.0577 14.3715 80.7 13.7876C81.0503 13.4372 81.4298 13.2231 81.8386 13.1453C82.4225 13.009 82.9285 12.9409 83.3567 12.9409C83.8238 12.9604 84.5245 12.9701 85.4587 12.9701C86.0426 12.9701 86.6168 13.1453 87.1812 13.4956C87.3953 14.3325 87.405 15.2084 87.2104 16.1232C87.1325 16.0648 87.0741 16.0064 87.0352 15.948C86.9184 15.6366 86.8406 15.403 86.8017 15.2473C86.5681 14.5272 86.1205 14.0017 85.4587 13.6708C84.8164 13.3204 84.1157 13.2231 83.3567 13.3788C82.6171 13.5151 82.1889 13.9822 82.0721 14.7802V15.7144ZM80.5832 16.1232C80.7194 17.3493 81.3228 18.2252 82.3933 18.7507C82.5295 18.8091 82.7923 18.9453 83.1815 19.1594C83.5902 19.3735 83.9017 19.5292 84.1157 19.6265C84.797 19.9574 85.4392 20.4634 86.0426 21.1446C86.3345 21.4755 86.4805 21.8259 86.4805 22.1957C86.4805 22.3319 86.5 22.5557 86.5389 22.8671C86.7919 22.692 86.9768 22.4389 87.0936 22.1081C87.2104 21.8551 87.2201 21.5826 87.1228 21.2906C86.8309 20.5705 86.4708 20.0839 86.0426 19.8309C85.9258 19.7725 85.7604 19.6752 85.5463 19.5389C85.3517 19.3832 85.2154 19.2762 85.1376 19.2178C84.7678 18.9842 84.1936 18.6339 83.4151 18.1668C82.948 17.9138 82.3738 17.4661 81.6926 16.8238C81.2839 16.3762 81.099 15.9188 81.1379 15.4517C81.1379 15.2765 81.0892 15.1695 80.9919 15.1305C80.8557 15.2279 80.7584 15.4128 80.7 15.6852C80.6416 15.9383 80.6027 16.0842 80.5832 16.1232Z" fill="black"/>
<path d="M97.4947 23.9474C97.5725 24.2005 97.4849 24.434 97.2319 24.6481C96.7648 24.9985 96.2004 25.2223 95.5386 25.3196C94.3514 25.4948 93.2322 25.2028 92.1812 24.4438C91.9087 24.2686 91.7141 24.0448 91.5973 23.7723C91.3832 23.3246 91.2664 22.8867 91.247 22.4585C91.2275 22.2833 91.2178 22.0011 91.2178 21.6119C91.1789 20.5219 91.1399 19.685 91.101 19.1011C91.0621 18.6924 91.0426 17.7582 91.0426 16.2984C91.0426 15.9286 91.0426 15.3739 91.0426 14.6343C91.0621 13.8753 91.0718 13.3108 91.0718 12.941C91.0718 12.5323 91.0426 12.2598 90.9842 12.1236C90.8869 12.0263 90.7409 11.9776 90.5463 11.9776C90.3517 11.9581 90.2154 11.9387 90.1376 11.9192C89.9624 11.744 89.9722 11.5397 90.1668 11.3061C90.3614 11.2867 90.6242 11.238 90.955 11.1601C91.0134 11.0628 91.0524 10.946 91.0718 10.8098C91.0913 10.6736 91.0913 10.5568 91.0718 10.4595C91.0718 10.3427 91.0816 10.2162 91.101 10.0799C91.101 10.0605 91.1302 9.69068 91.1886 8.97054L91.2762 7.94873C91.393 7.87087 91.4513 7.83195 91.4513 7.83195C91.6071 7.79302 91.7141 7.77356 91.7725 7.77356C92.1034 7.79302 92.5899 7.81249 93.2322 7.83195C93.8745 7.83195 94.3611 7.83195 94.692 7.83195C94.7893 8.1239 94.8379 8.2796 94.8379 8.29906C94.8379 8.39638 94.8282 8.55209 94.8087 8.76618C94.8087 8.96081 94.8087 9.11652 94.8087 9.2333C94.7893 9.6031 94.7795 10.1578 94.7795 10.8974C94.7795 10.9752 94.8185 11.092 94.8963 11.2477C95.1883 11.345 95.5873 11.384 96.0933 11.3645C96.5993 11.345 96.9983 11.3645 97.2903 11.4229C97.2903 11.4424 97.3 11.4716 97.3195 11.5105C97.3584 11.5299 97.3779 11.5494 97.3779 11.5689C97.3973 11.6467 97.4071 11.7635 97.4071 11.9192C97.1346 11.9776 96.7161 12.0068 96.1517 12.0068C95.5873 11.9873 95.1688 12.0068 94.8963 12.0652C94.8963 12.1236 94.8769 12.2306 94.8379 12.3863C94.799 12.5226 94.7795 12.6393 94.7795 12.7367C94.7406 12.8924 94.7212 13.1454 94.7212 13.4957V21.4951C94.7017 21.8843 94.7601 22.3612 94.8963 22.9256C95.0715 23.7042 95.5678 24.0545 96.3853 23.9766C97.0081 23.9182 97.3779 23.9085 97.4947 23.9474ZM93.8453 8.70779C93.0279 8.62994 92.444 8.63967 92.0936 8.73698C92.0547 8.93162 92.0352 9.04839 92.0352 9.08732C91.9963 10.4108 91.9769 11.3937 91.9769 12.036C91.9574 12.5615 91.9477 13.0286 91.9477 13.4373C91.9671 13.8461 91.9671 14.3035 91.9477 14.8095C91.9477 15.3155 91.9282 15.7729 91.8893 16.1816C91.8503 16.9796 91.8601 17.5733 91.9185 17.9625C91.9574 18.235 91.9963 19.0427 92.0352 20.3857C92.0352 21.0474 92.0742 21.6411 92.152 22.1666C92.2104 22.6531 92.3758 23.1105 92.6483 23.5387C93.1544 23.8696 93.4755 24.0642 93.6118 24.1226C93.7675 24.181 94.001 24.2297 94.3124 24.2686C94.3514 24.1907 94.3611 24.1421 94.3416 24.1226C94.0886 23.7528 93.9426 23.2468 93.9037 22.6045C93.7869 21.1253 93.748 20.0256 93.7869 19.3055L93.8745 16.9407C93.894 16.1038 93.9037 14.8387 93.9037 13.1454C93.9037 11.4521 93.9134 10.187 93.9329 9.35007C93.9329 9.27222 93.9134 9.16517 93.8745 9.02893C93.855 8.87323 93.8453 8.76618 93.8453 8.70779Z" fill="black"/>
<path d="M103.948 14.7511C104.669 14.2451 105.116 13.9434 105.291 13.8461C106.42 13.2038 107.724 12.941 109.203 13.0578C109.457 13.0772 109.71 13.1843 109.963 13.3789C110.099 13.5736 110.138 13.7876 110.079 14.0212C110.021 14.2548 109.894 14.4397 109.7 14.5759C109.272 14.9068 108.785 15.1014 108.24 15.1598C108.201 15.1404 108.123 15.1112 108.006 15.0722C107.909 15.0333 107.812 14.9944 107.715 14.9555C107.637 14.9165 107.559 14.8776 107.481 14.8387C106.683 14.4105 105.875 14.4105 105.058 14.8387C104.63 15.0528 104.231 15.3837 103.861 15.8313C103.841 15.9481 103.832 16.1525 103.832 16.4444C103.832 19.3444 103.841 21.5146 103.861 22.9548C103.861 23.2273 103.91 23.7528 104.007 24.5313C104.124 24.7065 104.328 24.8525 104.62 24.9693C104.912 25.0666 105.077 25.1347 105.116 25.1736C105.038 25.2515 104.98 25.3001 104.941 25.3196C104.902 25.3585 104.853 25.3585 104.795 25.3196C104.367 25.2612 103.579 25.2612 102.43 25.3196C101.282 25.3585 100.494 25.3683 100.066 25.3488C99.9876 25.3293 99.8709 25.3196 99.7151 25.3196C99.5789 25.3001 99.4719 25.2904 99.394 25.2904C99.394 25.1736 99.4037 25.086 99.4232 25.0276C99.8125 24.8719 100.095 24.7552 100.27 24.6773C100.309 24.6578 100.357 24.6189 100.416 24.5605C100.572 24.1129 100.649 23.5095 100.649 22.7505C100.669 22.2055 100.679 21.3783 100.679 20.2689C100.679 19.1595 100.688 18.3226 100.708 17.7582L100.795 15.3934C100.795 15.2377 100.776 14.9847 100.737 14.6343C100.698 14.2061 100.474 13.9142 100.066 13.7585C100.027 13.739 99.9682 13.7195 99.8903 13.7001C99.8125 13.6806 99.7443 13.6514 99.686 13.6125C99.6276 13.5736 99.5886 13.5249 99.5692 13.4665C99.5497 13.4665 99.54 13.447 99.54 13.4081C99.5789 13.3303 99.6081 13.2913 99.6276 13.2913C100.173 13.1356 100.679 13.0675 101.146 13.087C101.34 13.087 101.613 13.0772 101.963 13.0578C102.314 13.0189 102.635 12.9994 102.927 12.9994C103.219 12.9994 103.491 13.0286 103.744 13.087C103.802 13.2621 103.832 13.5346 103.832 13.9045C103.832 14.2743 103.871 14.5565 103.948 14.7511ZM102.927 24.327C102.946 24.2686 102.966 24.2102 102.985 24.1518L103.014 24.0934C103.014 23.8599 103.004 23.383 102.985 22.6629C102.985 21.9233 102.975 21.3588 102.956 20.9696C102.878 19.432 102.878 17.8847 102.956 16.3276C102.995 15.8994 103.014 15.2571 103.014 14.4008C103.014 14.3229 102.995 14.2353 102.956 14.138C102.917 14.0212 102.897 13.9531 102.897 13.9337C102.372 13.8558 101.983 13.8947 101.73 14.0504C101.671 14.1477 101.632 14.2548 101.613 14.3716C101.613 14.4884 101.613 14.5954 101.613 14.6927C101.632 14.7706 101.632 14.8679 101.613 14.9847C101.613 17.5343 101.603 19.4515 101.584 20.736C101.584 21.1837 101.574 21.4562 101.554 21.5535L101.467 24.0058C101.467 24.0448 101.477 24.1031 101.496 24.181C101.535 24.2589 101.554 24.3172 101.554 24.3562C102.216 24.3951 102.674 24.3854 102.927 24.327ZM108.444 13.9337H108.415L108.386 13.9628L108.415 13.992C108.435 13.992 108.454 13.992 108.474 13.992C108.454 13.9726 108.444 13.9531 108.444 13.9337Z" fill="black"/>
</mask>
<g mask="url(#mask0_193_240)">
<path d="M46.693 19.3638C46.4594 20.1228 46.1285 21.2614 45.7003 22.7796C45.642 22.9936 45.6128 23.3245 45.6128 23.7722C45.6128 24.0641 45.7393 24.2685 45.9923 24.3853C46.3621 24.541 46.6249 24.6383 46.7806 24.6772C47.2477 24.7551 47.7148 24.8135 48.1819 24.8524C48.4739 24.8913 48.902 24.9108 49.4665 24.9108C49.6416 24.9497 49.7584 25.0275 49.8168 25.1443C49.7195 25.2416 49.6611 25.2903 49.6416 25.2903C49.4859 25.3098 49.2621 25.3195 48.9702 25.3195H41.7883C41.3601 25.3195 41.0973 25.2903 41 25.2319C41.0195 25.0957 41.146 25.0081 41.3795 24.9692C41.5158 24.9302 41.7104 24.8913 41.9634 24.8524C42.2165 24.8135 42.4111 24.7745 42.5473 24.7356C42.6252 24.7161 42.7225 24.6869 42.8393 24.648C42.9561 24.6091 43.0436 24.5896 43.102 24.5896C43.4913 24.4534 43.7735 24.1906 43.9487 23.8014C43.9681 23.743 43.9973 23.6554 44.0363 23.5386C44.0752 23.4024 44.1044 23.3051 44.1238 23.2467C44.2017 23.0131 44.445 22.2832 44.8537 21.0571C45.2624 19.8114 45.5738 18.8577 45.7879 18.196C45.8853 17.8651 46.041 17.3104 46.2551 16.5319C46.4886 15.7339 46.6735 15.1305 46.8098 14.7218C47.5104 12.2695 47.9581 10.7611 48.1527 10.1967C48.2889 9.72954 48.4641 9.0678 48.6782 8.21142C48.8923 7.33558 49.048 6.74195 49.1453 6.43054C49.2037 6.09967 49.1453 5.82718 48.9702 5.61309C48.795 5.49631 48.5225 5.44765 48.1527 5.46712C47.7829 5.48658 47.491 5.45739 47.2769 5.37953C47.2963 5.26275 47.3742 5.1849 47.5104 5.14597C48.542 5.04866 49.1648 5 49.3789 5C49.7681 5 51.0041 5.01946 53.0866 5.05839C53.2423 5.05839 53.4564 5.07785 53.7289 5.11678C54.0208 5.13624 54.2057 5.14597 54.2836 5.14597L54.5463 5.67148C54.7799 6.13859 55.0232 6.70303 55.2762 7.36477C55.4708 7.81243 55.6363 8.23088 55.7725 8.62015L57.6118 13.5249C58.3514 15.5685 58.8088 16.9503 58.9839 17.6705C59.0229 17.8846 59.1591 18.3128 59.3927 18.955L60.8816 23.2467C61.0373 23.7332 61.2222 24.0836 61.4363 24.2977C61.6115 24.4145 61.884 24.5118 62.2538 24.5896C62.643 24.6675 62.9155 24.7551 63.0712 24.8524C63.1685 25.0081 63.1296 25.1541 62.9544 25.2903C62.9155 25.2903 62.8376 25.3 62.7209 25.3195C62.6041 25.3195 62.5068 25.3195 62.4289 25.3195C62.0202 25.339 61.4168 25.3487 60.6189 25.3487C59.8209 25.3682 59.2175 25.3779 58.8088 25.3779C57.7188 25.3779 56.9111 25.4071 56.3856 25.4655C55.7433 25.5433 55.2665 25.5433 54.9551 25.4655L54.8383 25.2319C54.8772 25.1541 54.9064 25.1054 54.9259 25.0859C55.0037 25.0275 55.0816 24.9886 55.1594 24.9692C55.2373 24.9302 55.3346 24.9108 55.4514 24.9108C55.5876 24.9108 55.6849 24.901 55.7433 24.8816C55.9964 24.8426 56.2396 24.7843 56.4732 24.7064C56.7262 24.6091 56.8722 24.4242 56.9111 24.1517C56.8722 23.996 56.8235 23.8306 56.7651 23.6554C56.7262 23.4802 56.6386 23.1883 56.5024 22.7796C56.3662 22.3514 56.2688 22.0205 56.2104 21.7869C56.1131 21.4561 55.8406 20.697 55.393 19.5097C55.3151 19.3151 55.2081 19.1205 55.0719 18.9258C55.0329 18.9258 54.9745 18.9064 54.8967 18.8675C54.8188 18.8285 54.7604 18.8091 54.7215 18.8091C54.488 18.8285 54.1279 18.8383 53.6413 18.8383C53.1547 18.8383 52.7849 18.848 52.5319 18.8675C52.2594 18.8675 51.8702 18.8869 51.3641 18.9258C50.099 18.9842 49.34 19.0329 49.0869 19.0718C48.9507 19.0913 48.5322 19.101 47.8316 19.101C47.2866 19.1399 46.9071 19.2275 46.693 19.3638ZM60.2101 24.3269C59.5678 22.4584 59.1007 21.0765 58.8088 20.1812C58.4195 19.0329 58.186 18.342 58.1081 18.1084C57.8745 17.2326 57.3782 15.7436 56.6192 13.6416C55.8406 11.6564 55.4125 10.5567 55.3346 10.3426C54.9259 9.07753 54.4101 7.76377 53.7873 6.40135C53.7678 6.36242 53.7386 6.32349 53.6997 6.28457C53.6608 6.22618 53.6218 6.17752 53.5829 6.1386C53.5635 6.08021 53.544 6.02182 53.5245 5.96343C53.1742 5.94396 52.639 5.93423 51.9188 5.93423C51.1987 5.91477 50.6635 5.88557 50.3131 5.84665C50.2937 5.84665 50.2547 5.86611 50.1963 5.90504L50.1088 5.96343C49.992 6.23591 50.0114 6.48893 50.1671 6.72249C50.2645 6.74195 50.5369 6.78088 50.9846 6.83927C51.4712 7.15068 51.802 7.67618 51.9772 8.41578C52.2108 9.33055 52.5903 10.3329 53.1158 11.4228C53.2131 11.6564 53.4175 12.1235 53.7289 12.8242C54.0403 13.5054 54.2836 14.0406 54.4588 14.4299C54.4977 14.5466 54.7312 15.1792 55.1594 16.3275C55.5292 17.145 55.7044 17.7289 55.6849 18.0792C55.9574 18.4685 56.1229 18.7312 56.1813 18.8675C56.2786 19.0232 56.3856 19.2762 56.5024 19.6265C56.6386 20.0158 56.8235 20.5997 57.0571 21.3782C57.2907 22.1373 57.4756 22.7114 57.6118 23.1007C57.7286 23.4121 57.787 23.7332 57.787 24.0641C57.8064 24.1225 57.8259 24.1906 57.8454 24.2685C57.8843 24.3463 57.9037 24.4047 57.9037 24.4437C58.1762 24.502 58.5363 24.541 58.9839 24.5604C59.4316 24.5604 59.7527 24.541 59.9474 24.502C60.0058 24.4631 60.0933 24.4047 60.2101 24.3269ZM54.8091 17.904C54.4977 17.3007 54.1474 16.4346 53.7581 15.3057C53.7386 15.2862 53.7192 15.2473 53.6997 15.1889C53.6802 15.1305 53.6705 15.0916 53.6705 15.0721C52.7947 13.1453 52.2594 11.9678 52.0648 11.5396C51.695 10.7611 51.4128 10.002 51.2182 9.26243C51.0624 8.75639 50.9359 8.37686 50.8386 8.12384C50.7608 7.87081 50.6245 7.73457 50.4299 7.71511C50.2937 7.98759 50.2158 8.15303 50.1963 8.21142C50.1379 8.36713 50.0601 8.60068 49.9628 8.91209C49.8655 9.20404 49.7973 9.42787 49.7584 9.58357C49.739 9.64196 49.7 9.73928 49.6416 9.87552C49.6027 9.9923 49.5735 10.0799 49.5541 10.1383C49.4957 10.3718 49.3886 10.7222 49.2329 11.1893C49.0772 11.6564 48.9702 12.0067 48.9118 12.2403C48.4252 13.6806 48.1138 14.644 47.9775 15.1305C47.5883 16.5124 47.3353 17.3688 47.2185 17.6997C47.199 17.7191 47.1698 17.8651 47.1309 18.1376C47.4034 18.2154 47.5688 18.2544 47.6272 18.2544C49.2232 18.3322 51.1598 18.2641 53.4369 18.05C53.6121 18.05 53.8943 18.0305 54.2836 17.9916C54.3809 17.9916 54.5561 17.9624 54.8091 17.904Z" fill="white"/>
<path d="M65.175 8.32824C65.175 8.23092 65.1653 8.14334 65.1458 8.06549C65.1848 8.06549 65.2918 8.03629 65.467 7.9779C65.6421 7.91951 65.7784 7.89032 65.8757 7.89032C67.0824 7.83193 68.2697 7.80273 69.4375 7.80273C69.4569 7.80273 69.564 7.8222 69.7586 7.86112C69.817 8.07522 69.8462 8.58126 69.8462 9.37925V10.8974C69.8462 11.0725 69.8364 11.3353 69.817 11.6856C69.817 12.0165 69.817 12.2598 69.817 12.4155C69.7781 13.0967 69.7781 13.5833 69.817 13.8753C69.9143 13.9531 70.0311 13.9531 70.1673 13.8753C70.2841 13.8168 70.4495 13.7195 70.6636 13.5833C70.8972 13.4471 71.0724 13.3497 71.1891 13.2913C71.6757 13.0383 72.2207 12.9118 72.824 12.9118C73.914 12.9702 74.5271 13.0091 74.6633 13.0286C75.7143 13.2038 76.4636 13.7779 76.9113 14.7511C77.0475 15.1014 77.1546 15.4129 77.2324 15.6853C77.3298 16.0941 77.3881 16.3179 77.4076 16.3568C77.6801 17.1353 77.7969 18.1864 77.7579 19.5098C77.7385 20.8723 77.2908 22.0887 76.415 23.1592C76.2009 23.4511 75.9089 23.7139 75.5391 23.9474C74.5076 24.7065 73.4858 25.125 72.4737 25.2028C72.318 25.2028 72.0358 25.232 71.6271 25.2904C71.2378 25.3293 70.9361 25.3488 70.722 25.3488C70.0408 25.3099 69.6418 25.2417 69.525 25.1444C69.0579 25.1444 68.367 25.1542 67.4522 25.1736C66.5569 25.1736 65.8854 25.1834 65.4378 25.2028C65.3794 25.2028 65.2626 25.1736 65.0874 25.1152C64.9901 24.979 64.9999 24.8719 65.1166 24.7941C65.1945 24.7552 65.3015 24.7065 65.4378 24.6481C65.574 24.5897 65.6713 24.5411 65.7297 24.5021C65.7881 24.4632 65.866 24.4048 65.9633 24.327C66.0801 24.2491 66.1676 24.1907 66.226 24.1518C66.265 23.8793 66.2844 23.6847 66.2844 23.5679C66.3039 23.4122 66.3136 23.1884 66.3136 22.8964C66.4109 18.8481 66.4791 16.5709 66.518 16.0649C66.5764 15.2863 66.6056 13.3205 66.6056 10.1675C66.6056 9.99234 66.5861 9.71012 66.5472 9.32086C66.4888 9.02891 66.4012 8.82455 66.2844 8.70777C66.1871 8.59099 65.9925 8.50341 65.7005 8.44502C65.6032 8.44502 65.4572 8.42555 65.2626 8.38663C65.2431 8.36716 65.2139 8.3477 65.175 8.32824ZM70.4009 24.0058C70.8291 24.0837 71.1599 24.1323 71.3935 24.1518C72.3667 24.2686 73.116 23.8404 73.6415 22.8672C73.661 22.8283 73.6804 22.7797 73.6999 22.7213C73.7388 22.6434 73.768 22.585 73.7875 22.5461C74.1183 21.826 74.313 20.9307 74.3714 19.8602C74.4492 18.887 74.3422 17.836 74.0502 16.7072C73.8167 15.8118 73.3787 15.1404 72.7365 14.6927C72.2304 14.3424 71.6173 14.2645 70.8972 14.4592C70.5468 14.5759 70.2257 14.79 69.9338 15.1014C69.8559 15.1793 69.7781 15.335 69.7002 15.5686C69.6807 15.6269 69.6613 15.7243 69.6418 15.8605C69.6418 15.9967 69.6418 16.0941 69.6418 16.1525C69.6418 17.4565 69.6223 19.4125 69.5834 22.0206C69.564 22.7213 69.8364 23.383 70.4009 24.0058ZM68.9995 8.82455C68.4156 8.61045 67.8999 8.62019 67.4522 8.85374C67.4522 8.95106 67.4425 9.09703 67.423 9.29166C67.423 9.4863 67.423 9.62254 67.423 9.70039C67.4425 10.7709 67.4522 12.3766 67.4522 14.5175C67.4522 15.7827 67.4327 16.5904 67.3938 16.9407C67.3549 17.291 67.3062 18.3323 67.2478 20.0645V21.5827C67.2284 21.7384 67.2089 21.9914 67.1895 22.3417C67.17 22.6921 67.1603 22.9451 67.1603 23.1008C67.1603 23.1592 67.1505 23.2468 67.1311 23.3635C67.1311 23.4803 67.1311 23.5776 67.1311 23.6555C67.1311 23.7139 67.1408 23.8015 67.1603 23.9182C67.1797 24.0156 67.2187 24.1031 67.277 24.181C67.3549 24.181 67.5301 24.2102 67.8025 24.2686C68.0945 24.3075 68.328 24.3172 68.5032 24.2978C68.6978 24.2589 68.8828 24.181 69.0579 24.0642C69.0579 24.0448 69.0482 24.0058 69.0287 23.9474C69.0287 23.8696 69.019 23.8209 68.9995 23.8015C68.7854 23.4317 68.6784 22.8867 68.6784 22.1666C68.6784 21.6994 68.6784 20.989 68.6784 20.0354C68.6784 19.0817 68.6881 18.3615 68.7076 17.8749C68.7076 17.7776 68.7076 17.6511 68.7076 17.4954C68.727 17.3397 68.7368 17.2132 68.7368 17.1159C68.7368 17.0186 68.7465 16.8531 68.766 16.6196C68.7854 16.386 68.8049 16.2206 68.8244 16.1233C68.8827 15.3058 68.9119 14.8873 68.9119 14.8679C68.9314 14.7316 68.9217 14.5273 68.8827 14.2548C68.8438 13.9628 68.8438 13.7487 68.8827 13.6125V13.3497C68.9217 12.688 68.9606 11.6759 68.9995 10.3135V8.82455ZM74.6341 23.3052C75.1012 23.0911 75.4321 22.8575 75.6267 22.6045C76.1522 21.9427 76.522 21.1642 76.7361 20.2689C76.9113 19.5098 76.9697 18.9746 76.9113 18.6632C76.6972 17.3008 76.3955 16.1427 76.0063 15.189C75.7922 14.7024 75.471 14.3618 75.0428 14.1672C74.4979 13.8753 74.0016 13.7974 73.5539 13.9337C73.7096 14.1672 73.8167 14.3132 73.875 14.3716C74.3616 14.8192 74.7217 15.4712 74.9552 16.3276C75.1304 17.0672 75.218 17.6998 75.218 18.2253V20.5025C75.218 20.7944 75.1888 21.0766 75.1304 21.3491C75.072 21.5827 74.9844 21.9233 74.8677 22.3709C74.7509 22.8186 74.673 23.13 74.6341 23.3052Z" fill="white"/>
<path d="M82.0721 15.7144C82.4808 16.2789 83.0161 16.7654 83.6778 17.1742C83.9698 17.3688 84.4272 17.6413 85.05 17.9916C85.848 18.4782 86.5 18.9259 87.006 19.3346C87.7262 19.9769 88.1057 20.7943 88.1446 21.7869C88.1641 22.2346 87.9695 22.7796 87.5607 23.4218C87.405 23.6749 87.2299 23.8987 87.0352 24.0933C86.5876 24.5799 86.0913 24.8718 85.5463 24.9692C84.2812 25.2416 83.0842 25.339 81.9553 25.2611C81.0211 25.1833 80.3107 24.9692 79.8241 24.6188C79.6684 23.451 79.61 22.546 79.649 21.9037C79.7657 22.1178 79.8241 22.2443 79.8241 22.2832C80.0382 22.8671 80.4859 23.4316 81.1671 23.9765C81.5758 24.2879 82.0429 24.4631 82.5684 24.502H84.1741C84.7386 24.4826 85.1473 24.1906 85.4003 23.6262L85.6339 22.9255C85.6339 22.2443 85.3419 21.6896 84.758 21.2614C84.4077 20.9889 84.0087 20.7262 83.561 20.4732C83.3859 20.3759 83.1134 20.2396 82.7436 20.0644C82.3738 19.8698 82.1013 19.7238 81.9261 19.6265C81.0892 19.1789 80.4859 18.6047 80.1161 17.904C79.863 17.4369 79.7365 17.0379 79.7365 16.7071V16.0356C79.7365 15.1208 80.0577 14.3715 80.7 13.7876C81.0503 13.4372 81.4298 13.2231 81.8386 13.1453C82.4225 13.009 82.9285 12.9409 83.3567 12.9409C83.8238 12.9604 84.5245 12.9701 85.4587 12.9701C86.0426 12.9701 86.6168 13.1453 87.1812 13.4956C87.3953 14.3325 87.405 15.2084 87.2104 16.1232C87.1325 16.0648 87.0741 16.0064 87.0352 15.948C86.9184 15.6366 86.8406 15.403 86.8017 15.2473C86.5681 14.5272 86.1205 14.0017 85.4587 13.6708C84.8164 13.3204 84.1157 13.2231 83.3567 13.3788C82.6171 13.5151 82.1889 13.9822 82.0721 14.7802V15.7144ZM80.5832 16.1232C80.7194 17.3493 81.3228 18.2252 82.3933 18.7507C82.5295 18.8091 82.7923 18.9453 83.1815 19.1594C83.5902 19.3735 83.9017 19.5292 84.1157 19.6265C84.797 19.9574 85.4392 20.4634 86.0426 21.1446C86.3345 21.4755 86.4805 21.8259 86.4805 22.1957C86.4805 22.3319 86.5 22.5557 86.5389 22.8671C86.7919 22.692 86.9768 22.4389 87.0936 22.1081C87.2104 21.8551 87.2201 21.5826 87.1228 21.2906C86.8309 20.5705 86.4708 20.0839 86.0426 19.8309C85.9258 19.7725 85.7604 19.6752 85.5463 19.5389C85.3517 19.3832 85.2154 19.2762 85.1376 19.2178C84.7678 18.9842 84.1936 18.6339 83.4151 18.1668C82.948 17.9138 82.3738 17.4661 81.6926 16.8238C81.2839 16.3762 81.099 15.9188 81.1379 15.4517C81.1379 15.2765 81.0892 15.1695 80.9919 15.1305C80.8557 15.2279 80.7584 15.4128 80.7 15.6852C80.6416 15.9383 80.6027 16.0842 80.5832 16.1232Z" fill="white"/>
<path d="M97.4947 23.9474C97.5725 24.2005 97.4849 24.434 97.2319 24.6481C96.7648 24.9985 96.2004 25.2223 95.5386 25.3196C94.3514 25.4948 93.2322 25.2028 92.1812 24.4438C91.9087 24.2686 91.7141 24.0448 91.5973 23.7723C91.3832 23.3246 91.2664 22.8867 91.247 22.4585C91.2275 22.2833 91.2178 22.0011 91.2178 21.6119C91.1789 20.5219 91.1399 19.685 91.101 19.1011C91.0621 18.6924 91.0426 17.7582 91.0426 16.2984C91.0426 15.9286 91.0426 15.3739 91.0426 14.6343C91.0621 13.8753 91.0718 13.3108 91.0718 12.941C91.0718 12.5323 91.0426 12.2598 90.9842 12.1236C90.8869 12.0263 90.7409 11.9776 90.5463 11.9776C90.3517 11.9581 90.2154 11.9387 90.1376 11.9192C89.9624 11.744 89.9722 11.5397 90.1668 11.3061C90.3614 11.2867 90.6242 11.238 90.955 11.1601C91.0134 11.0628 91.0524 10.946 91.0718 10.8098C91.0913 10.6736 91.0913 10.5568 91.0718 10.4595C91.0718 10.3427 91.0816 10.2162 91.101 10.0799C91.101 10.0605 91.1302 9.69068 91.1886 8.97054L91.2762 7.94873C91.393 7.87087 91.4513 7.83195 91.4513 7.83195C91.6071 7.79302 91.7141 7.77356 91.7725 7.77356C92.1034 7.79302 92.5899 7.81249 93.2322 7.83195C93.8745 7.83195 94.3611 7.83195 94.692 7.83195C94.7893 8.1239 94.8379 8.2796 94.8379 8.29906C94.8379 8.39638 94.8282 8.55209 94.8087 8.76618C94.8087 8.96081 94.8087 9.11652 94.8087 9.2333C94.7893 9.6031 94.7795 10.1578 94.7795 10.8974C94.7795 10.9752 94.8185 11.092 94.8963 11.2477C95.1883 11.345 95.5873 11.384 96.0933 11.3645C96.5993 11.345 96.9983 11.3645 97.2903 11.4229C97.2903 11.4424 97.3 11.4716 97.3195 11.5105C97.3584 11.5299 97.3779 11.5494 97.3779 11.5689C97.3973 11.6467 97.4071 11.7635 97.4071 11.9192C97.1346 11.9776 96.7161 12.0068 96.1517 12.0068C95.5873 11.9873 95.1688 12.0068 94.8963 12.0652C94.8963 12.1236 94.8769 12.2306 94.8379 12.3863C94.799 12.5226 94.7795 12.6393 94.7795 12.7367C94.7406 12.8924 94.7212 13.1454 94.7212 13.4957V21.4951C94.7017 21.8843 94.7601 22.3612 94.8963 22.9256C95.0715 23.7042 95.5678 24.0545 96.3853 23.9766C97.0081 23.9182 97.3779 23.9085 97.4947 23.9474ZM93.8453 8.70779C93.0279 8.62994 92.444 8.63967 92.0936 8.73698C92.0547 8.93162 92.0352 9.04839 92.0352 9.08732C91.9963 10.4108 91.9769 11.3937 91.9769 12.036C91.9574 12.5615 91.9477 13.0286 91.9477 13.4373C91.9671 13.8461 91.9671 14.3035 91.9477 14.8095C91.9477 15.3155 91.9282 15.7729 91.8893 16.1816C91.8503 16.9796 91.8601 17.5733 91.9185 17.9625C91.9574 18.235 91.9963 19.0427 92.0352 20.3857C92.0352 21.0474 92.0742 21.6411 92.152 22.1666C92.2104 22.6531 92.3758 23.1105 92.6483 23.5387C93.1544 23.8696 93.4755 24.0642 93.6118 24.1226C93.7675 24.181 94.001 24.2297 94.3124 24.2686C94.3514 24.1907 94.3611 24.1421 94.3416 24.1226C94.0886 23.7528 93.9426 23.2468 93.9037 22.6045C93.7869 21.1253 93.748 20.0256 93.7869 19.3055L93.8745 16.9407C93.894 16.1038 93.9037 14.8387 93.9037 13.1454C93.9037 11.4521 93.9134 10.187 93.9329 9.35007C93.9329 9.27222 93.9134 9.16517 93.8745 9.02893C93.855 8.87323 93.8453 8.76618 93.8453 8.70779Z" fill="white"/>
<path d="M103.948 14.7511C104.669 14.2451 105.116 13.9434 105.291 13.8461C106.42 13.2038 107.724 12.941 109.203 13.0578C109.457 13.0772 109.71 13.1843 109.963 13.3789C110.099 13.5736 110.138 13.7876 110.079 14.0212C110.021 14.2548 109.894 14.4397 109.7 14.5759C109.272 14.9068 108.785 15.1014 108.24 15.1598C108.201 15.1404 108.123 15.1112 108.006 15.0722C107.909 15.0333 107.812 14.9944 107.715 14.9555C107.637 14.9165 107.559 14.8776 107.481 14.8387C106.683 14.4105 105.875 14.4105 105.058 14.8387C104.63 15.0528 104.231 15.3837 103.861 15.8313C103.841 15.9481 103.832 16.1525 103.832 16.4444C103.832 19.3444 103.841 21.5146 103.861 22.9548C103.861 23.2273 103.91 23.7528 104.007 24.5313C104.124 24.7065 104.328 24.8525 104.62 24.9693C104.912 25.0666 105.077 25.1347 105.116 25.1736C105.038 25.2515 104.98 25.3001 104.941 25.3196C104.902 25.3585 104.853 25.3585 104.795 25.3196C104.367 25.2612 103.579 25.2612 102.43 25.3196C101.282 25.3585 100.494 25.3683 100.066 25.3488C99.9876 25.3293 99.8709 25.3196 99.7151 25.3196C99.5789 25.3001 99.4719 25.2904 99.394 25.2904C99.394 25.1736 99.4037 25.086 99.4232 25.0276C99.8125 24.8719 100.095 24.7552 100.27 24.6773C100.309 24.6578 100.357 24.6189 100.416 24.5605C100.572 24.1129 100.649 23.5095 100.649 22.7505C100.669 22.2055 100.679 21.3783 100.679 20.2689C100.679 19.1595 100.688 18.3226 100.708 17.7582L100.795 15.3934C100.795 15.2377 100.776 14.9847 100.737 14.6343C100.698 14.2061 100.474 13.9142 100.066 13.7585C100.027 13.739 99.9682 13.7195 99.8903 13.7001C99.8125 13.6806 99.7443 13.6514 99.686 13.6125C99.6276 13.5736 99.5886 13.5249 99.5692 13.4665C99.5497 13.4665 99.54 13.447 99.54 13.4081C99.5789 13.3303 99.6081 13.2913 99.6276 13.2913C100.173 13.1356 100.679 13.0675 101.146 13.087C101.34 13.087 101.613 13.0772 101.963 13.0578C102.314 13.0189 102.635 12.9994 102.927 12.9994C103.219 12.9994 103.491 13.0286 103.744 13.087C103.802 13.2621 103.832 13.5346 103.832 13.9045C103.832 14.2743 103.871 14.5565 103.948 14.7511ZM102.927 24.327C102.946 24.2686 102.966 24.2102 102.985 24.1518L103.014 24.0934C103.014 23.8599 103.004 23.383 102.985 22.6629C102.985 21.9233 102.975 21.3588 102.956 20.9696C102.878 19.432 102.878 17.8847 102.956 16.3276C102.995 15.8994 103.014 15.2571 103.014 14.4008C103.014 14.3229 102.995 14.2353 102.956 14.138C102.917 14.0212 102.897 13.9531 102.897 13.9337C102.372 13.8558 101.983 13.8947 101.73 14.0504C101.671 14.1477 101.632 14.2548 101.613 14.3716C101.613 14.4884 101.613 14.5954 101.613 14.6927C101.632 14.7706 101.632 14.8679 101.613 14.9847C101.613 17.5343 101.603 19.4515 101.584 20.736C101.584 21.1837 101.574 21.4562 101.554 21.5535L101.467 24.0058C101.467 24.0448 101.477 24.1031 101.496 24.181C101.535 24.2589 101.554 24.3172 101.554 24.3562C102.216 24.3951 102.674 24.3854 102.927 24.327ZM108.444 13.9337H108.415L108.386 13.9628L108.415 13.992C108.435 13.992 108.454 13.992 108.474 13.992C108.454 13.9726 108.444 13.9531 108.444 13.9337Z" fill="white"/>
<path d="M46.693 19.3638C46.4594 20.1228 46.1285 21.2614 45.7003 22.7796C45.642 22.9936 45.6128 23.3245 45.6128 23.7722C45.6128 24.0641 45.7393 24.2685 45.9923 24.3853C46.3621 24.541 46.6249 24.6383 46.7806 24.6772C47.2477 24.7551 47.7148 24.8135 48.1819 24.8524C48.4739 24.8913 48.902 24.9108 49.4665 24.9108C49.6416 24.9497 49.7584 25.0275 49.8168 25.1443C49.7195 25.2416 49.6611 25.2903 49.6416 25.2903C49.4859 25.3098 49.2621 25.3195 48.9702 25.3195H41.7883C41.3601 25.3195 41.0973 25.2903 41 25.2319C41.0195 25.0957 41.146 25.0081 41.3795 24.9692C41.5158 24.9302 41.7104 24.8913 41.9634 24.8524C42.2165 24.8135 42.4111 24.7745 42.5473 24.7356C42.6252 24.7161 42.7225 24.6869 42.8393 24.648C42.9561 24.6091 43.0436 24.5896 43.102 24.5896C43.4913 24.4534 43.7735 24.1906 43.9487 23.8014C43.9681 23.743 43.9973 23.6554 44.0363 23.5386C44.0752 23.4024 44.1044 23.3051 44.1238 23.2467C44.2017 23.0131 44.445 22.2832 44.8537 21.0571C45.2624 19.8114 45.5738 18.8577 45.7879 18.196C45.8853 17.8651 46.041 17.3104 46.2551 16.5319C46.4886 15.7339 46.6735 15.1305 46.8098 14.7218C47.5104 12.2695 47.9581 10.7611 48.1527 10.1967C48.2889 9.72954 48.4641 9.0678 48.6782 8.21142C48.8923 7.33558 49.048 6.74195 49.1453 6.43054C49.2037 6.09967 49.1453 5.82718 48.9702 5.61309C48.795 5.49631 48.5225 5.44765 48.1527 5.46712C47.7829 5.48658 47.491 5.45739 47.2769 5.37953C47.2963 5.26275 47.3742 5.1849 47.5104 5.14597C48.542 5.04866 49.1648 5 49.3789 5C49.7681 5 51.0041 5.01946 53.0866 5.05839C53.2423 5.05839 53.4564 5.07785 53.7289 5.11678C54.0208 5.13624 54.2057 5.14597 54.2836 5.14597L54.5463 5.67148C54.7799 6.13859 55.0232 6.70303 55.2762 7.36477C55.4708 7.81243 55.6363 8.23088 55.7725 8.62015L57.6118 13.5249C58.3514 15.5685 58.8088 16.9503 58.9839 17.6705C59.0229 17.8846 59.1591 18.3128 59.3927 18.955L60.8816 23.2467C61.0373 23.7332 61.2222 24.0836 61.4363 24.2977C61.6115 24.4145 61.884 24.5118 62.2538 24.5896C62.643 24.6675 62.9155 24.7551 63.0712 24.8524C63.1685 25.0081 63.1296 25.1541 62.9544 25.2903C62.9155 25.2903 62.8376 25.3 62.7209 25.3195C62.6041 25.3195 62.5068 25.3195 62.4289 25.3195C62.0202 25.339 61.4168 25.3487 60.6189 25.3487C59.8209 25.3682 59.2175 25.3779 58.8088 25.3779C57.7188 25.3779 56.9111 25.4071 56.3856 25.4655C55.7433 25.5433 55.2665 25.5433 54.9551 25.4655L54.8383 25.2319C54.8772 25.1541 54.9064 25.1054 54.9259 25.0859C55.0037 25.0275 55.0816 24.9886 55.1594 24.9692C55.2373 24.9302 55.3346 24.9108 55.4514 24.9108C55.5876 24.9108 55.6849 24.901 55.7433 24.8816C55.9964 24.8426 56.2396 24.7843 56.4732 24.7064C56.7262 24.6091 56.8722 24.4242 56.9111 24.1517C56.8722 23.996 56.8235 23.8306 56.7651 23.6554C56.7262 23.4802 56.6386 23.1883 56.5024 22.7796C56.3662 22.3514 56.2688 22.0205 56.2104 21.7869C56.1131 21.4561 55.8406 20.697 55.393 19.5097C55.3151 19.3151 55.2081 19.1205 55.0719 18.9258C55.0329 18.9258 54.9745 18.9064 54.8967 18.8675C54.8188 18.8285 54.7604 18.8091 54.7215 18.8091C54.488 18.8285 54.1279 18.8383 53.6413 18.8383C53.1547 18.8383 52.7849 18.848 52.5319 18.8675C52.2594 18.8675 51.8702 18.8869 51.3641 18.9258C50.099 18.9842 49.34 19.0329 49.0869 19.0718C48.9507 19.0913 48.5322 19.101 47.8316 19.101C47.2866 19.1399 46.9071 19.2275 46.693 19.3638ZM60.2101 24.3269C59.5678 22.4584 59.1007 21.0765 58.8088 20.1812C58.4195 19.0329 58.186 18.342 58.1081 18.1084C57.8745 17.2326 57.3782 15.7436 56.6192 13.6416C55.8406 11.6564 55.4125 10.5567 55.3346 10.3426C54.9259 9.07753 54.4101 7.76377 53.7873 6.40135C53.7678 6.36242 53.7386 6.32349 53.6997 6.28457C53.6608 6.22618 53.6218 6.17752 53.5829 6.1386C53.5635 6.08021 53.544 6.02182 53.5245 5.96343C53.1742 5.94396 52.639 5.93423 51.9188 5.93423C51.1987 5.91477 50.6635 5.88557 50.3131 5.84665C50.2937 5.84665 50.2547 5.86611 50.1963 5.90504L50.1088 5.96343C49.992 6.23591 50.0114 6.48893 50.1671 6.72249C50.2645 6.74195 50.5369 6.78088 50.9846 6.83927C51.4712 7.15068 51.802 7.67618 51.9772 8.41578C52.2108 9.33055 52.5903 10.3329 53.1158 11.4228C53.2131 11.6564 53.4175 12.1235 53.7289 12.8242C54.0403 13.5054 54.2836 14.0406 54.4588 14.4299C54.4977 14.5466 54.7312 15.1792 55.1594 16.3275C55.5292 17.145 55.7044 17.7289 55.6849 18.0792C55.9574 18.4685 56.1229 18.7312 56.1813 18.8675C56.2786 19.0232 56.3856 19.2762 56.5024 19.6265C56.6386 20.0158 56.8235 20.5997 57.0571 21.3782C57.2907 22.1373 57.4756 22.7114 57.6118 23.1007C57.7286 23.4121 57.787 23.7332 57.787 24.0641C57.8064 24.1225 57.8259 24.1906 57.8454 24.2685C57.8843 24.3463 57.9037 24.4047 57.9037 24.4437C58.1762 24.502 58.5363 24.541 58.9839 24.5604C59.4316 24.5604 59.7527 24.541 59.9474 24.502C60.0058 24.4631 60.0933 24.4047 60.2101 24.3269ZM54.8091 17.904C54.4977 17.3007 54.1474 16.4346 53.7581 15.3057C53.7386 15.2862 53.7192 15.2473 53.6997 15.1889C53.6802 15.1305 53.6705 15.0916 53.6705 15.0721C52.7947 13.1453 52.2594 11.9678 52.0648 11.5396C51.695 10.7611 51.4128 10.002 51.2182 9.26243C51.0624 8.75639 50.9359 8.37686 50.8386 8.12384C50.7608 7.87081 50.6245 7.73457 50.4299 7.71511C50.2937 7.98759 50.2158 8.15303 50.1963 8.21142C50.1379 8.36713 50.0601 8.60068 49.9628 8.91209C49.8655 9.20404 49.7973 9.42787 49.7584 9.58357C49.739 9.64196 49.7 9.73928 49.6416 9.87552C49.6027 9.9923 49.5735 10.0799 49.5541 10.1383C49.4957 10.3718 49.3886 10.7222 49.2329 11.1893C49.0772 11.6564 48.9702 12.0067 48.9118 12.2403C48.4252 13.6806 48.1138 14.644 47.9775 15.1305C47.5883 16.5124 47.3353 17.3688 47.2185 17.6997C47.199 17.7191 47.1698 17.8651 47.1309 18.1376C47.4034 18.2154 47.5688 18.2544 47.6272 18.2544C49.2232 18.3322 51.1598 18.2641 53.4369 18.05C53.6121 18.05 53.8943 18.0305 54.2836 17.9916C54.3809 17.9916 54.5561 17.9624 54.8091 17.904Z" stroke="white" stroke-width="0.847991"/>
<path d="M65.175 8.32824C65.175 8.23092 65.1653 8.14334 65.1458 8.06549C65.1848 8.06549 65.2918 8.03629 65.467 7.9779C65.6421 7.91951 65.7784 7.89032 65.8757 7.89032C67.0824 7.83193 68.2697 7.80273 69.4375 7.80273C69.4569 7.80273 69.564 7.8222 69.7586 7.86112C69.817 8.07522 69.8462 8.58126 69.8462 9.37925V10.8974C69.8462 11.0725 69.8364 11.3353 69.817 11.6856C69.817 12.0165 69.817 12.2598 69.817 12.4155C69.7781 13.0967 69.7781 13.5833 69.817 13.8753C69.9143 13.9531 70.0311 13.9531 70.1673 13.8753C70.2841 13.8168 70.4495 13.7195 70.6636 13.5833C70.8972 13.4471 71.0724 13.3497 71.1891 13.2913C71.6757 13.0383 72.2207 12.9118 72.824 12.9118C73.914 12.9702 74.5271 13.0091 74.6633 13.0286C75.7143 13.2038 76.4636 13.7779 76.9113 14.7511C77.0475 15.1014 77.1546 15.4129 77.2324 15.6853C77.3298 16.0941 77.3881 16.3179 77.4076 16.3568C77.6801 17.1353 77.7969 18.1864 77.7579 19.5098C77.7385 20.8723 77.2908 22.0887 76.415 23.1592C76.2009 23.4511 75.9089 23.7139 75.5391 23.9474C74.5076 24.7065 73.4858 25.125 72.4737 25.2028C72.318 25.2028 72.0358 25.232 71.6271 25.2904C71.2378 25.3293 70.9361 25.3488 70.722 25.3488C70.0408 25.3099 69.6418 25.2417 69.525 25.1444C69.0579 25.1444 68.367 25.1542 67.4522 25.1736C66.5569 25.1736 65.8854 25.1834 65.4378 25.2028C65.3794 25.2028 65.2626 25.1736 65.0874 25.1152C64.9901 24.979 64.9999 24.8719 65.1166 24.7941C65.1945 24.7552 65.3015 24.7065 65.4378 24.6481C65.574 24.5897 65.6713 24.5411 65.7297 24.5021C65.7881 24.4632 65.866 24.4048 65.9633 24.327C66.0801 24.2491 66.1676 24.1907 66.226 24.1518C66.265 23.8793 66.2844 23.6847 66.2844 23.5679C66.3039 23.4122 66.3136 23.1884 66.3136 22.8964C66.4109 18.8481 66.4791 16.5709 66.518 16.0649C66.5764 15.2863 66.6056 13.3205 66.6056 10.1675C66.6056 9.99234 66.5861 9.71012 66.5472 9.32086C66.4888 9.02891 66.4012 8.82455 66.2844 8.70777C66.1871 8.59099 65.9925 8.50341 65.7005 8.44502C65.6032 8.44502 65.4572 8.42555 65.2626 8.38663C65.2431 8.36716 65.2139 8.3477 65.175 8.32824ZM70.4009 24.0058C70.8291 24.0837 71.1599 24.1323 71.3935 24.1518C72.3667 24.2686 73.116 23.8404 73.6415 22.8672C73.661 22.8283 73.6804 22.7797 73.6999 22.7213C73.7388 22.6434 73.768 22.585 73.7875 22.5461C74.1183 21.826 74.313 20.9307 74.3714 19.8602C74.4492 18.887 74.3422 17.836 74.0502 16.7072C73.8167 15.8118 73.3787 15.1404 72.7365 14.6927C72.2304 14.3424 71.6173 14.2645 70.8972 14.4592C70.5468 14.5759 70.2257 14.79 69.9338 15.1014C69.8559 15.1793 69.7781 15.335 69.7002 15.5686C69.6807 15.6269 69.6613 15.7243 69.6418 15.8605C69.6418 15.9967 69.6418 16.0941 69.6418 16.1525C69.6418 17.4565 69.6223 19.4125 69.5834 22.0206C69.564 22.7213 69.8364 23.383 70.4009 24.0058ZM68.9995 8.82455C68.4156 8.61045 67.8999 8.62019 67.4522 8.85374C67.4522 8.95106 67.4425 9.09703 67.423 9.29166C67.423 9.4863 67.423 9.62254 67.423 9.70039C67.4425 10.7709 67.4522 12.3766 67.4522 14.5175C67.4522 15.7827 67.4327 16.5904 67.3938 16.9407C67.3549 17.291 67.3062 18.3323 67.2478 20.0645V21.5827C67.2284 21.7384 67.2089 21.9914 67.1895 22.3417C67.17 22.6921 67.1603 22.9451 67.1603 23.1008C67.1603 23.1592 67.1505 23.2468 67.1311 23.3635C67.1311 23.4803 67.1311 23.5776 67.1311 23.6555C67.1311 23.7139 67.1408 23.8015 67.1603 23.9182C67.1797 24.0156 67.2187 24.1031 67.277 24.181C67.3549 24.181 67.5301 24.2102 67.8025 24.2686C68.0945 24.3075 68.328 24.3172 68.5032 24.2978C68.6978 24.2589 68.8828 24.181 69.0579 24.0642C69.0579 24.0448 69.0482 24.0058 69.0287 23.9474C69.0287 23.8696 69.019 23.8209 68.9995 23.8015C68.7854 23.4317 68.6784 22.8867 68.6784 22.1666C68.6784 21.6994 68.6784 20.989 68.6784 20.0354C68.6784 19.0817 68.6881 18.3615 68.7076 17.8749C68.7076 17.7776 68.7076 17.6511 68.7076 17.4954C68.727 17.3397 68.7368 17.2132 68.7368 17.1159C68.7368 17.0186 68.7465 16.8531 68.766 16.6196C68.7854 16.386 68.8049 16.2206 68.8244 16.1233C68.8827 15.3058 68.9119 14.8873 68.9119 14.8679C68.9314 14.7316 68.9217 14.5273 68.8827 14.2548C68.8438 13.9628 68.8438 13.7487 68.8827 13.6125V13.3497C68.9217 12.688 68.9606 11.6759 68.9995 10.3135V8.82455ZM74.6341 23.3052C75.1012 23.0911 75.4321 22.8575 75.6267 22.6045C76.1522 21.9427 76.522 21.1642 76.7361 20.2689C76.9113 19.5098 76.9697 18.9746 76.9113 18.6632C76.6972 17.3008 76.3955 16.1427 76.0063 15.189C75.7922 14.7024 75.471 14.3618 75.0428 14.1672C74.4979 13.8753 74.0016 13.7974 73.5539 13.9337C73.7096 14.1672 73.8167 14.3132 73.875 14.3716C74.3616 14.8192 74.7217 15.4712 74.9552 16.3276C75.1304 17.0672 75.218 17.6998 75.218 18.2253V20.5025C75.218 20.7944 75.1888 21.0766 75.1304 21.3491C75.072 21.5827 74.9844 21.9233 74.8677 22.3709C74.7509 22.8186 74.673 23.13 74.6341 23.3052Z" stroke="white" stroke-width="0.847991"/>
<path d="M82.0721 15.7144C82.4808 16.2789 83.0161 16.7654 83.6778 17.1742C83.9698 17.3688 84.4272 17.6413 85.05 17.9916C85.848 18.4782 86.5 18.9259 87.006 19.3346C87.7262 19.9769 88.1057 20.7943 88.1446 21.7869C88.1641 22.2346 87.9695 22.7796 87.5607 23.4218C87.405 23.6749 87.2299 23.8987 87.0352 24.0933C86.5876 24.5799 86.0913 24.8718 85.5463 24.9692C84.2812 25.2416 83.0842 25.339 81.9553 25.2611C81.0211 25.1833 80.3107 24.9692 79.8241 24.6188C79.6684 23.451 79.61 22.546 79.649 21.9037C79.7657 22.1178 79.8241 22.2443 79.8241 22.2832C80.0382 22.8671 80.4859 23.4316 81.1671 23.9765C81.5758 24.2879 82.0429 24.4631 82.5684 24.502H84.1741C84.7386 24.4826 85.1473 24.1906 85.4003 23.6262L85.6339 22.9255C85.6339 22.2443 85.3419 21.6896 84.758 21.2614C84.4077 20.9889 84.0087 20.7262 83.561 20.4732C83.3859 20.3759 83.1134 20.2396 82.7436 20.0644C82.3738 19.8698 82.1013 19.7238 81.9261 19.6265C81.0892 19.1789 80.4859 18.6047 80.1161 17.904C79.863 17.4369 79.7365 17.0379 79.7365 16.7071V16.0356C79.7365 15.1208 80.0577 14.3715 80.7 13.7876C81.0503 13.4372 81.4298 13.2231 81.8386 13.1453C82.4225 13.009 82.9285 12.9409 83.3567 12.9409C83.8238 12.9604 84.5245 12.9701 85.4587 12.9701C86.0426 12.9701 86.6168 13.1453 87.1812 13.4956C87.3953 14.3325 87.405 15.2084 87.2104 16.1232C87.1325 16.0648 87.0741 16.0064 87.0352 15.948C86.9184 15.6366 86.8406 15.403 86.8017 15.2473C86.5681 14.5272 86.1205 14.0017 85.4587 13.6708C84.8164 13.3204 84.1157 13.2231 83.3567 13.3788C82.6171 13.5151 82.1889 13.9822 82.0721 14.7802V15.7144ZM80.5832 16.1232C80.7194 17.3493 81.3228 18.2252 82.3933 18.7507C82.5295 18.8091 82.7923 18.9453 83.1815 19.1594C83.5902 19.3735 83.9017 19.5292 84.1157 19.6265C84.797 19.9574 85.4392 20.4634 86.0426 21.1446C86.3345 21.4755 86.4805 21.8259 86.4805 22.1957C86.4805 22.3319 86.5 22.5557 86.5389 22.8671C86.7919 22.692 86.9768 22.4389 87.0936 22.1081C87.2104 21.8551 87.2201 21.5826 87.1228 21.2906C86.8309 20.5705 86.4708 20.0839 86.0426 19.8309C85.9258 19.7725 85.7604 19.6752 85.5463 19.5389C85.3517 19.3832 85.2154 19.2762 85.1376 19.2178C84.7678 18.9842 84.1936 18.6339 83.4151 18.1668C82.948 17.9138 82.3738 17.4661 81.6926 16.8238C81.2839 16.3762 81.099 15.9188 81.1379 15.4517C81.1379 15.2765 81.0892 15.1695 80.9919 15.1305C80.8557 15.2279 80.7584 15.4128 80.7 15.6852C80.6416 15.9383 80.6027 16.0842 80.5832 16.1232Z" stroke="white" stroke-width="0.847991"/>
<path d="M97.4947 23.9474C97.5725 24.2005 97.4849 24.434 97.2319 24.6481C96.7648 24.9985 96.2004 25.2223 95.5386 25.3196C94.3514 25.4948 93.2322 25.2028 92.1812 24.4438C91.9087 24.2686 91.7141 24.0448 91.5973 23.7723C91.3832 23.3246 91.2664 22.8867 91.247 22.4585C91.2275 22.2833 91.2178 22.0011 91.2178 21.6119C91.1789 20.5219 91.1399 19.685 91.101 19.1011C91.0621 18.6924 91.0426 17.7582 91.0426 16.2984C91.0426 15.9286 91.0426 15.3739 91.0426 14.6343C91.0621 13.8753 91.0718 13.3108 91.0718 12.941C91.0718 12.5323 91.0426 12.2598 90.9842 12.1236C90.8869 12.0263 90.7409 11.9776 90.5463 11.9776C90.3517 11.9581 90.2154 11.9387 90.1376 11.9192C89.9624 11.744 89.9722 11.5397 90.1668 11.3061C90.3614 11.2867 90.6242 11.238 90.955 11.1601C91.0134 11.0628 91.0524 10.946 91.0718 10.8098C91.0913 10.6736 91.0913 10.5568 91.0718 10.4595C91.0718 10.3427 91.0816 10.2162 91.101 10.0799C91.101 10.0605 91.1302 9.69068 91.1886 8.97054L91.2762 7.94873C91.393 7.87087 91.4513 7.83195 91.4513 7.83195C91.6071 7.79302 91.7141 7.77356 91.7725 7.77356C92.1034 7.79302 92.5899 7.81249 93.2322 7.83195C93.8745 7.83195 94.3611 7.83195 94.692 7.83195C94.7893 8.1239 94.8379 8.2796 94.8379 8.29906C94.8379 8.39638 94.8282 8.55209 94.8087 8.76618C94.8087 8.96081 94.8087 9.11652 94.8087 9.2333C94.7893 9.6031 94.7795 10.1578 94.7795 10.8974C94.7795 10.9752 94.8185 11.092 94.8963 11.2477C95.1883 11.345 95.5873 11.384 96.0933 11.3645C96.5993 11.345 96.9983 11.3645 97.2903 11.4229C97.2903 11.4424 97.3 11.4716 97.3195 11.5105C97.3584 11.5299 97.3779 11.5494 97.3779 11.5689C97.3973 11.6467 97.4071 11.7635 97.4071 11.9192C97.1346 11.9776 96.7161 12.0068 96.1517 12.0068C95.5873 11.9873 95.1688 12.0068 94.8963 12.0652C94.8963 12.1236 94.8769 12.2306 94.8379 12.3863C94.799 12.5226 94.7795 12.6393 94.7795 12.7367C94.7406 12.8924 94.7212 13.1454 94.7212 13.4957V21.4951C94.7017 21.8843 94.7601 22.3612 94.8963 22.9256C95.0715 23.7042 95.5678 24.0545 96.3853 23.9766C97.0081 23.9182 97.3779 23.9085 97.4947 23.9474ZM93.8453 8.70779C93.0279 8.62994 92.444 8.63967 92.0936 8.73698C92.0547 8.93162 92.0352 9.04839 92.0352 9.08732C91.9963 10.4108 91.9769 11.3937 91.9769 12.036C91.9574 12.5615 91.9477 13.0286 91.9477 13.4373C91.9671 13.8461 91.9671 14.3035 91.9477 14.8095C91.9477 15.3155 91.9282 15.7729 91.8893 16.1816C91.8503 16.9796 91.8601 17.5733 91.9185 17.9625C91.9574 18.235 91.9963 19.0427 92.0352 20.3857C92.0352 21.0474 92.0742 21.6411 92.152 22.1666C92.2104 22.6531 92.3758 23.1105 92.6483 23.5387C93.1544 23.8696 93.4755 24.0642 93.6118 24.1226C93.7675 24.181 94.001 24.2297 94.3124 24.2686C94.3514 24.1907 94.3611 24.1421 94.3416 24.1226C94.0886 23.7528 93.9426 23.2468 93.9037 22.6045C93.7869 21.1253 93.748 20.0256 93.7869 19.3055L93.8745 16.9407C93.894 16.1038 93.9037 14.8387 93.9037 13.1454C93.9037 11.4521 93.9134 10.187 93.9329 9.35007C93.9329 9.27222 93.9134 9.16517 93.8745 9.02893C93.855 8.87323 93.8453 8.76618 93.8453 8.70779Z" stroke="white" stroke-width="0.847991"/>
<path d="M103.948 14.7511C104.669 14.2451 105.116 13.9434 105.291 13.8461C106.42 13.2038 107.724 12.941 109.203 13.0578C109.457 13.0772 109.71 13.1843 109.963 13.3789C110.099 13.5736 110.138 13.7876 110.079 14.0212C110.021 14.2548 109.894 14.4397 109.7 14.5759C109.272 14.9068 108.785 15.1014 108.24 15.1598C108.201 15.1404 108.123 15.1112 108.006 15.0722C107.909 15.0333 107.812 14.9944 107.715 14.9555C107.637 14.9165 107.559 14.8776 107.481 14.8387C106.683 14.4105 105.875 14.4105 105.058 14.8387C104.63 15.0528 104.231 15.3837 103.861 15.8313C103.841 15.9481 103.832 16.1525 103.832 16.4444C103.832 19.3444 103.841 21.5146 103.861 22.9548C103.861 23.2273 103.91 23.7528 104.007 24.5313C104.124 24.7065 104.328 24.8525 104.62 24.9693C104.912 25.0666 105.077 25.1347 105.116 25.1736C105.038 25.2515 104.98 25.3001 104.941 25.3196C104.902 25.3585 104.853 25.3585 104.795 25.3196C104.367 25.2612 103.579 25.2612 102.43 25.3196C101.282 25.3585 100.494 25.3683 100.066 25.3488C99.9876 25.3293 99.8709 25.3196 99.7151 25.3196C99.5789 25.3001 99.4719 25.2904 99.394 25.2904C99.394 25.1736 99.4037 25.086 99.4232 25.0276C99.8125 24.8719 100.095 24.7552 100.27 24.6773C100.309 24.6578 100.357 24.6189 100.416 24.5605C100.572 24.1129 100.649 23.5095 100.649 22.7505C100.669 22.2055 100.679 21.3783 100.679 20.2689C100.679 19.1595 100.688 18.3226 100.708 17.7582L100.795 15.3934C100.795 15.2377 100.776 14.9847 100.737 14.6343C100.698 14.2061 100.474 13.9142 100.066 13.7585C100.027 13.739 99.9682 13.7195 99.8903 13.7001C99.8125 13.6806 99.7443 13.6514 99.686 13.6125C99.6276 13.5736 99.5886 13.5249 99.5692 13.4665C99.5497 13.4665 99.54 13.447 99.54 13.4081C99.5789 13.3303 99.6081 13.2913 99.6276 13.2913C100.173 13.1356 100.679 13.0675 101.146 13.087C101.34 13.087 101.613 13.0772 101.963 13.0578C102.314 13.0189 102.635 12.9994 102.927 12.9994C103.219 12.9994 103.491 13.0286 103.744 13.087C103.802 13.2621 103.832 13.5346 103.832 13.9045C103.832 14.2743 103.871 14.5565 103.948 14.7511ZM102.927 24.327C102.946 24.2686 102.966 24.2102 102.985 24.1518L103.014 24.0934C103.014 23.8599 103.004 23.383 102.985 22.6629C102.985 21.9233 102.975 21.3588 102.956 20.9696C102.878 19.432 102.878 17.8847 102.956 16.3276C102.995 15.8994 103.014 15.2571 103.014 14.4008C103.014 14.3229 102.995 14.2353 102.956 14.138C102.917 14.0212 102.897 13.9531 102.897 13.9337C102.372 13.8558 101.983 13.8947 101.73 14.0504C101.671 14.1477 101.632 14.2548 101.613 14.3716C101.613 14.4884 101.613 14.5954 101.613 14.6927C101.632 14.7706 101.632 14.8679 101.613 14.9847C101.613 17.5343 101.603 19.4515 101.584 20.736C101.584 21.1837 101.574 21.4562 101.554 21.5535L101.467 24.0058C101.467 24.0448 101.477 24.1031 101.496 24.181C101.535 24.2589 101.554 24.3172 101.554 24.3562C102.216 24.3951 102.674 24.3854 102.927 24.327ZM108.444 13.9337H108.415L108.386 13.9628L108.415 13.992C108.435 13.992 108.454 13.992 108.474 13.992C108.454 13.9726 108.444 13.9531 108.444 13.9337Z" stroke="white" stroke-width="0.847991"/>
</g>
<mask id="mask1_193_240" style="mask-type:alpha" maskUnits="userSpaceOnUse" x="111" y="4" width="56" height="22">
<path d="M166.462 4H111.462V26H166.462V4Z" fill="white"/>
<path d="M127.993 25.3487C125.074 25.4655 123.595 25.5239 123.556 25.5239H113.25C113.094 25.5239 112.9 25.5044 112.666 25.4655C112.627 25.4655 112.559 25.3974 112.462 25.2611C112.501 25.2417 112.549 25.2125 112.608 25.1735C112.666 25.1346 112.715 25.1054 112.754 25.086C113.026 24.9886 113.435 24.8621 113.98 24.7064C114.544 24.5507 114.836 24.1907 114.856 23.6262C114.856 23.3537 114.875 22.9353 114.914 22.3709C114.953 21.8064 114.982 21.3782 115.002 21.0863C115.021 18.7312 115.031 15.189 115.031 10.4594C115.05 9.6225 115.041 8.35739 115.002 6.6641C115.002 6.58625 114.992 6.4792 114.973 6.34296C114.973 6.20671 114.973 6.11913 114.973 6.0802C114.836 5.84665 114.535 5.66175 114.068 5.5255C113.97 5.48658 113.814 5.46711 113.6 5.46711C113.386 5.44765 113.231 5.40873 113.133 5.35034C113.075 5.19463 113.124 5.09732 113.279 5.05839C113.357 5.01946 113.493 5 113.688 5H120.607C120.704 5 120.831 5.01946 120.987 5.05839C121.045 5.21409 121.006 5.31141 120.87 5.35034C120.831 5.3698 120.763 5.38926 120.666 5.40873C120.568 5.42819 120.5 5.44765 120.461 5.46711C120.111 5.56443 119.906 5.63255 119.848 5.67148C119.439 5.88557 119.225 6.19698 119.206 6.60571C119.206 6.78088 119.186 7.13121 119.147 7.65672C119.108 8.18222 119.089 8.59095 119.089 8.8829V16.2984C119.089 16.4735 119.108 16.7557 119.147 17.145V18.3128C119.05 19.539 119.021 21.3685 119.06 23.8014C119.06 23.8403 119.06 23.8987 119.06 23.9766C119.079 24.0544 119.089 24.1031 119.089 24.1225C119.264 24.3756 119.585 24.541 120.052 24.6188C120.928 24.6967 122.242 24.7356 123.994 24.7356C124.48 24.7356 124.977 24.6578 125.483 24.5021C125.989 24.3658 126.378 24.0641 126.65 23.597C127.04 22.838 127.264 22.3806 127.322 22.2249C127.38 22.0692 127.478 21.8356 127.614 21.5242C127.75 21.2128 127.847 20.9792 127.906 20.8235C127.964 20.6484 128.023 20.5316 128.081 20.4732C128.139 20.4148 128.276 20.337 128.49 20.2396C128.587 20.3953 128.636 20.4927 128.636 20.5316C128.675 20.6289 128.694 20.7943 128.694 21.0279C128.694 21.6896 128.675 22.7017 128.636 24.0641C128.636 24.2977 128.587 24.541 128.49 24.794C128.431 25.0276 128.266 25.2125 127.993 25.3487ZM118.126 24.5897C118.184 24.4339 118.213 24.0836 118.213 23.5386C118.213 21.7091 118.223 20.3272 118.242 19.393V7.83189C118.242 7.42316 118.252 7.11175 118.272 6.89766C118.272 6.80034 118.272 6.65437 118.272 6.45974C118.291 6.2651 118.301 6.11913 118.301 6.02181C117.911 5.86611 117.328 5.80772 116.549 5.84665C116.218 5.84665 115.985 5.93423 115.848 6.1094C115.848 7.5886 115.858 8.4839 115.878 8.79531C115.878 8.87317 115.887 8.98994 115.907 9.14565C115.926 9.30135 115.936 9.4376 115.936 9.55438C115.955 9.67115 115.965 9.78793 115.965 9.90471C115.907 12.2987 115.878 13.5054 115.878 13.5249C115.858 14.3812 115.839 15.6658 115.819 17.3786C115.819 19.0719 115.819 20.3467 115.819 21.2031C115.819 22.7212 115.78 23.7041 115.702 24.1517C115.683 24.1907 115.702 24.3172 115.761 24.5313C116.5 24.648 117.289 24.6675 118.126 24.5897ZM127.672 24.0058C127.536 24.1809 127.458 24.2782 127.439 24.2977C127.458 24.2977 127.478 24.3074 127.497 24.3269C127.517 24.3269 127.536 24.3269 127.556 24.3269C127.594 24.249 127.633 24.142 127.672 24.0058Z" fill="black"/>
<path d="M136.721 18.9842C136.799 18.9063 136.838 18.8382 136.838 18.7798C136.954 17.6704 136.867 16.5805 136.575 15.51C136.341 14.6536 135.738 14.206 134.765 14.167C133.616 14.0892 132.692 14.6147 131.991 15.7436C131.952 15.8019 131.855 15.9868 131.699 16.2983C131.485 16.415 131.32 16.4053 131.203 16.2691V16.0939C131.612 14.965 132.303 14.2352 133.276 13.9043C133.393 13.8459 133.568 13.7778 133.801 13.7C134.035 13.6027 134.2 13.5345 134.298 13.4956C134.94 13.1842 135.709 13.0966 136.604 13.2329C138.064 13.4469 139.173 14.1768 139.932 15.4224C140.088 15.7338 140.176 15.9674 140.195 16.1231C140.37 17.5244 140.409 18.6241 140.312 19.4221C140.273 19.7724 140.253 20.3077 140.253 21.0278C140.234 21.3003 140.224 21.7187 140.224 22.2832C140.224 22.8281 140.224 23.2466 140.224 23.5385C140.224 24.1808 140.448 24.5993 140.896 24.7939C140.915 24.7939 140.935 24.8134 140.954 24.8523C140.973 24.8912 140.993 24.9204 141.012 24.9399C140.973 25.0761 140.779 25.2124 140.429 25.3486C139.689 25.6016 138.871 25.5822 137.976 25.2902C137.49 24.9593 137.168 24.6187 137.013 24.2684C136.896 24.21 136.75 24.2489 136.575 24.3852C135.738 24.8912 134.92 25.2416 134.122 25.4362C133.286 25.5919 132.517 25.5141 131.816 25.2026C131.368 25.008 131.067 24.7258 130.911 24.356C130.541 23.6164 130.454 22.9352 130.648 22.3124C130.687 22.215 130.736 22.0593 130.794 21.8452C130.872 21.6312 130.931 21.4657 130.969 21.3489C131.203 20.804 131.738 20.2785 132.575 19.7724C133.315 19.3053 134.249 19.0426 135.378 18.9842H136.721ZM139.202 24.5312C139.339 24.4338 139.407 24.2198 139.407 23.8889C139.446 21.3587 139.465 19.4513 139.465 18.1667C139.465 17.7385 139.436 17.2909 139.378 16.8238C139.241 15.909 138.696 15.1791 137.743 14.6342C137.587 14.5563 137.48 14.5855 137.421 14.7217C137.421 14.8385 137.431 14.9261 137.451 14.9845C137.626 15.6657 137.713 16.4442 137.713 17.3201V23.451C138.044 24.2295 138.541 24.5896 139.202 24.5312ZM136.838 22.9255C136.954 21.7966 136.935 20.8721 136.779 20.152C136.546 20.0352 136.224 19.9671 135.816 19.9476C135.018 19.8892 134.249 20.0449 133.509 20.4147C133.042 20.9597 132.964 21.6409 133.276 22.4583C133.47 23.0422 133.899 23.3536 134.56 23.3926C135.222 23.3926 135.777 23.3342 136.224 23.2174C136.361 23.1785 136.565 23.0812 136.838 22.9255ZM133.976 24.4436C133.256 23.9765 132.789 23.5775 132.575 23.2466C132.458 23.0909 132.371 22.9255 132.312 22.7503C132.273 22.5751 132.235 22.361 132.196 22.108C132.176 21.8355 132.147 21.6409 132.108 21.5241C131.972 21.6603 131.865 21.8161 131.787 21.9912C131.709 22.1469 131.641 22.3416 131.583 22.5751C131.544 22.7892 131.505 22.9352 131.466 23.013C131.544 23.3244 131.621 23.5677 131.699 23.7429C131.816 23.9765 131.952 24.1419 132.108 24.2392C132.77 24.5896 133.393 24.6577 133.976 24.4436Z" fill="black"/>
<path d="M143.017 8.50342C143.017 8.4061 143.008 8.31851 142.988 8.24065C143.027 8.24065 143.134 8.21147 143.309 8.15308C143.484 8.09469 143.621 8.06549 143.718 8.06549C144.925 8.00711 146.112 7.97791 147.28 7.97791C147.299 7.97791 147.406 7.99736 147.601 8.03629C147.659 8.25038 147.688 8.75644 147.688 9.55443V11.0725C147.688 11.2477 147.679 11.5105 147.659 11.8608C147.659 12.1917 147.659 12.435 147.659 12.5907C147.62 13.2719 147.62 13.7585 147.659 14.0504C147.757 14.1282 147.873 14.1282 148.01 14.0504C148.126 13.992 148.292 13.8947 148.506 13.7585C148.739 13.6222 148.915 13.5249 149.031 13.4665C149.518 13.2135 150.063 13.087 150.666 13.087C151.756 13.1454 152.369 13.1843 152.506 13.2038C153.557 13.3789 154.306 13.9531 154.754 14.9262C154.89 15.2765 154.997 15.5879 155.075 15.8604C155.172 16.2692 155.23 16.493 155.25 16.5319C155.522 17.3104 155.639 18.3614 155.6 19.6849C155.581 21.0474 155.133 22.2638 154.257 23.3343C154.043 23.6262 153.751 23.889 153.381 24.1225C152.35 24.8816 151.328 25.3001 150.316 25.3779C150.16 25.3779 149.878 25.4071 149.469 25.4655C149.08 25.5044 148.778 25.5239 148.564 25.5239C147.883 25.485 147.484 25.4168 147.367 25.3195C146.9 25.3195 146.209 25.3293 145.294 25.3487C144.399 25.3487 143.728 25.3584 143.28 25.3779C143.222 25.3779 143.105 25.3487 142.93 25.2903C142.832 25.1541 142.842 25.047 142.959 24.9692C143.037 24.9303 143.144 24.8816 143.28 24.8232C143.416 24.7648 143.514 24.7162 143.572 24.6772C143.63 24.6383 143.708 24.5799 143.806 24.5021C143.922 24.4242 144.01 24.3658 144.068 24.3269C144.107 24.0544 144.127 23.8598 144.127 23.743C144.146 23.5873 144.156 23.3635 144.156 23.0715C144.253 19.0232 144.321 16.746 144.36 16.24C144.419 15.4614 144.448 13.4957 144.448 10.3427C144.448 10.1675 144.428 9.8853 144.389 9.49604C144.331 9.20409 144.243 8.99973 144.127 8.88295C144.029 8.76617 143.835 8.67857 143.543 8.62018C143.445 8.62018 143.299 8.60073 143.105 8.5618C143.085 8.54234 143.056 8.52288 143.017 8.50342ZM148.243 24.1809C148.671 24.2588 149.002 24.3074 149.236 24.3269C150.209 24.4437 150.958 24.0155 151.484 23.0423C151.503 23.0034 151.523 22.9547 151.542 22.8964C151.581 22.8185 151.61 22.7601 151.63 22.7212C151.961 22.0011 152.155 21.1057 152.214 20.0353C152.291 19.0621 152.184 18.0111 151.892 16.8822C151.659 15.9869 151.221 15.3155 150.579 14.8678C150.073 14.5175 149.46 14.4396 148.739 14.6343C148.389 14.751 148.068 14.9651 147.776 15.2765C147.698 15.3544 147.62 15.5101 147.542 15.7437C147.523 15.802 147.503 15.8994 147.484 16.0356C147.484 16.1718 147.484 16.2692 147.484 16.3275C147.484 17.6316 147.465 19.5876 147.426 22.1957C147.406 22.8964 147.679 23.5581 148.243 24.1809ZM146.842 8.99973C146.258 8.78563 145.742 8.79536 145.294 9.02892C145.294 9.12624 145.285 9.27221 145.265 9.46684C145.265 9.66147 145.265 9.79771 145.265 9.87557C145.285 10.946 145.294 12.5517 145.294 14.6926C145.294 15.9577 145.275 16.7655 145.236 17.1158C145.197 17.4661 145.148 18.5074 145.09 20.2396V21.7578C145.071 21.9135 145.051 22.1665 145.032 22.5168C145.012 22.8672 145.002 23.1202 145.002 23.2759C145.002 23.3343 144.993 23.4219 144.973 23.5386C144.973 23.6554 144.973 23.7527 144.973 23.8306C144.973 23.889 144.983 23.9766 145.002 24.0933C145.022 24.1907 145.061 24.2782 145.119 24.3561C145.197 24.3561 145.372 24.3853 145.645 24.4437C145.937 24.4826 146.17 24.4923 146.345 24.4729C146.54 24.4339 146.725 24.3561 146.9 24.2393C146.9 24.2199 146.89 24.1809 146.871 24.1225C146.871 24.0447 146.861 23.996 146.842 23.9766C146.628 23.6068 146.521 23.0618 146.521 22.3417C146.521 21.8745 146.521 21.1641 146.521 20.2104C146.521 19.2568 146.53 18.5366 146.55 18.05C146.55 17.9527 146.55 17.8262 146.55 17.6705C146.569 17.5148 146.579 17.3883 146.579 17.291C146.579 17.1937 146.589 17.0282 146.608 16.7947C146.628 16.5611 146.647 16.3957 146.667 16.2984C146.725 15.4809 146.754 15.0624 146.754 15.043C146.774 14.9067 146.764 14.7024 146.725 14.4299C146.686 14.1379 146.686 13.9239 146.725 13.7877V13.5249C146.764 12.8632 146.803 11.8511 146.842 10.4887V8.99973ZM152.476 23.4803C152.943 23.2662 153.274 23.0326 153.469 22.7796C153.994 22.1178 154.364 21.3393 154.578 20.444C154.754 19.6849 154.812 19.1497 154.754 18.8383C154.539 17.4759 154.238 16.3178 153.848 15.3641C153.634 14.8775 153.313 14.5369 152.885 14.3423C152.34 14.0504 151.844 13.9726 151.396 14.1087C151.552 14.3423 151.659 14.4883 151.717 14.5467C152.204 14.9943 152.564 15.6463 152.797 16.5027C152.973 17.2423 153.06 17.8749 153.06 18.4004V20.6776C153.06 20.9695 153.031 21.2517 152.973 21.5242C152.914 21.7578 152.827 22.0984 152.71 22.546C152.593 22.9937 152.515 23.3051 152.476 23.4803Z" fill="black"/>
<path d="M159.914 15.8896C160.323 16.4541 160.858 16.9406 161.52 17.3494C161.812 17.544 162.269 17.8165 162.892 18.1668C163.69 18.6534 164.342 19.101 164.848 19.5098C165.568 20.1521 165.948 20.9695 165.987 21.9621C166.006 22.4098 165.812 22.9547 165.403 23.597C165.247 23.8501 165.072 24.0739 164.877 24.2685C164.43 24.7551 163.933 25.047 163.389 25.1444C162.123 25.4168 160.926 25.5142 159.798 25.4363C158.863 25.3584 158.153 25.1444 157.666 24.794C157.511 23.6262 157.452 22.7212 157.491 22.0789C157.608 22.293 157.666 22.4195 157.666 22.4584C157.88 23.0423 158.328 23.6068 159.009 24.1517C159.418 24.4631 159.885 24.6383 160.411 24.6772H162.016C162.581 24.6578 162.99 24.3658 163.243 23.8014L163.476 23.1007C163.476 22.4195 163.184 21.8648 162.6 21.4366C162.25 21.1641 161.851 20.9014 161.403 20.6484C161.228 20.551 160.956 20.4148 160.586 20.2396C160.216 20.045 159.944 19.899 159.768 19.8017C158.931 19.3541 158.328 18.7799 157.958 18.0792C157.705 17.6121 157.579 17.2131 157.579 16.8822V16.2108C157.579 15.296 157.9 14.5467 158.542 13.9627C158.893 13.6124 159.272 13.3983 159.681 13.3204C160.265 13.1842 160.771 13.1161 161.199 13.1161C161.666 13.1355 162.367 13.1453 163.301 13.1453C163.885 13.1453 164.459 13.3204 165.023 13.6708C165.238 14.5077 165.247 15.3836 165.053 16.2984C164.975 16.24 164.916 16.1816 164.877 16.1232C164.761 15.8118 164.683 15.5782 164.644 15.4225C164.41 14.7024 163.963 14.1769 163.301 13.846C162.659 13.4956 161.958 13.3983 161.199 13.554C160.459 13.6902 160.031 14.1574 159.914 14.9554V15.8896ZM158.425 16.2984C158.562 17.5245 159.165 18.4004 160.235 18.9259C160.372 18.9843 160.634 19.1205 161.024 19.3346C161.432 19.5487 161.744 19.7044 161.958 19.8017C162.639 20.1326 163.281 20.6386 163.885 21.3198C164.177 21.6507 164.323 22.0011 164.323 22.3709C164.323 22.5071 164.342 22.7309 164.381 23.0423C164.634 22.8672 164.819 22.6141 164.936 22.2833C165.053 22.0302 165.062 21.7578 164.965 21.4658C164.673 20.7457 164.313 20.2591 163.885 20.0061C163.768 19.9477 163.603 19.8504 163.389 19.7141C163.194 19.5584 163.058 19.4514 162.98 19.393C162.61 19.1594 162.036 18.8091 161.257 18.342C160.79 18.089 160.216 17.6413 159.535 16.999C159.126 16.5514 158.941 16.094 158.98 15.6269C158.98 15.4517 158.931 15.3447 158.834 15.3057C158.698 15.403 158.601 15.5879 158.542 15.8604C158.484 16.1135 158.445 16.2594 158.425 16.2984Z" fill="black"/>
</mask>
<g mask="url(#mask1_193_240)">
<path d="M127.993 25.3487C125.074 25.4655 123.595 25.5239 123.556 25.5239H113.25C113.094 25.5239 112.9 25.5044 112.666 25.4655C112.627 25.4655 112.559 25.3974 112.462 25.2611C112.501 25.2417 112.549 25.2125 112.608 25.1735C112.666 25.1346 112.715 25.1054 112.754 25.086C113.026 24.9886 113.435 24.8621 113.98 24.7064C114.544 24.5507 114.836 24.1907 114.856 23.6262C114.856 23.3537 114.875 22.9353 114.914 22.3709C114.953 21.8064 114.982 21.3782 115.002 21.0863C115.021 18.7312 115.031 15.189 115.031 10.4594C115.05 9.6225 115.041 8.35739 115.002 6.6641C115.002 6.58625 114.992 6.4792 114.973 6.34296C114.973 6.20671 114.973 6.11913 114.973 6.0802C114.836 5.84665 114.535 5.66175 114.068 5.5255C113.97 5.48658 113.814 5.46711 113.6 5.46711C113.386 5.44765 113.231 5.40873 113.133 5.35034C113.075 5.19463 113.124 5.09732 113.279 5.05839C113.357 5.01946 113.493 5 113.688 5H120.607C120.704 5 120.831 5.01946 120.987 5.05839C121.045 5.21409 121.006 5.31141 120.87 5.35034C120.831 5.3698 120.763 5.38926 120.666 5.40873C120.568 5.42819 120.5 5.44765 120.461 5.46711C120.111 5.56443 119.906 5.63255 119.848 5.67148C119.439 5.88557 119.225 6.19698 119.206 6.60571C119.206 6.78088 119.186 7.13121 119.147 7.65672C119.108 8.18222 119.089 8.59095 119.089 8.8829V16.2984C119.089 16.4735 119.108 16.7557 119.147 17.145V18.3128C119.05 19.539 119.021 21.3685 119.06 23.8014C119.06 23.8403 119.06 23.8987 119.06 23.9766C119.079 24.0544 119.089 24.1031 119.089 24.1225C119.264 24.3756 119.585 24.541 120.052 24.6188C120.928 24.6967 122.242 24.7356 123.994 24.7356C124.48 24.7356 124.977 24.6578 125.483 24.5021C125.989 24.3658 126.378 24.0641 126.65 23.597C127.04 22.838 127.264 22.3806 127.322 22.2249C127.38 22.0692 127.478 21.8356 127.614 21.5242C127.75 21.2128 127.847 20.9792 127.906 20.8235C127.964 20.6484 128.023 20.5316 128.081 20.4732C128.139 20.4148 128.276 20.337 128.49 20.2396C128.587 20.3953 128.636 20.4927 128.636 20.5316C128.675 20.6289 128.694 20.7943 128.694 21.0279C128.694 21.6896 128.675 22.7017 128.636 24.0641C128.636 24.2977 128.587 24.541 128.49 24.794C128.431 25.0276 128.266 25.2125 127.993 25.3487ZM118.126 24.5897C118.184 24.4339 118.213 24.0836 118.213 23.5386C118.213 21.7091 118.223 20.3272 118.242 19.393V7.83189C118.242 7.42316 118.252 7.11175 118.272 6.89766C118.272 6.80034 118.272 6.65437 118.272 6.45974C118.291 6.2651 118.301 6.11913 118.301 6.02181C117.911 5.86611 117.328 5.80772 116.549 5.84665C116.218 5.84665 115.985 5.93423 115.848 6.1094C115.848 7.5886 115.858 8.4839 115.878 8.79531C115.878 8.87317 115.887 8.98994 115.907 9.14565C115.926 9.30135 115.936 9.4376 115.936 9.55438C115.955 9.67115 115.965 9.78793 115.965 9.90471C115.907 12.2987 115.878 13.5054 115.878 13.5249C115.858 14.3812 115.839 15.6658 115.819 17.3786C115.819 19.0719 115.819 20.3467 115.819 21.2031C115.819 22.7212 115.78 23.7041 115.702 24.1517C115.683 24.1907 115.702 24.3172 115.761 24.5313C116.5 24.648 117.289 24.6675 118.126 24.5897ZM127.672 24.0058C127.536 24.1809 127.458 24.2782 127.439 24.2977C127.458 24.2977 127.478 24.3074 127.497 24.3269C127.517 24.3269 127.536 24.3269 127.556 24.3269C127.594 24.249 127.633 24.142 127.672 24.0058Z" fill="#1437C6"/>
<path d="M136.721 18.9842C136.799 18.9063 136.838 18.8382 136.838 18.7798C136.954 17.6704 136.867 16.5805 136.575 15.51C136.341 14.6536 135.738 14.206 134.765 14.167C133.616 14.0892 132.692 14.6147 131.991 15.7436C131.952 15.8019 131.855 15.9868 131.699 16.2983C131.485 16.415 131.32 16.4053 131.203 16.2691V16.0939C131.612 14.965 132.303 14.2352 133.276 13.9043C133.393 13.8459 133.568 13.7778 133.801 13.7C134.035 13.6027 134.2 13.5345 134.298 13.4956C134.94 13.1842 135.709 13.0966 136.604 13.2329C138.064 13.4469 139.173 14.1768 139.932 15.4224C140.088 15.7338 140.176 15.9674 140.195 16.1231C140.37 17.5244 140.409 18.6241 140.312 19.4221C140.273 19.7724 140.253 20.3077 140.253 21.0278C140.234 21.3003 140.224 21.7187 140.224 22.2832C140.224 22.8281 140.224 23.2466 140.224 23.5385C140.224 24.1808 140.448 24.5993 140.896 24.7939C140.915 24.7939 140.935 24.8134 140.954 24.8523C140.973 24.8912 140.993 24.9204 141.012 24.9399C140.973 25.0761 140.779 25.2124 140.429 25.3486C139.689 25.6016 138.871 25.5822 137.976 25.2902C137.49 24.9593 137.168 24.6187 137.013 24.2684C136.896 24.21 136.75 24.2489 136.575 24.3852C135.738 24.8912 134.92 25.2416 134.122 25.4362C133.286 25.5919 132.517 25.5141 131.816 25.2026C131.368 25.008 131.067 24.7258 130.911 24.356C130.541 23.6164 130.454 22.9352 130.648 22.3124C130.687 22.215 130.736 22.0593 130.794 21.8452C130.872 21.6312 130.931 21.4657 130.969 21.3489C131.203 20.804 131.738 20.2785 132.575 19.7724C133.315 19.3053 134.249 19.0426 135.378 18.9842H136.721ZM139.202 24.5312C139.339 24.4338 139.407 24.2198 139.407 23.8889C139.446 21.3587 139.465 19.4513 139.465 18.1667C139.465 17.7385 139.436 17.2909 139.378 16.8238C139.241 15.909 138.696 15.1791 137.743 14.6342C137.587 14.5563 137.48 14.5855 137.421 14.7217C137.421 14.8385 137.431 14.9261 137.451 14.9845C137.626 15.6657 137.713 16.4442 137.713 17.3201V23.451C138.044 24.2295 138.541 24.5896 139.202 24.5312ZM136.838 22.9255C136.954 21.7966 136.935 20.8721 136.779 20.152C136.546 20.0352 136.224 19.9671 135.816 19.9476C135.018 19.8892 134.249 20.0449 133.509 20.4147C133.042 20.9597 132.964 21.6409 133.276 22.4583C133.47 23.0422 133.899 23.3536 134.56 23.3926C135.222 23.3926 135.777 23.3342 136.224 23.2174C136.361 23.1785 136.565 23.0812 136.838 22.9255ZM133.976 24.4436C133.256 23.9765 132.789 23.5775 132.575 23.2466C132.458 23.0909 132.371 22.9255 132.312 22.7503C132.273 22.5751 132.235 22.361 132.196 22.108C132.176 21.8355 132.147 21.6409 132.108 21.5241C131.972 21.6603 131.865 21.8161 131.787 21.9912C131.709 22.1469 131.641 22.3416 131.583 22.5751C131.544 22.7892 131.505 22.9352 131.466 23.013C131.544 23.3244 131.621 23.5677 131.699 23.7429C131.816 23.9765 131.952 24.1419 132.108 24.2392C132.77 24.5896 133.393 24.6577 133.976 24.4436Z" fill="#1437C6"/>
<path d="M143.017 8.50342C143.017 8.4061 143.008 8.31851 142.988 8.24065C143.027 8.24065 143.134 8.21147 143.309 8.15308C143.484 8.09469 143.621 8.06549 143.718 8.06549C144.925 8.00711 146.112 7.97791 147.28 7.97791C147.299 7.97791 147.406 7.99736 147.601 8.03629C147.659 8.25038 147.688 8.75644 147.688 9.55443V11.0725C147.688 11.2477 147.679 11.5105 147.659 11.8608C147.659 12.1917 147.659 12.435 147.659 12.5907C147.62 13.2719 147.62 13.7585 147.659 14.0504C147.757 14.1282 147.873 14.1282 148.01 14.0504C148.126 13.992 148.292 13.8947 148.506 13.7585C148.739 13.6222 148.915 13.5249 149.031 13.4665C149.518 13.2135 150.063 13.087 150.666 13.087C151.756 13.1454 152.369 13.1843 152.506 13.2038C153.557 13.3789 154.306 13.9531 154.754 14.9262C154.89 15.2765 154.997 15.5879 155.075 15.8604C155.172 16.2692 155.23 16.493 155.25 16.5319C155.522 17.3104 155.639 18.3614 155.6 19.6849C155.581 21.0474 155.133 22.2638 154.257 23.3343C154.043 23.6262 153.751 23.889 153.381 24.1225C152.35 24.8816 151.328 25.3001 150.316 25.3779C150.16 25.3779 149.878 25.4071 149.469 25.4655C149.08 25.5044 148.778 25.5239 148.564 25.5239C147.883 25.485 147.484 25.4168 147.367 25.3195C146.9 25.3195 146.209 25.3293 145.294 25.3487C144.399 25.3487 143.728 25.3584 143.28 25.3779C143.222 25.3779 143.105 25.3487 142.93 25.2903C142.832 25.1541 142.842 25.047 142.959 24.9692C143.037 24.9303 143.144 24.8816 143.28 24.8232C143.416 24.7648 143.514 24.7162 143.572 24.6772C143.63 24.6383 143.708 24.5799 143.806 24.5021C143.922 24.4242 144.01 24.3658 144.068 24.3269C144.107 24.0544 144.127 23.8598 144.127 23.743C144.146 23.5873 144.156 23.3635 144.156 23.0715C144.253 19.0232 144.321 16.746 144.36 16.24C144.419 15.4614 144.448 13.4957 144.448 10.3427C144.448 10.1675 144.428 9.8853 144.389 9.49604C144.331 9.20409 144.243 8.99973 144.127 8.88295C144.029 8.76617 143.835 8.67857 143.543 8.62018C143.445 8.62018 143.299 8.60073 143.105 8.5618C143.085 8.54234 143.056 8.52288 143.017 8.50342ZM148.243 24.1809C148.671 24.2588 149.002 24.3074 149.236 24.3269C150.209 24.4437 150.958 24.0155 151.484 23.0423C151.503 23.0034 151.523 22.9547 151.542 22.8964C151.581 22.8185 151.61 22.7601 151.63 22.7212C151.961 22.0011 152.155 21.1057 152.214 20.0353C152.291 19.0621 152.184 18.0111 151.892 16.8822C151.659 15.9869 151.221 15.3155 150.579 14.8678C150.073 14.5175 149.46 14.4396 148.739 14.6343C148.389 14.751 148.068 14.9651 147.776 15.2765C147.698 15.3544 147.62 15.5101 147.542 15.7437C147.523 15.802 147.503 15.8994 147.484 16.0356C147.484 16.1718 147.484 16.2692 147.484 16.3275C147.484 17.6316 147.465 19.5876 147.426 22.1957C147.406 22.8964 147.679 23.5581 148.243 24.1809ZM146.842 8.99973C146.258 8.78563 145.742 8.79536 145.294 9.02892C145.294 9.12624 145.285 9.27221 145.265 9.46684C145.265 9.66147 145.265 9.79771 145.265 9.87557C145.285 10.946 145.294 12.5517 145.294 14.6926C145.294 15.9577 145.275 16.7655 145.236 17.1158C145.197 17.4661 145.148 18.5074 145.09 20.2396V21.7578C145.071 21.9135 145.051 22.1665 145.032 22.5168C145.012 22.8672 145.002 23.1202 145.002 23.2759C145.002 23.3343 144.993 23.4219 144.973 23.5386C144.973 23.6554 144.973 23.7527 144.973 23.8306C144.973 23.889 144.983 23.9766 145.002 24.0933C145.022 24.1907 145.061 24.2782 145.119 24.3561C145.197 24.3561 145.372 24.3853 145.645 24.4437C145.937 24.4826 146.17 24.4923 146.345 24.4729C146.54 24.4339 146.725 24.3561 146.9 24.2393C146.9 24.2199 146.89 24.1809 146.871 24.1225C146.871 24.0447 146.861 23.996 146.842 23.9766C146.628 23.6068 146.521 23.0618 146.521 22.3417C146.521 21.8745 146.521 21.1641 146.521 20.2104C146.521 19.2568 146.53 18.5366 146.55 18.05C146.55 17.9527 146.55 17.8262 146.55 17.6705C146.569 17.5148 146.579 17.3883 146.579 17.291C146.579 17.1937 146.589 17.0282 146.608 16.7947C146.628 16.5611 146.647 16.3957 146.667 16.2984C146.725 15.4809 146.754 15.0624 146.754 15.043C146.774 14.9067 146.764 14.7024 146.725 14.4299C146.686 14.1379 146.686 13.9239 146.725 13.7877V13.5249C146.764 12.8632 146.803 11.8511 146.842 10.4887V8.99973ZM152.476 23.4803C152.943 23.2662 153.274 23.0326 153.469 22.7796C153.994 22.1178 154.364 21.3393 154.578 20.444C154.754 19.6849 154.812 19.1497 154.754 18.8383C154.539 17.4759 154.238 16.3178 153.848 15.3641C153.634 14.8775 153.313 14.5369 152.885 14.3423C152.34 14.0504 151.844 13.9726 151.396 14.1087C151.552 14.3423 151.659 14.4883 151.717 14.5467C152.204 14.9943 152.564 15.6463 152.797 16.5027C152.973 17.2423 153.06 17.8749 153.06 18.4004V20.6776C153.06 20.9695 153.031 21.2517 152.973 21.5242C152.914 21.7578 152.827 22.0984 152.71 22.546C152.593 22.9937 152.515 23.3051 152.476 23.4803Z" fill="#1437C6"/>
<path d="M159.914 15.8896C160.323 16.4541 160.858 16.9406 161.52 17.3494C161.812 17.544 162.269 17.8165 162.892 18.1668C163.69 18.6534 164.342 19.101 164.848 19.5098C165.568 20.1521 165.948 20.9695 165.987 21.9621C166.006 22.4098 165.812 22.9547 165.403 23.597C165.247 23.8501 165.072 24.0739 164.877 24.2685C164.43 24.7551 163.933 25.047 163.389 25.1444C162.123 25.4168 160.926 25.5142 159.798 25.4363C158.863 25.3584 158.153 25.1444 157.666 24.794C157.511 23.6262 157.452 22.7212 157.491 22.0789C157.608 22.293 157.666 22.4195 157.666 22.4584C157.88 23.0423 158.328 23.6068 159.009 24.1517C159.418 24.4631 159.885 24.6383 160.411 24.6772H162.016C162.581 24.6578 162.99 24.3658 163.243 23.8014L163.476 23.1007C163.476 22.4195 163.184 21.8648 162.6 21.4366C162.25 21.1641 161.851 20.9014 161.403 20.6484C161.228 20.551 160.956 20.4148 160.586 20.2396C160.216 20.045 159.944 19.899 159.768 19.8017C158.931 19.3541 158.328 18.7799 157.958 18.0792C157.705 17.6121 157.579 17.2131 157.579 16.8822V16.2108C157.579 15.296 157.9 14.5467 158.542 13.9627C158.893 13.6124 159.272 13.3983 159.681 13.3204C160.265 13.1842 160.771 13.1161 161.199 13.1161C161.666 13.1355 162.367 13.1453 163.301 13.1453C163.885 13.1453 164.459 13.3204 165.023 13.6708C165.238 14.5077 165.247 15.3836 165.053 16.2984C164.975 16.24 164.916 16.1816 164.877 16.1232C164.761 15.8118 164.683 15.5782 164.644 15.4225C164.41 14.7024 163.963 14.1769 163.301 13.846C162.659 13.4956 161.958 13.3983 161.199 13.554C160.459 13.6902 160.031 14.1574 159.914 14.9554V15.8896ZM158.425 16.2984C158.562 17.5245 159.165 18.4004 160.235 18.9259C160.372 18.9843 160.634 19.1205 161.024 19.3346C161.432 19.5487 161.744 19.7044 161.958 19.8017C162.639 20.1326 163.281 20.6386 163.885 21.3198C164.177 21.6507 164.323 22.0011 164.323 22.3709C164.323 22.5071 164.342 22.7309 164.381 23.0423C164.634 22.8672 164.819 22.6141 164.936 22.2833C165.053 22.0302 165.062 21.7578 164.965 21.4658C164.673 20.7457 164.313 20.2591 163.885 20.0061C163.768 19.9477 163.603 19.8504 163.389 19.7141C163.194 19.5584 163.058 19.4514 162.98 19.393C162.61 19.1594 162.036 18.8091 161.257 18.342C160.79 18.089 160.216 17.6413 159.535 16.999C159.126 16.5514 158.941 16.094 158.98 15.6269C158.98 15.4517 158.931 15.3447 158.834 15.3057C158.698 15.403 158.601 15.5879 158.542 15.8604C158.484 16.1135 158.445 16.2594 158.425 16.2984Z" fill="#1437C6"/>
<path d="M127.993 25.3487C125.074 25.4655 123.595 25.5239 123.556 25.5239H113.25C113.094 25.5239 112.9 25.5044 112.666 25.4655C112.627 25.4655 112.559 25.3974 112.462 25.2611C112.501 25.2417 112.549 25.2125 112.608 25.1735C112.666 25.1346 112.715 25.1054 112.754 25.086C113.026 24.9886 113.435 24.8621 113.98 24.7064C114.544 24.5507 114.836 24.1907 114.856 23.6262C114.856 23.3537 114.875 22.9353 114.914 22.3709C114.953 21.8064 114.982 21.3782 115.002 21.0863C115.021 18.7312 115.031 15.189 115.031 10.4594C115.05 9.6225 115.041 8.35739 115.002 6.6641C115.002 6.58625 114.992 6.4792 114.973 6.34296C114.973 6.20671 114.973 6.11913 114.973 6.0802C114.836 5.84665 114.535 5.66175 114.068 5.5255C113.97 5.48658 113.814 5.46711 113.6 5.46711C113.386 5.44765 113.231 5.40873 113.133 5.35034C113.075 5.19463 113.124 5.09732 113.279 5.05839C113.357 5.01946 113.493 5 113.688 5H120.607C120.704 5 120.831 5.01946 120.987 5.05839C121.045 5.21409 121.006 5.31141 120.87 5.35034C120.831 5.3698 120.763 5.38926 120.666 5.40873C120.568 5.42819 120.5 5.44765 120.461 5.46711C120.111 5.56443 119.906 5.63255 119.848 5.67148C119.439 5.88557 119.225 6.19698 119.206 6.60571C119.206 6.78088 119.186 7.13121 119.147 7.65672C119.108 8.18222 119.089 8.59095 119.089 8.8829V16.2984C119.089 16.4735 119.108 16.7557 119.147 17.145V18.3128C119.05 19.539 119.021 21.3685 119.06 23.8014C119.06 23.8403 119.06 23.8987 119.06 23.9766C119.079 24.0544 119.089 24.1031 119.089 24.1225C119.264 24.3756 119.585 24.541 120.052 24.6188C120.928 24.6967 122.242 24.7356 123.994 24.7356C124.48 24.7356 124.977 24.6578 125.483 24.5021C125.989 24.3658 126.378 24.0641 126.65 23.597C127.04 22.838 127.264 22.3806 127.322 22.2249C127.38 22.0692 127.478 21.8356 127.614 21.5242C127.75 21.2128 127.847 20.9792 127.906 20.8235C127.964 20.6484 128.023 20.5316 128.081 20.4732C128.139 20.4148 128.276 20.337 128.49 20.2396C128.587 20.3953 128.636 20.4927 128.636 20.5316C128.675 20.6289 128.694 20.7943 128.694 21.0279C128.694 21.6896 128.675 22.7017 128.636 24.0641C128.636 24.2977 128.587 24.541 128.49 24.794C128.431 25.0276 128.266 25.2125 127.993 25.3487ZM118.126 24.5897C118.184 24.4339 118.213 24.0836 118.213 23.5386C118.213 21.7091 118.223 20.3272 118.242 19.393V7.83189C118.242 7.42316 118.252 7.11175 118.272 6.89766C118.272 6.80034 118.272 6.65437 118.272 6.45974C118.291 6.2651 118.301 6.11913 118.301 6.02181C117.911 5.86611 117.328 5.80772 116.549 5.84665C116.218 5.84665 115.985 5.93423 115.848 6.1094C115.848 7.5886 115.858 8.4839 115.878 8.79531C115.878 8.87317 115.887 8.98994 115.907 9.14565C115.926 9.30135 115.936 9.4376 115.936 9.55438C115.955 9.67115 115.965 9.78793 115.965 9.90471C115.907 12.2987 115.878 13.5054 115.878 13.5249C115.858 14.3812 115.839 15.6658 115.819 17.3786C115.819 19.0719 115.819 20.3467 115.819 21.2031C115.819 22.7212 115.78 23.7041 115.702 24.1517C115.683 24.1907 115.702 24.3172 115.761 24.5313C116.5 24.648 117.289 24.6675 118.126 24.5897ZM127.672 24.0058C127.536 24.1809 127.458 24.2782 127.439 24.2977C127.458 24.2977 127.478 24.3074 127.497 24.3269C127.517 24.3269 127.536 24.3269 127.556 24.3269C127.594 24.249 127.633 24.142 127.672 24.0058Z" stroke="#1437C6" stroke-width="0.847991"/>
<path d="M136.721 18.9842C136.799 18.9063 136.838 18.8382 136.838 18.7798C136.954 17.6704 136.867 16.5805 136.575 15.51C136.341 14.6536 135.738 14.206 134.765 14.167C133.616 14.0892 132.692 14.6147 131.991 15.7436C131.952 15.8019 131.855 15.9868 131.699 16.2983C131.485 16.415 131.32 16.4053 131.203 16.2691V16.0939C131.612 14.965 132.303 14.2352 133.276 13.9043C133.393 13.8459 133.568 13.7778 133.801 13.7C134.035 13.6027 134.2 13.5345 134.298 13.4956C134.94 13.1842 135.709 13.0966 136.604 13.2329C138.064 13.4469 139.173 14.1768 139.932 15.4224C140.088 15.7338 140.176 15.9674 140.195 16.1231C140.37 17.5244 140.409 18.6241 140.312 19.4221C140.273 19.7724 140.253 20.3077 140.253 21.0278C140.234 21.3003 140.224 21.7187 140.224 22.2832C140.224 22.8281 140.224 23.2466 140.224 23.5385C140.224 24.1808 140.448 24.5993 140.896 24.7939C140.915 24.7939 140.935 24.8134 140.954 24.8523C140.973 24.8912 140.993 24.9204 141.012 24.9399C140.973 25.0761 140.779 25.2124 140.429 25.3486C139.689 25.6016 138.871 25.5822 137.976 25.2902C137.49 24.9593 137.168 24.6187 137.013 24.2684C136.896 24.21 136.75 24.2489 136.575 24.3852C135.738 24.8912 134.92 25.2416 134.122 25.4362C133.286 25.5919 132.517 25.5141 131.816 25.2026C131.368 25.008 131.067 24.7258 130.911 24.356C130.541 23.6164 130.454 22.9352 130.648 22.3124C130.687 22.215 130.736 22.0593 130.794 21.8452C130.872 21.6312 130.931 21.4657 130.969 21.3489C131.203 20.804 131.738 20.2785 132.575 19.7724C133.315 19.3053 134.249 19.0426 135.378 18.9842H136.721ZM139.202 24.5312C139.339 24.4338 139.407 24.2198 139.407 23.8889C139.446 21.3587 139.465 19.4513 139.465 18.1667C139.465 17.7385 139.436 17.2909 139.378 16.8238C139.241 15.909 138.696 15.1791 137.743 14.6342C137.587 14.5563 137.48 14.5855 137.421 14.7217C137.421 14.8385 137.431 14.9261 137.451 14.9845C137.626 15.6657 137.713 16.4442 137.713 17.3201V23.451C138.044 24.2295 138.541 24.5896 139.202 24.5312ZM136.838 22.9255C136.954 21.7966 136.935 20.8721 136.779 20.152C136.546 20.0352 136.224 19.9671 135.816 19.9476C135.018 19.8892 134.249 20.0449 133.509 20.4147C133.042 20.9597 132.964 21.6409 133.276 22.4583C133.47 23.0422 133.899 23.3536 134.56 23.3926C135.222 23.3926 135.777 23.3342 136.224 23.2174C136.361 23.1785 136.565 23.0812 136.838 22.9255ZM133.976 24.4436C133.256 23.9765 132.789 23.5775 132.575 23.2466C132.458 23.0909 132.371 22.9255 132.312 22.7503C132.273 22.5751 132.235 22.361 132.196 22.108C132.176 21.8355 132.147 21.6409 132.108 21.5241C131.972 21.6603 131.865 21.8161 131.787 21.9912C131.709 22.1469 131.641 22.3416 131.583 22.5751C131.544 22.7892 131.505 22.9352 131.466 23.013C131.544 23.3244 131.621 23.5677 131.699 23.7429C131.816 23.9765 131.952 24.1419 132.108 24.2392C132.77 24.5896 133.393 24.6577 133.976 24.4436Z" stroke="#1437C6" stroke-width="0.847991"/>
<path d="M143.017 8.50342C143.017 8.4061 143.008 8.31851 142.988 8.24065C143.027 8.24065 143.134 8.21147 143.309 8.15308C143.484 8.09469 143.621 8.06549 143.718 8.06549C144.925 8.00711 146.112 7.97791 147.28 7.97791C147.299 7.97791 147.406 7.99736 147.601 8.03629C147.659 8.25038 147.688 8.75644 147.688 9.55443V11.0725C147.688 11.2477 147.679 11.5105 147.659 11.8608C147.659 12.1917 147.659 12.435 147.659 12.5907C147.62 13.2719 147.62 13.7585 147.659 14.0504C147.757 14.1282 147.873 14.1282 148.01 14.0504C148.126 13.992 148.292 13.8947 148.506 13.7585C148.739 13.6222 148.915 13.5249 149.031 13.4665C149.518 13.2135 150.063 13.087 150.666 13.087C151.756 13.1454 152.369 13.1843 152.506 13.2038C153.557 13.3789 154.306 13.9531 154.754 14.9262C154.89 15.2765 154.997 15.5879 155.075 15.8604C155.172 16.2692 155.23 16.493 155.25 16.5319C155.522 17.3104 155.639 18.3614 155.6 19.6849C155.581 21.0474 155.133 22.2638 154.257 23.3343C154.043 23.6262 153.751 23.889 153.381 24.1225C152.35 24.8816 151.328 25.3001 150.316 25.3779C150.16 25.3779 149.878 25.4071 149.469 25.4655C149.08 25.5044 148.778 25.5239 148.564 25.5239C147.883 25.485 147.484 25.4168 147.367 25.3195C146.9 25.3195 146.209 25.3293 145.294 25.3487C144.399 25.3487 143.728 25.3584 143.28 25.3779C143.222 25.3779 143.105 25.3487 142.93 25.2903C142.832 25.1541 142.842 25.047 142.959 24.9692C143.037 24.9303 143.144 24.8816 143.28 24.8232C143.416 24.7648 143.514 24.7162 143.572 24.6772C143.63 24.6383 143.708 24.5799 143.806 24.5021C143.922 24.4242 144.01 24.3658 144.068 24.3269C144.107 24.0544 144.127 23.8598 144.127 23.743C144.146 23.5873 144.156 23.3635 144.156 23.0715C144.253 19.0232 144.321 16.746 144.36 16.24C144.419 15.4614 144.448 13.4957 144.448 10.3427C144.448 10.1675 144.428 9.8853 144.389 9.49604C144.331 9.20409 144.243 8.99973 144.127 8.88295C144.029 8.76617 143.835 8.67857 143.543 8.62018C143.445 8.62018 143.299 8.60073 143.105 8.5618C143.085 8.54234 143.056 8.52288 143.017 8.50342ZM148.243 24.1809C148.671 24.2588 149.002 24.3074 149.236 24.3269C150.209 24.4437 150.958 24.0155 151.484 23.0423C151.503 23.0034 151.523 22.9547 151.542 22.8964C151.581 22.8185 151.61 22.7601 151.63 22.7212C151.961 22.0011 152.155 21.1057 152.214 20.0353C152.291 19.0621 152.184 18.0111 151.892 16.8822C151.659 15.9869 151.221 15.3155 150.579 14.8678C150.073 14.5175 149.46 14.4396 148.739 14.6343C148.389 14.751 148.068 14.9651 147.776 15.2765C147.698 15.3544 147.62 15.5101 147.542 15.7437C147.523 15.802 147.503 15.8994 147.484 16.0356C147.484 16.1718 147.484 16.2692 147.484 16.3275C147.484 17.6316 147.465 19.5876 147.426 22.1957C147.406 22.8964 147.679 23.5581 148.243 24.1809ZM146.842 8.99973C146.258 8.78563 145.742 8.79536 145.294 9.02892C145.294 9.12624 145.285 9.27221 145.265 9.46684C145.265 9.66147 145.265 9.79771 145.265 9.87557C145.285 10.946 145.294 12.5517 145.294 14.6926C145.294 15.9577 145.275 16.7655 145.236 17.1158C145.197 17.4661 145.148 18.5074 145.09 20.2396V21.7578C145.071 21.9135 145.051 22.1665 145.032 22.5168C145.012 22.8672 145.002 23.1202 145.002 23.2759C145.002 23.3343 144.993 23.4219 144.973 23.5386C144.973 23.6554 144.973 23.7527 144.973 23.8306C144.973 23.889 144.983 23.9766 145.002 24.0933C145.022 24.1907 145.061 24.2782 145.119 24.3561C145.197 24.3561 145.372 24.3853 145.645 24.4437C145.937 24.4826 146.17 24.4923 146.345 24.4729C146.54 24.4339 146.725 24.3561 146.9 24.2393C146.9 24.2199 146.89 24.1809 146.871 24.1225C146.871 24.0447 146.861 23.996 146.842 23.9766C146.628 23.6068 146.521 23.0618 146.521 22.3417C146.521 21.8745 146.521 21.1641 146.521 20.2104C146.521 19.2568 146.53 18.5366 146.55 18.05C146.55 17.9527 146.55 17.8262 146.55 17.6705C146.569 17.5148 146.579 17.3883 146.579 17.291C146.579 17.1937 146.589 17.0282 146.608 16.7947C146.628 16.5611 146.647 16.3957 146.667 16.2984C146.725 15.4809 146.754 15.0624 146.754 15.043C146.774 14.9067 146.764 14.7024 146.725 14.4299C146.686 14.1379 146.686 13.9239 146.725 13.7877V13.5249C146.764 12.8632 146.803 11.8511 146.842 10.4887V8.99973ZM152.476 23.4803C152.943 23.2662 153.274 23.0326 153.469 22.7796C153.994 22.1178 154.364 21.3393 154.578 20.444C154.754 19.6849 154.812 19.1497 154.754 18.8383C154.539 17.4759 154.238 16.3178 153.848 15.3641C153.634 14.8775 153.313 14.5369 152.885 14.3423C152.34 14.0504 151.844 13.9726 151.396 14.1087C151.552 14.3423 151.659 14.4883 151.717 14.5467C152.204 14.9943 152.564 15.6463 152.797 16.5027C152.973 17.2423 153.06 17.8749 153.06 18.4004V20.6776C153.06 20.9695 153.031 21.2517 152.973 21.5242C152.914 21.7578 152.827 22.0984 152.71 22.546C152.593 22.9937 152.515 23.3051 152.476 23.4803Z" stroke="#1437C6" stroke-width="0.847991"/>
<path d="M159.914 15.8896C160.323 16.4541 160.858 16.9406 161.52 17.3494C161.812 17.544 162.269 17.8165 162.892 18.1668C163.69 18.6534 164.342 19.101 164.848 19.5098C165.568 20.1521 165.948 20.9695 165.987 21.9621C166.006 22.4098 165.812 22.9547 165.403 23.597C165.247 23.8501 165.072 24.0739 164.877 24.2685C164.43 24.7551 163.933 25.047 163.389 25.1444C162.123 25.4168 160.926 25.5142 159.798 25.4363C158.863 25.3584 158.153 25.1444 157.666 24.794C157.511 23.6262 157.452 22.7212 157.491 22.0789C157.608 22.293 157.666 22.4195 157.666 22.4584C157.88 23.0423 158.328 23.6068 159.009 24.1517C159.418 24.4631 159.885 24.6383 160.411 24.6772H162.016C162.581 24.6578 162.99 24.3658 163.243 23.8014L163.476 23.1007C163.476 22.4195 163.184 21.8648 162.6 21.4366C162.25 21.1641 161.851 20.9014 161.403 20.6484C161.228 20.551 160.956 20.4148 160.586 20.2396C160.216 20.045 159.944 19.899 159.768 19.8017C158.931 19.3541 158.328 18.7799 157.958 18.0792C157.705 17.6121 157.579 17.2131 157.579 16.8822V16.2108C157.579 15.296 157.9 14.5467 158.542 13.9627C158.893 13.6124 159.272 13.3983 159.681 13.3204C160.265 13.1842 160.771 13.1161 161.199 13.1161C161.666 13.1355 162.367 13.1453 163.301 13.1453C163.885 13.1453 164.459 13.3204 165.023 13.6708C165.238 14.5077 165.247 15.3836 165.053 16.2984C164.975 16.24 164.916 16.1816 164.877 16.1232C164.761 15.8118 164.683 15.5782 164.644 15.4225C164.41 14.7024 163.963 14.1769 163.301 13.846C162.659 13.4956 161.958 13.3983 161.199 13.554C160.459 13.6902 160.031 14.1574 159.914 14.9554V15.8896ZM158.425 16.2984C158.562 17.5245 159.165 18.4004 160.235 18.9259C160.372 18.9843 160.634 19.1205 161.024 19.3346C161.432 19.5487 161.744 19.7044 161.958 19.8017C162.639 20.1326 163.281 20.6386 163.885 21.3198C164.177 21.6507 164.323 22.0011 164.323 22.3709C164.323 22.5071 164.342 22.7309 164.381 23.0423C164.634 22.8672 164.819 22.6141 164.936 22.2833C165.053 22.0302 165.062 21.7578 164.965 21.4658C164.673 20.7457 164.313 20.2591 163.885 20.0061C163.768 19.9477 163.603 19.8504 163.389 19.7141C163.194 19.5584 163.058 19.4514 162.98 19.393C162.61 19.1594 162.036 18.8091 161.257 18.342C160.79 18.089 160.216 17.6413 159.535 16.999C159.126 16.5514 158.941 16.094 158.98 15.6269C158.98 15.4517 158.931 15.3447 158.834 15.3057C158.698 15.403 158.601 15.5879 158.542 15.8604C158.484 16.1135 158.445 16.2594 158.425 16.2984Z" stroke="#1437C6" stroke-width="0.847991"/>
</g>
<defs>
<linearGradient id="paint0_linear_193_240" x1="10.7678" y1="10.2272" x2="17.1547" y2="33.9837" gradientUnits="userSpaceOnUse">
<stop stop-color="#1437C6"/>
<stop offset="1" stop-color="#5C90FE"/>
</linearGradient>
</defs>
</svg>
